<svg enable-background="new 0 0 430 200" viewBox="0 0 430 200" xmlns="http://www.w3.org/2000/svg"><path d="m57.4 111.1c-14.4-9.2-26.6-16-26.6-28.1 0-13.3 12.7-14.7 16.4-14.7s8.4 1.3 11.6 4c-2.2 5.4-2.5 9.8-2.5 12.6 0 4.2 2.3 10.8 10.7 10.8 7.6 0 9.4-4.6 9.4-8.9 0-4.2-2.5-6.7-6.1-7.6-.7-10 2.2-19.4 6.8-25.8-6.4.5-9.7 3.2-10.7 4.2-3.7-3.7-13.2-5.9-19.7-5.9-12.3 0-33.7 8.3-33.7 31.8 0 21.3 17.2 30.5 28.2 37.6s26 15.7 26 32.9-11.2 24.1-22 24.1-20.7-8.4-20.7-19.9 9.8-14.4 13-14.4c2.9 0 5.3 1.1 5.3 1.1 2.7-5.7.1-14.9-12.5-13.4 1.3-8.6-5.3-17.3-14.5-11.8 6.6 4.6 2.3 12.4.2 15.5-2.5 3.7-9.7 12.3-9.3 27.2.3 11.8 11.6 22.8 11.6 22.8-3.2 2.5-3.5 6.2-1.9 8.8 5.1-3.7 11.8-1.5 18.1-.3 2 .4 9.1 1.7 16 .7 15.3-2.4 34.5-13 34.5-39.9 0-22.1-13.3-34.1-27.6-43.4zm86.4 38.6s-9.9-69-9.9-70.9c0-1.8-1-3.3 1.6-7.5-11.3 1.7-22.7 2.9-34 3.5 2.6 3.7 1.6 5.4 1.6 7.2 0 1.9-9.9 72.9-9.9 72.8-.4 4.5-2.6 8.8-5.1 11.2 7.3 0 14.6-.3 21.9-.9-.8-2-1.8-5.5-1.4-10 .1-.8.4-3.4.9-7.2 6-.4 12.1-1.1 18.1-1.9.5 3.7.8 6.2.9 7 .4 4.4-.6 8.2-1.4 10.3 7.3-.9 14.6-2.1 21.9-3.5-2.6-1.9-4.8-5.7-5.2-10.1zm-32.5-15.7c2.6-19.7 6.2-46.1 6.2-46.1.7-.1 1.3-.1 2-.2 0 0 3.6 25.6 6.2 44.8-4.8.7-9.6 1.2-14.4 1.5zm201.4-31.2s-9.9-67.9-9.9-69.7-1-3.2 1.6-7.8c-11.3 3.2-22.7 6.7-34 10.2 2.6 3 1.6 5 1.6 6.8s-9.9 75.6-9.9 75.6c-.4 4.6-2.6 9.5-5.1 12.7 7.3-2.3 14.6-4.6 21.9-6.8-.8-1.8-1.8-5.1-1.4-9.7.1-.8.4-3.5.9-7.4 6-1.8 12-3.7 18.1-5.4.5 3.6.8 6.1.9 6.8.4 4.3-.6 8.3-1.4 10.5 7.3-2.1 14.6-4.2 21.9-6.2-2.5-1.7-4.8-5.3-5.2-9.6zm-32.5-10.3c2.6-20.3 6.2-47.4 6.2-47.4.7-.2 1.4-.4 2-.6 0 0 3.6 24.9 6.2 43.7-4.8 1.3-9.6 2.8-14.4 4.3zm-31.8 33.6c0-1.8 9.9-75.6 9.9-75.6.4-4.6 2.6-9.5 5.1-12.7-7.3 2.3-14.6 4.6-21.9 6.8.8 1.8 1.8 5.1 1.4 9.7-.4 4-7 54.8-8.6 66.7-1.6-10.9-8.2-57.6-8.6-61.4-.4-4.3.6-8.3 1.4-10.6-7.3 2.2-14.6 4.4-21.9 6.4 2.4 1.7 4.7 5.3 5.1 9.7 0 0 9.9 67.7 9.9 69.6 0 1.8 1 3.1-1.6 7.8 10.4-3.1 20.9-6.3 31.3-9.6-2.6-3.1-1.6-5-1.5-6.8zm-67-64.2c1 1.5 2.3 4.2 2.3 8.2v61.7c0 4.4-3.6 8.9-8 9.9-4.4 1.1-8-1.7-8-6.1 0 0 0-57.7 0-61.7s1.3-7.3 2.3-9.3c-6.8 1.6-13.6 3-20.4 4.3 1 1.6 2.3 4.3 2.3 8.3v61.7c0 1.8-.2 5-1.8 7 3.4 8.3 13.6 12.9 25.5 10 12-2.9 22.1-12.2 25.5-22.2-1.6-1.3-1.8-4.4-1.8-6.2 0 0 0-57.7 0-61.7s1.3-7.3 2.3-9.4c-6.5 1.9-13.4 3.7-20.2 5.5zm189.2-9.8c-8.1 1.3-16.2 2.9-24.4 4.7-1.2 5.5-2.3 11-3.5 16.5 1.8-1.6 7-4.7 10-5.1v22c-1.6 1-3.4 1.7-5.4 2.1-3 .6-13.7 3-13.7-30.1 0-26.2 8.8-34.3 13.9-35.4s7.8 2.5 7.8 5.6-1.1 4.5-1.9 5.5c1.1 1.3 3.7 1.3 5.3 1s10-2.9 10-13.9-12-14.6-21.4-12.5c-16.4 3.6-29.7 22.8-29.7 53.6 0 30.9 12.1 44.7 29 41 12-2.6 19.7-8 23.5-14.7-1.6-1.4-1.8-4.6-1.8-6.4v-24.7c0-4 1.2-7.2 2.3-9.2zm43.9 29.2c-3.1 0-15 .7-20.2 1.3v-27.8c4.5-.5 9.7-.8 11.1-.9 2.7-.2 4.8 1 6.1 2.4 1.2-6.4 2.4-12.9 3.6-19.3-1.8 1.1-4.7 2.5-8.8 2.7-1.9.1-7.1.5-12 1v-19.9c4.6-.5 14.5-1.2 17.5-1.2 4-.2 7 1.1 8.8 2.1-1-5.5-2.1-10.9-3.1-16.3-13.8.2-27.5 1.5-41.3 3.6 1 1.6 2.3 4.4 2.3 8.4v1.9 59.8 11.6c0 4-1.3 7.2-2.3 9.1 6.8-1 13.6-1.9 20.4-2.5 7.9-.7 15.7-1.1 23.6-1.2 1-5.8 2.1-11.5 3.1-17.3-1.8 1.1-4.7 2.3-8.8 2.5z"/></svg>