<svg enable-background="new 0 0 215 100" viewBox="0 0 215 100" xmlns="http://www.w3.org/2000/svg"><path d="m28.7 55.6c-7.2-4.6-13.3-8-13.3-14.1 0-6.7 6.4-7.3 8.2-7.3s4.2.6 5.8 2c-1.1 2.7-1.3 4.9-1.3 6.3 0 2.1 1.1 5.4 5.4 5.4 3.8 0 4.7-2.3 4.7-4.4s-1.2-3.4-3-3.8c-.3-5 1.1-9.7 3.4-12.9-3.2.3-4.9 1.6-5.4 2.1-1.9-1.9-6.6-3-9.9-3-6.1 0-16.8 4.1-16.8 15.9 0 10.6 8.6 15.3 14.1 18.8s13 7.8 13 16.5-5.6 12.1-11 12.1-10.3-4.2-10.3-10 4.9-7.2 6.5-7.2c1.4 0 2.6.5 2.6.5 1.4-2.9.1-7.4-6.2-6.7.7-4.3-2.6-8.7-7.3-5.9 3.3 2.3 1.2 6.2.1 7.8-1.3 1.9-4.9 6.2-4.6 13.6.2 5.9 5.8 11.4 5.8 11.4-1.6 1.3-1.8 3.1-.9 4.4 2.5-1.9 5.9-.8 9-.2 1 .2 4.6.9 8 .3 7.6-1.1 17.2-6.5 17.2-19.9 0-11.1-6.6-17.1-13.8-21.7zm43.2 19.2s-5-34.5-5-35.4-.5-1.6.8-3.8c-5.7.9-11.3 1.5-17 1.7 1.3 1.9.8 2.7.8 3.6s-5 36.4-5 36.4c-.2 2.2-1.3 4.4-2.5 5.6 3.6 0 7.3-.1 10.9-.4-.4-1-.9-2.8-.7-5 0-.4.2-1.7.4-3.6 3-.2 6-.5 9-.9.2 1.8.4 3.1.4 3.5.2 2.2-.3 4.1-.7 5.2 3.6-.5 7.3-1 10.9-1.7-1-1-2.1-3-2.3-5.2zm-16.3-7.8c1.4-9.8 3.1-23 3.1-23 .3 0 .7-.1 1-.1 0 0 1.8 12.8 3.1 22.4-2.3.3-4.7.5-7.2.7zm100.8-15.6s-5-33.9-5-34.8-.5-1.6.8-3.9c-5.7 1.6-11.3 3.3-17 5.1 1.3 1.5.8 2.5.8 3.4s-5 37.8-5 37.8c-.2 2.3-1.3 4.8-2.5 6.4 3.6-1.1 7.3-2.3 10.9-3.4-.4-.9-.9-2.6-.7-4.8 0-.4.2-1.7.4-3.7 3-.9 6-1.8 9-2.7.2 1.8.4 3 .4 3.4.2 2.2-.3 4.1-.7 5.3 3.6-1.1 7.3-2.1 10.9-3.1-1-1-2.1-2.8-2.3-5zm-16.3-5.2c1.3-10.2 3.1-23.7 3.1-23.7.3-.1.7-.2 1-.3 0 0 1.8 12.5 3.1 21.8-2.4.8-4.8 1.5-7.2 2.2zm-15.9 16.8c0-.9 5-37.8 5-37.8.2-2.3 1.3-4.8 2.5-6.4-3.6 1.1-7.3 2.3-10.9 3.4.4.9.9 2.6.7 4.8-.2 2-3.5 27.4-4.3 33.3-.8-5.5-4.1-28.8-4.3-30.7-.2-2.2.3-4.1.7-5.3-3.6 1.1-7.3 2.2-10.9 3.2 1.2.9 2.3 2.7 2.5 4.8 0 0 5 33.9 5 34.8s.5 1.6-.8 3.9c5.2-1.6 10.4-3.2 15.7-4.8-1.4-1.3-.9-2.3-.9-3.2zm-33.5-32.1c.5.8 1.2 2.1 1.2 4.1v30.9c0 2.2-1.8 4.4-4 5-2.2.5-4-.8-4-3 0 0 0-28.8 0-30.9 0-2 .6-3.6 1.2-4.7-3.4.8-6.8 1.5-10.2 2.1.5.8 1.2 2.1 1.2 4.2v30.9c0 .9-.1 2.5-.9 3.5 1.7 4.2 6.8 6.4 12.8 5s11.1-6.1 12.8-11.1c-.8-.6-.9-2.2-.9-3.1 0 0 0-28.8 0-30.9 0-2 .6-3.7 1.2-4.7-3.6 1-7 1.9-10.4 2.7zm94.6-4.8c-4.1.7-8.1 1.5-12.2 2.4-.6 2.7-1.2 5.5-1.8 8.2.9-.8 3.5-2.3 5-2.5v11c-.8.5-1.7.8-2.7 1.1-1.5.3-6.9 1.5-6.9-15.1 0-13.1 4.4-17.1 7-17.7s3.9 1.3 3.9 2.8-.5 2.2-1 2.8c.5.6 1.9.6 2.7.5.8-.2 5-1.5 5-6.9 0-5.5-6-7.3-10.7-6.3-8.2 1.8-14.8 11.4-14.8 26.8s6.1 22.4 14.5 20.5c6-1.3 9.8-4 11.7-7.3-.8-.7-.9-2.3-.9-3.2v-12.5c0-2.1.7-3.7 1.2-4.6zm22 14.5c-1.6 0-7.5.4-10.1.7v-13.9c2.3-.2 4.8-.4 5.5-.4 1.3-.1 2.4.5 3 1.2.6-3.2 1.2-6.4 1.8-9.7-.9.5-2.4 1.2-4.4 1.4-1 .1-3.6.2-6 .5v-9.9c2.3-.3 7.2-.6 8.8-.6 2-.1 3.5.5 4.4 1-.5-2.7-1-5.5-1.5-8.2-6.9.1-13.8.8-20.7 1.8.5.8 1.2 2.2 1.2 4.2v.9 29.9 5.8c0 2-.6 3.6-1.2 4.6 3.4-.5 6.8-.9 10.2-1.2 3.9-.4 7.9-.6 11.8-.6.5-2.9 1-5.8 1.5-8.7-.8.5-2.3 1.2-4.3 1.2z" fill="#fff"/></svg>