<?xml version="1.0" encoding="utf-8"?>
<!-- Generator: Adobe Illustrator 23.1.1, SVG Export Plug-In . SVG Version: 6.00 Build 0)  -->
<svg version="1.1" id="Calque_1" xmlns="http://www.w3.org/2000/svg" xmlns:xlink="http://www.w3.org/1999/xlink" x="0px" y="0px"
	 viewBox="0 0 430 200" style="enable-background:new 0 0 430 200;" xml:space="preserve">
<path d="M57.4,111.1C43,101.9,30.8,95.1,30.8,83c0-13.3,12.7-14.7,16.4-14.7s8.4,1.3,11.6,4c-2.2,5.4-2.5,9.8-2.5,12.6
	c0,4.2,2.3,10.8,10.7,10.8c7.6,0,9.4-4.6,9.4-8.9c0-4.2-2.5-6.7-6.1-7.6c-0.7-10,2.2-19.4,6.8-25.8c-6.4,0.5-9.7,3.2-10.7,4.2
	c-3.7-3.7-13.2-5.9-19.7-5.9C34.4,51.7,13,60,13,83.5c0,21.3,17.2,30.5,28.2,37.6s26,15.7,26,32.9S56,178.1,45.2,178.1
	s-20.7-8.4-20.7-19.9s9.8-14.4,13-14.4c2.9,0,5.3,1.1,5.3,1.1c2.7-5.7,0.1-14.9-12.5-13.4c1.3-8.6-5.3-17.3-14.5-11.8
	c6.6,4.6,2.3,12.4,0.2,15.5c-2.5,3.7-9.7,12.3-9.3,27.2c0.3,11.8,11.6,22.8,11.6,22.8c-3.2,2.5-3.5,6.2-1.9,8.8
	c5.1-3.7,11.8-1.5,18.1-0.3c2,0.4,9.1,1.7,16,0.7C65.8,192,85,181.4,85,154.5C85,132.4,71.7,120.4,57.4,111.1z M143.8,149.7
	c0,0-9.9-69-9.9-70.9c0-1.8-1-3.3,1.6-7.5c-11.3,1.7-22.7,2.9-34,3.5c2.6,3.7,1.6,5.4,1.6,7.2c0,1.9-9.9,72.9-9.9,72.8
	c-0.4,4.5-2.6,8.8-5.1,11.2c7.3,0,14.6-0.3,21.9-0.9c-0.8-2-1.8-5.5-1.4-10c0.1-0.8,0.4-3.4,0.9-7.2c6-0.4,12.1-1.1,18.1-1.9
	c0.5,3.7,0.8,6.2,0.9,7c0.4,4.4-0.6,8.2-1.4,10.3c7.3-0.9,14.6-2.1,21.9-3.5C146.4,157.9,144.2,154.1,143.8,149.7z M111.3,134
	c2.6-19.7,6.2-46.1,6.2-46.1c0.7-0.1,1.3-0.1,2-0.2c0,0,3.6,25.6,6.2,44.8C120.9,133.2,116.1,133.7,111.3,134z M312.7,102.8
	c0,0-9.9-67.9-9.9-69.7c0-1.8-1-3.2,1.6-7.8c-11.3,3.2-22.7,6.7-34,10.2c2.6,3,1.6,5,1.6,6.8c0,1.8-9.9,75.6-9.9,75.6
	c-0.4,4.6-2.6,9.5-5.1,12.7c7.3-2.3,14.6-4.6,21.9-6.8c-0.8-1.8-1.8-5.1-1.4-9.7c0.1-0.8,0.4-3.5,0.9-7.4c6-1.8,12-3.7,18.1-5.4
	c0.5,3.6,0.8,6.1,0.9,6.8c0.4,4.3-0.6,8.3-1.4,10.5c7.3-2.1,14.6-4.2,21.9-6.2C315.4,110.7,313.1,107.1,312.7,102.8z M280.2,92.5
	c2.6-20.3,6.2-47.4,6.2-47.4c0.7-0.2,1.4-0.4,2-0.6c0,0,3.6,24.9,6.2,43.7C289.8,89.5,285,91,280.2,92.5z M248.4,126.1
	c0-1.8,9.9-75.6,9.9-75.6c0.4-4.6,2.6-9.5,5.1-12.7c-7.3,2.3-14.6,4.6-21.9,6.8c0.8,1.8,1.8,5.1,1.4,9.7c-0.4,4-7,54.8-8.6,66.7
	c-1.6-10.9-8.2-57.6-8.6-61.4c-0.4-4.3,0.6-8.3,1.4-10.6c-7.3,2.2-14.6,4.4-21.9,6.4c2.4,1.7,4.7,5.3,5.1,9.7c0,0,9.9,67.7,9.9,69.6
	c0,1.8,1,3.1-1.6,7.8c10.4-3.1,20.9-6.3,31.3-9.6C247.3,129.8,248.3,127.9,248.4,126.1z M181.4,61.9c1,1.5,2.3,4.2,2.3,8.2v61.7
	c0,4.4-3.6,8.9-8,9.9c-4.4,1.1-8-1.7-8-6.1c0,0,0-57.7,0-61.7c0-4,1.3-7.3,2.3-9.3c-6.8,1.6-13.6,3-20.4,4.3c1,1.6,2.3,4.3,2.3,8.3
	c0,4,0,61.7,0,61.7c0,1.8-0.2,5-1.8,7c3.4,8.3,13.6,12.9,25.5,10c12-2.9,22.1-12.2,25.5-22.2c-1.6-1.3-1.8-4.4-1.8-6.2
	c0,0,0-57.7,0-61.7c0-4,1.3-7.3,2.3-9.4C195.1,58.3,188.2,60.1,181.4,61.9z M370.6,52.1c-8.1,1.3-16.2,2.9-24.4,4.7
	c-1.2,5.5-2.3,11-3.5,16.5c1.8-1.6,7-4.7,10-5.1v22c-1.6,1-3.4,1.7-5.4,2.1c-3,0.6-13.7,3-13.7-30.1c0-26.2,8.8-34.3,13.9-35.4
	c5.1-1.1,7.8,2.5,7.8,5.6c0,3.1-1.1,4.5-1.9,5.5c1.1,1.3,3.7,1.3,5.3,1c1.6-0.3,10-2.9,10-13.9c0-11-12-14.6-21.4-12.5
	c-16.4,3.6-29.7,22.8-29.7,53.6c0,30.9,12.1,44.7,29,41c12-2.6,19.7-8,23.5-14.7c-1.6-1.4-1.8-4.6-1.8-6.4V61.3
	C368.3,57.3,369.5,54.1,370.6,52.1z M414.5,81.3c-3.1,0-15,0.7-20.2,1.3V54.8c4.5-0.5,9.7-0.8,11.1-0.9c2.7-0.2,4.8,1,6.1,2.4
	c1.2-6.4,2.4-12.9,3.6-19.3c-1.8,1.1-4.7,2.5-8.8,2.7c-1.9,0.1-7.1,0.5-12,1V20.8c4.6-0.5,14.5-1.2,17.5-1.2c4-0.2,7,1.1,8.8,2.1
	c-1-5.5-2.1-10.9-3.1-16.3C403.7,5.6,390,6.9,376.2,9c1,1.6,2.3,4.4,2.3,8.4c0,0.3,0,1,0,1.9c0,10.8,0,59.8,0,59.8
	c0,6.2,0,10.7,0,11.6c0,4-1.3,7.2-2.3,9.1c6.8-1,13.6-1.9,20.4-2.5c7.9-0.7,15.7-1.1,23.6-1.2c1-5.8,2.1-11.5,3.1-17.3
	C421.5,79.9,418.6,81.1,414.5,81.3z"/>
</svg>
