<?xml version="1.0" encoding="utf-8"?>
<!-- Generator: Adobe Illustrator 23.1.1, SVG Export Plug-In . SVG Version: 6.00 Build 0)  -->
<svg version="1.1" id="Calque_1" xmlns="http://www.w3.org/2000/svg" xmlns:xlink="http://www.w3.org/1999/xlink" x="0px" y="0px"
	 viewBox="0 0 215 100" style="enable-background:new 0 0 215 100;" xml:space="preserve">
<style type="text/css">
	.st0{fill:#FFFFFF;}
</style>
<path class="st0" d="M28.7,55.6c-7.2-4.6-13.3-8-13.3-14.1c0-6.7,6.4-7.3,8.2-7.3s4.2,0.6,5.8,2c-1.1,2.7-1.3,4.9-1.3,6.3
	c0,2.1,1.1,5.4,5.4,5.4c3.8,0,4.7-2.3,4.7-4.4c0-2.1-1.2-3.4-3-3.8c-0.3-5,1.1-9.7,3.4-12.9c-3.2,0.3-4.9,1.6-5.4,2.1
	c-1.9-1.9-6.6-3-9.9-3c-6.1,0-16.8,4.1-16.8,15.9c0,10.6,8.6,15.3,14.1,18.8s13,7.8,13,16.5s-5.6,12.1-11,12.1s-10.3-4.2-10.3-10
	s4.9-7.2,6.5-7.2c1.4,0,2.6,0.5,2.6,0.5c1.4-2.9,0.1-7.4-6.2-6.7c0.7-4.3-2.6-8.7-7.3-5.9c3.3,2.3,1.2,6.2,0.1,7.8
	c-1.3,1.9-4.9,6.2-4.6,13.6c0.2,5.9,5.8,11.4,5.8,11.4c-1.6,1.3-1.8,3.1-0.9,4.4c2.5-1.9,5.9-0.8,9-0.2c1,0.2,4.6,0.9,8,0.3
	c7.6-1.1,17.2-6.5,17.2-19.9C42.5,66.2,35.9,60.2,28.7,55.6z M71.9,74.8c0,0-5-34.5-5-35.4c0-0.9-0.5-1.6,0.8-3.8
	c-5.7,0.9-11.3,1.5-17,1.7c1.3,1.9,0.8,2.7,0.8,3.6c0,0.9-5,36.4-5,36.4c-0.2,2.2-1.3,4.4-2.5,5.6c3.6,0,7.3-0.1,10.9-0.4
	c-0.4-1-0.9-2.8-0.7-5c0-0.4,0.2-1.7,0.4-3.6c3-0.2,6-0.5,9-0.9c0.2,1.8,0.4,3.1,0.4,3.5c0.2,2.2-0.3,4.1-0.7,5.2
	c3.6-0.5,7.3-1,10.9-1.7C73.2,79,72.1,77,71.9,74.8z M55.6,67C57,57.2,58.7,44,58.7,44c0.3,0,0.7-0.1,1-0.1c0,0,1.8,12.8,3.1,22.4
	C60.5,66.6,58.1,66.8,55.6,67z M156.4,51.4c0,0-5-33.9-5-34.8c0-0.9-0.5-1.6,0.8-3.9c-5.7,1.6-11.3,3.3-17,5.1
	c1.3,1.5,0.8,2.5,0.8,3.4c0,0.9-5,37.8-5,37.8c-0.2,2.3-1.3,4.8-2.5,6.4c3.6-1.1,7.3-2.3,10.9-3.4c-0.4-0.9-0.9-2.6-0.7-4.8
	c0-0.4,0.2-1.7,0.4-3.7c3-0.9,6-1.8,9-2.7c0.2,1.8,0.4,3,0.4,3.4c0.2,2.2-0.3,4.1-0.7,5.3c3.6-1.1,7.3-2.1,10.9-3.1
	C157.7,55.4,156.6,53.6,156.4,51.4z M140.1,46.2c1.3-10.2,3.1-23.7,3.1-23.7c0.3-0.1,0.7-0.2,1-0.3c0,0,1.8,12.5,3.1,21.8
	C144.9,44.8,142.5,45.5,140.1,46.2z M124.2,63c0-0.9,5-37.8,5-37.8c0.2-2.3,1.3-4.8,2.5-6.4c-3.6,1.1-7.3,2.3-10.9,3.4
	c0.4,0.9,0.9,2.6,0.7,4.8c-0.2,2-3.5,27.4-4.3,33.3c-0.8-5.5-4.1-28.8-4.3-30.7c-0.2-2.2,0.3-4.1,0.7-5.3c-3.6,1.1-7.3,2.2-10.9,3.2
	c1.2,0.9,2.3,2.7,2.5,4.8c0,0,5,33.9,5,34.8c0,0.9,0.5,1.6-0.8,3.9c5.2-1.6,10.4-3.2,15.7-4.8C123.7,64.9,124.2,63.9,124.2,63z
	 M90.7,30.9c0.5,0.8,1.2,2.1,1.2,4.1v30.9c0,2.2-1.8,4.4-4,5c-2.2,0.5-4-0.8-4-3c0,0,0-28.8,0-30.9c0-2,0.6-3.6,1.2-4.7
	c-3.4,0.8-6.8,1.5-10.2,2.1c0.5,0.8,1.2,2.1,1.2,4.2c0,2,0,30.9,0,30.9c0,0.9-0.1,2.5-0.9,3.5c1.7,4.2,6.8,6.4,12.8,5
	c6-1.4,11.1-6.1,12.8-11.1c-0.8-0.6-0.9-2.2-0.9-3.1c0,0,0-28.8,0-30.9c0-2,0.6-3.7,1.2-4.7C97.5,29.2,94.1,30.1,90.7,30.9z
	 M185.3,26.1c-4.1,0.7-8.1,1.5-12.2,2.4c-0.6,2.7-1.2,5.5-1.8,8.2c0.9-0.8,3.5-2.3,5-2.5v11c-0.8,0.5-1.7,0.8-2.7,1.1
	c-1.5,0.3-6.9,1.5-6.9-15.1c0-13.1,4.4-17.1,7-17.7c2.6-0.6,3.9,1.3,3.9,2.8c0,1.5-0.5,2.2-1,2.8c0.5,0.6,1.9,0.6,2.7,0.5
	c0.8-0.2,5-1.5,5-6.9c0-5.5-6-7.3-10.7-6.3c-8.2,1.8-14.8,11.4-14.8,26.8c0,15.4,6.1,22.4,14.5,20.5c6-1.3,9.8-4,11.7-7.3
	c-0.8-0.7-0.9-2.3-0.9-3.2V30.7C184.1,28.6,184.8,27,185.3,26.1z M207.3,40.6c-1.6,0-7.5,0.4-10.1,0.7V27.4c2.3-0.2,4.8-0.4,5.5-0.4
	c1.3-0.1,2.4,0.5,3,1.2c0.6-3.2,1.2-6.4,1.8-9.7c-0.9,0.5-2.4,1.2-4.4,1.4c-1,0.1-3.6,0.2-6,0.5v-9.9c2.3-0.3,7.2-0.6,8.8-0.6
	c2-0.1,3.5,0.5,4.4,1c-0.5-2.7-1-5.5-1.5-8.2c-6.9,0.1-13.8,0.8-20.7,1.8c0.5,0.8,1.2,2.2,1.2,4.2c0,0.2,0,0.5,0,0.9
	c0,5.4,0,29.9,0,29.9c0,3.1,0,5.3,0,5.8c0,2-0.6,3.6-1.2,4.6c3.4-0.5,6.8-0.9,10.2-1.2c3.9-0.4,7.9-0.6,11.8-0.6
	c0.5-2.9,1-5.8,1.5-8.7C210.8,39.9,209.3,40.6,207.3,40.6z"/>
</svg>
