<?xml version="1.0" standalone="no"?>
<!DOCTYPE svg PUBLIC "-//W3C//DTD SVG 1.1//EN" "http://www.w3.org/Graphics/SVG/1.1/DTD/svg11.dtd" >
<svg xmlns="http://www.w3.org/2000/svg" xmlns:xlink="http://www.w3.org/1999/xlink" version="1.1">
<metadata>
Created by FontForge 20170924 at Sat Jul 21 02:09:27 2007
 By www-data
Copyright 2005, 2007 Adobe Systems Incorporated. All rights reserved.
</metadata>
<defs>
<font id="GaramondPremrPro" horiz-adv-x="553" >
  <font-face 
    font-family="Garamond Premiere Pro"
    font-weight="400"
    font-stretch="normal"
    units-per-em="1000"
    panose-1="2 2 4 2 6 5 6 2 4 3"
    ascent="725"
    descent="-275"
    x-height="394"
    cap-height="646"
    bbox="-177.437 -336 1405 915.194"
    underline-thickness="50"
    underline-position="-100"
    stemh="29"
    stemv="73"
    unicode-range="U+0020-FB06"
  />
<missing-glyph horiz-adv-x="500" 
d="M0 0v700h500v-700h-500zM250 395l170 255h-340zM280 350l170 -255v510zM80 50h340l-170 255zM50 605v-510l170 255z" />
    <glyph glyph-name="T_h" unicode="Th" horiz-adv-x="1049" 
d="M337 643c52 0 192 -2 231 2c2 0 48 2 62 5c18 4 22 5 31 12c14 12 31 24 40 24c7 0 9 -8 9 -11c-3 -36 -12 -68 -14 -135c-3 -90 -3 -169 -3 -188c0 -4 3 -9 7 -6c41 37 83 58 126 58c50 0 85 -17 106 -46c19 -27 28 -65 28 -108c1 -63 4 -125 4 -185
c0 -25 13 -33 40 -39c20 -4 28 -10 28 -16c0 -9 -8 -13 -27 -13c-35 0 -46 3 -79 3c-23 0 -43 -2 -73 -2c-14 0 -19 5 -19 12c0 6 8 11 20 14c25 8 29 11 33 49c2 19 0 129 0 145c0 55 -5 87 -17 100c-16 19 -41 33 -80 33c-44 0 -76 -19 -80 -23c-2 -2 -15 -18 -17 -49
c-2 -42 -2 -172 -1 -208c2 -33 16 -39 39 -45c14 -4 21 -11 21 -16c0 -9 -10 -12 -24 -12c-8 0 -59 2 -82 2s-59 -3 -77 -3c-9 0 -23 3 -23 13c0 5 8 11 29 17c27 9 37 20 40 57c3 42 9 111 9 355c0 81 1 111 0 132c0 20 -15 30 -19 30c-17 3 -202 5 -227 1
c-4 -1 -8 -11 -8 -13c0 -47 -1 -158 -1 -245c0 -116 1 -211 5 -248c4 -45 9 -57 71 -71c13 -3 27 -11 27 -18c0 -11 -18 -12 -28 -12c-8 0 -70 5 -113 5c-51 0 -101 -7 -115 -7c-20 0 -30 4 -30 10c0 8 9 16 19 18c69 16 72 34 75 109c2 59 7 263 7 340v119c0 8 -5 13 -8 13
c-20 3 -104 4 -120 4c-38 0 -59 -7 -74 -23c-4 -3 -16 -16 -33 -49c-9 -21 -15 -23 -19 -23c-6 0 -10 12 -10 22c0 19 19 74 19 133c0 7 9 16 15 16c5 0 4 -4 14 -13c3 -3 21 -21 36 -22c26 -3 102 -4 230 -4z" />
    <glyph glyph-name="f_b" unicode="fb" horiz-adv-x="777" 
d="M168 103c1 -62 12 -66 61 -78c17 -4 24 -9 24 -13c0 -9 -12 -15 -20 -15c-28 0 -73 3 -93 3c-56 0 -72 -5 -92 -5c-11 0 -22 4 -22 11s6 12 23 17c32 8 39 23 41 37c3 22 4 220 3 263c0 7 -3 16 -10 17c-6 2 -24 4 -34 6c-3 1 -7 8 -7 11c0 9 6 10 41 30c8 4 11 10 11 17
c1 48 7 91 13 113c19 69 54 119 96 153c41 32 73 43 116 43c19 0 48 -9 64 -17c2 -2 6 -1 9 0c12 7 29 14 38 14c4 0 7 -9 7 -16s-2 -133 -2 -234c0 -26 0 -74 2 -85c1 -4 2 -7 4 -6c33 22 81 35 114 35c47 0 92 -16 124 -44c44 -38 67 -94 67 -151c0 -83 -44 -142 -88 -176
c-41 -34 -99 -45 -135 -45c-34 0 -103 12 -127 20c-4 2 -12 2 -21 -3c-4 -3 -9 -3 -11 -3c-4 0 -6 6 -6 13c5 78 6 250 6 332c0 96 -1 189 -5 234c-3 35 -4 47 -11 53c-12 12 -30 32 -72 32c-32 0 -61 -18 -76 -43c-19 -32 -34 -110 -34 -224c0 -6 7 -9 10 -9
c60 0 108 1 112 1c7 0 14 -21 14 -42c0 -3 -9 -10 -15 -10c-7 0 -100 3 -111 3c-5 0 -9 -6 -9 -11c-1 -28 0 -179 1 -228zM662 188c0 36 -15 92 -49 129c-24 23 -62 43 -109 43c-33 0 -50 -9 -58 -15c-3 -2 -7 -8 -8 -15c-1 -9 -2 -37 -2 -58c0 -52 2 -106 7 -160
c2 -21 8 -37 21 -50c28 -29 75 -42 92 -42c12 0 37 13 60 34c28 27 46 89 46 134z" />
    <glyph glyph-name="f_f" unicode="ff" horiz-adv-x="559" 
d="M351 345h-176c-7 0 -9 -13 -9 -25v-248c0 -31 17 -36 52 -46c18 -5 25 -10 25 -18c0 -7 -12 -12 -27 -12c-13 0 -74 4 -94 4c-33 0 -66 -4 -74 -4c-12 0 -23 5 -23 12c0 5 10 10 21 13c44 13 44 24 47 70c-1 31 0 181 0 239c0 4 -5 10 -12 11l-29 6c-6 0 -11 8 -11 17
c0 5 27 15 41 25c9 6 12 9 12 17c0 50 11 100 28 137c19 41 54 83 96 109c25 16 70 37 117 37c43 0 85 -19 107 -40c2 -2 7 -2 8 0c35 36 89 65 142 65c45 0 85 -22 85 -53c0 -8 -12 -33 -21 -38c-8 -4 -14 -8 -22 -8c-7 0 -10 4 -25 17c-21 20 -45 36 -77 36
c-25 0 -46 -16 -65 -44c-23 -36 -39 -152 -35 -227c0 -4 4 -7 6 -7h112c7 -3 10 -21 10 -34c0 -6 -5 -13 -17 -13c-7 0 -94 1 -105 1c-3 0 -8 -6 -8 -10c0 -23 1 -237 1 -250c0 -36 7 -48 61 -59c18 -4 23 -14 23 -18c0 -7 -14 -11 -26 -11s-71 4 -97 4c-36 0 -58 -4 -82 -4
c-11 0 -23 6 -23 13s10 13 20 15c44 12 50 21 50 68v244c0 4 -3 9 -6 9zM175 390h176c4 0 6 4 6 8c0 77 19 143 43 188c1 1 0 7 -2 10c-17 22 -67 51 -115 51c-28 0 -56 -17 -79 -48c-22 -29 -37 -95 -37 -197c0 -7 5 -12 8 -12z" />
    <glyph glyph-name="f_f_b" unicode="ffb" horiz-adv-x="1042" 
d="M351 345h-176c-7 0 -9 -11 -9 -23v-250c0 -31 17 -36 52 -46c18 -5 23 -9 23 -17s-10 -13 -25 -13c-13 0 -74 4 -94 4c-33 0 -66 -4 -74 -4c-12 0 -22 4 -22 11c0 5 9 12 20 15c44 13 44 23 47 69c-1 31 0 181 0 239c0 4 -5 10 -12 11l-32 6c-6 0 -11 8 -11 17
c0 5 30 15 44 25c9 6 12 9 12 17c0 50 12 100 29 137c19 41 54 81 96 107c25 16 70 39 117 39c50 0 85 -17 107 -37c3 -2 6 -2 8 0c35 36 83 63 136 63c19 0 48 -9 65 -17c3 -2 6 -1 13 3c13 7 24 9 27 9c6 0 10 -9 10 -16s-2 -134 -2 -234c0 -26 0 -74 2 -85
c1 -4 2 -7 4 -6c34 22 80 35 114 35c46 0 92 -16 124 -44c44 -38 66 -94 66 -151c0 -83 -43 -142 -87 -176c-42 -34 -99 -45 -135 -45c-34 0 -104 12 -127 20c-4 2 -13 2 -20 -3c-4 -3 -9 -3 -11 -3c-4 0 -7 6 -7 13c5 78 6 250 6 332c0 96 0 190 -4 235c-3 30 -7 48 -12 53
c-11 12 -30 30 -71 30c-33 0 -62 -17 -76 -42c-19 -32 -32 -109 -32 -225c0 -5 4 -8 7 -8c60 0 107 1 111 1c7 0 15 -21 15 -42c0 -3 -10 -10 -16 -10s-103 3 -113 3c-3 0 -8 -5 -8 -10c0 -23 1 -235 1 -248c0 -38 3 -46 65 -59c18 -4 24 -14 24 -18c0 -7 -16 -11 -27 -11
c-12 0 -75 4 -101 4c-36 0 -57 -4 -81 -4c-11 0 -24 6 -24 13s12 13 21 15c45 12 49 21 49 68v244c0 5 -3 9 -6 9zM927 188c0 36 -14 92 -50 128c-23 24 -61 43 -109 43c-32 0 -48 -8 -57 -14c-3 -2 -7 -8 -8 -15c-1 -9 -2 -37 -2 -58c0 -52 2 -106 7 -160
c2 -22 8 -37 22 -51c27 -29 73 -41 92 -41c11 0 36 13 58 34c29 27 47 88 47 134zM176 390h175c4 0 6 6 6 8c0 77 19 144 43 189c1 1 0 7 -2 10c-17 22 -54 48 -114 48c-28 0 -57 -17 -79 -48c-22 -28 -38 -93 -38 -195c0 -5 4 -12 9 -12z" />
    <glyph glyph-name="f_f_h" unicode="ffh" horiz-adv-x="1049" 
d="M827 404c97 0 134 -66 134 -154c0 -24 4 -162 4 -185c0 -29 29 -36 49 -42c11 -3 19 -7 19 -13c0 -9 -8 -13 -27 -13c-35 0 -46 3 -80 3c-22 0 -42 -2 -71 -2c-16 0 -21 5 -21 12c0 6 10 11 21 14c26 8 29 11 33 49c2 18 0 123 0 142c0 96 -18 136 -97 136
c-44 0 -76 -19 -80 -23c-3 -2 -15 -18 -17 -49c-2 -42 -3 -172 -1 -208c2 -32 24 -41 41 -47c11 -4 20 -7 20 -14c0 -9 -12 -12 -25 -12c-9 0 -60 2 -81 2c-22 0 -60 -3 -77 -3c-9 0 -23 3 -23 13c0 8 14 11 30 18c17 7 35 22 38 56c3 42 10 158 10 414c0 47 0 125 -8 136
c-22 22 -48 34 -83 34c-24 0 -47 -15 -66 -45c-24 -37 -40 -154 -37 -225c0 -5 4 -8 9 -8h109c7 -3 10 -21 10 -34c0 -6 -4 -13 -17 -13c-7 0 -92 1 -103 1c-4 0 -9 -5 -9 -12v-249c0 -37 -6 -46 54 -59c18 -4 24 -13 24 -17c0 -7 -15 -11 -27 -11c-31 0 -59 4 -92 4
c-32 0 -60 -4 -83 -4c-11 0 -24 6 -24 13s12 12 21 14c44 12 49 21 49 68c0 79 4 166 4 246c0 4 -6 8 -9 8h-172c-7 0 -10 -11 -10 -23v-224c0 -56 4 -60 52 -73c18 -5 23 -8 23 -16s-10 -13 -25 -13c-32 0 -61 4 -94 4s-66 -4 -74 -4c-12 0 -24 6 -24 13c0 5 11 10 22 13
c44 13 44 23 47 69c-1 33 0 182 0 239c0 14 -23 11 -39 14c-5 1 -8 4 -9 6c-1 3 -4 9 -4 14c0 4 6 7 15 12c16 8 38 17 38 30c2 96 35 180 108 234c18 12 71 49 136 49c43 0 85 -17 106 -39c2 -2 6 -2 8 0c35 37 91 64 143 64c26 0 50 -10 68 -20c4 -3 8 -1 10 0
c13 6 23 12 27 12s6 -9 6 -12c-10 -71 -12 -313 -12 -342c0 -4 3 -9 7 -6c40 37 84 58 126 58zM176 390h172c4 0 9 4 9 9c0 76 22 142 46 187c1 1 0 7 -2 10c-17 22 -64 51 -112 51c-36 0 -122 -13 -122 -245c0 -5 5 -12 9 -12z" />
    <glyph glyph-name="f_f_i" unicode="ffi" horiz-adv-x="778" 
d="M348 345h-172c-7 0 -10 -11 -10 -23c0 -16 0 -213 4 -238c3 -31 13 -47 48 -57c18 -5 27 -10 27 -18s-14 -13 -29 -13c-13 0 -74 4 -94 4c-33 0 -67 -5 -75 -5c-12 0 -23 5 -23 12c0 5 10 13 21 16c44 13 45 22 48 68c-1 31 2 189 0 239c0 5 -5 10 -11 11l-36 1
c-7 0 -11 8 -11 18c1 4 34 20 47 29c9 6 13 9 13 17c0 50 11 97 28 134c19 41 56 83 98 109c24 16 70 39 117 39c50 0 87 -16 108 -38c2 -3 6 -2 8 0c35 36 93 64 145 64c67 0 92 -27 105 -45c6 -9 8 -14 8 -23c0 -24 -38 -49 -51 -49c-5 0 -18 13 -38 31
c-22 23 -48 35 -79 36c-25 0 -43 -9 -62 -30c-24 -28 -50 -94 -50 -232c0 -3 0 -10 8 -10c24 0 58 -1 96 -1c89 -1 105 7 123 13c10 3 18 7 27 7c6 0 6 -32 6 -89c0 -196 0 -230 3 -263c2 -19 13 -25 44 -34c19 -6 21 -10 21 -17c0 -8 -11 -11 -23 -11c-25 0 -51 3 -78 3
c-33 0 -62 -4 -85 -4c-11 0 -19 4 -19 12c0 6 5 10 21 16c27 11 37 18 38 35c4 62 5 238 5 269c0 6 -6 13 -10 14c-28 4 -127 6 -172 1c-1 0 -7 -3 -7 -10c0 -23 1 -236 2 -249c0 -38 -3 -48 59 -61c18 -4 22 -12 22 -16c0 -7 -13 -11 -25 -11s-70 4 -97 4
c-34 0 -60 -4 -84 -4c-11 0 -22 4 -22 11s11 13 20 15c44 12 50 23 50 70c0 34 2 185 2 244c0 4 -6 9 -9 9zM177 390h171c4 0 9 4 9 8c0 77 22 144 46 188c1 2 0 8 -2 11c-18 22 -55 47 -115 47c-28 0 -57 -17 -79 -48c-22 -28 -40 -92 -40 -194c0 -4 3 -12 10 -12z" />
    <glyph glyph-name="f_f_j" unicode="ffj" horiz-adv-x="777" 
d="M348 345h-172c-7 0 -10 -11 -10 -23c0 -16 2 -225 4 -242c4 -38 12 -43 49 -53c17 -5 25 -9 25 -17s-13 -14 -27 -14s-75 4 -95 4c-33 0 -66 -6 -75 -6c-11 0 -22 5 -22 12c0 5 9 12 21 15c43 13 43 24 46 70c-1 31 1 181 1 239c0 4 -5 10 -11 11c-19 3 -27 4 -33 6
c-6 0 -8 8 -8 17c0 5 27 15 41 25c9 6 12 9 12 17c0 50 12 99 29 136c19 41 54 83 96 109c25 16 70 37 117 37c50 0 86 -17 108 -39c2 -3 5 -2 7 0c35 36 90 65 144 65c67 0 89 -25 102 -42c6 -9 8 -15 8 -23c0 -24 -38 -49 -51 -49c-5 0 -18 13 -38 30
c-23 23 -46 33 -77 34c-25 0 -40 -10 -58 -31c-25 -28 -48 -93 -48 -231c0 -10 5 -11 17 -11c23 0 55 -1 79 -1c91 -1 113 6 126 12c9 4 22 9 25 9c5 0 8 -6 8 -20v-357c-1 -68 -21 -144 -45 -186c-24 -41 -56 -74 -93 -102c-17 -12 -31 -19 -36 -19s-16 2 -21 6
c-2 3 -1 9 2 11c47 27 56 41 64 51c28 34 56 92 56 240c0 48 0 257 -3 291c-2 11 -5 18 -15 18h-155c-6 0 -10 -2 -10 -20c0 -24 1 -224 3 -240c4 -38 -4 -46 58 -59c18 -4 23 -14 23 -18c0 -7 -14 -11 -26 -11s-72 4 -99 4c-34 0 -56 -4 -80 -4c-11 0 -24 6 -24 13
s11 13 21 15c44 12 47 21 48 68c1 34 1 185 1 244c0 5 -6 9 -9 9zM178 390h170c4 0 9 4 9 8c0 77 20 142 44 186c1 2 0 8 -2 11c-17 22 -55 49 -115 49c-28 0 -56 -15 -79 -46c-22 -28 -38 -94 -38 -196c0 -9 4 -12 11 -12z" />
    <glyph glyph-name="f_f_k" unicode="ffk" horiz-adv-x="1022" 
d="M348 345h-172c-7 0 -10 -11 -10 -23c0 -16 2 -227 5 -248c3 -31 13 -38 47 -48c18 -5 25 -11 25 -17c0 -8 -12 -13 -27 -13c-13 0 -74 4 -94 4c-33 0 -67 -5 -75 -5c-11 0 -21 6 -21 13c0 5 9 11 20 14c44 13 44 23 47 69c-1 31 0 181 0 239c0 4 -5 10 -11 11l-33 6
c-6 0 -9 8 -9 17c0 5 29 16 43 25c8 6 11 9 11 17c0 50 12 99 29 136c19 41 53 84 95 110c25 16 68 36 115 36c50 0 89 -15 110 -37c2 -2 6 -2 8 0c35 36 81 63 134 63c23 0 49 -11 65 -19c3 -2 9 1 13 3c14 8 21 11 30 11c6 0 8 -9 9 -16c-1 -9 -4 -244 -4 -345
c0 -38 0 -108 3 -117c2 -6 2 -9 7 -9c6 0 14 7 21 13c33 31 87 82 105 108c4 5 7 16 -22 21c-18 3 -25 7 -25 14s10 12 21 12h43c67 0 101 12 135 12c6 0 8 -1 8 -7c0 -12 -17 -21 -21 -22c-53 -12 -70 -22 -116 -53c-29 -22 -77 -69 -81 -76c-2 -4 -2 -8 -1 -10
c35 -42 131 -146 162 -177c17 -17 35 -29 68 -36c17 -4 24 -12 24 -16c0 -10 -13 -12 -25 -12c-24 0 -73 6 -126 6h-44c-14 0 -25 4 -25 13c0 6 9 11 22 14c20 5 23 14 13 28c-11 14 -64 69 -113 127c-10 12 -20 23 -26 23c-4 0 -4 -6 -5 -8c-4 -13 -4 -109 1 -139
c4 -20 11 -26 38 -33c11 -3 21 -7 21 -15c0 -9 -12 -11 -23 -11c-25 0 -59 2 -84 2c-34 0 -61 -4 -83 -4c-13 0 -23 3 -23 11c0 7 10 11 23 15c40 10 47 19 52 44c4 19 7 158 7 291c0 96 1 178 -3 223c-3 35 -5 45 -12 53c-13 15 -29 32 -70 32c-33 0 -63 -18 -77 -43
c-19 -32 -34 -88 -34 -224c0 -5 4 -8 7 -8c60 0 109 1 113 1c7 0 14 -21 14 -42c0 -3 -10 -10 -15 -10c-7 0 -100 3 -110 3c-6 0 -11 -5 -11 -10c0 -23 -1 -235 0 -248c0 -38 4 -50 65 -62c18 -4 18 -11 18 -15c0 -7 -10 -11 -22 -11s-75 4 -102 4c-33 0 -55 -4 -79 -4
c-15 0 -26 6 -26 13s13 13 23 15c44 12 46 21 47 68c1 36 2 185 2 244c0 5 -6 9 -9 9zM178 390h170c4 0 9 4 9 8c0 77 20 142 44 187c1 1 0 7 -2 10c-17 22 -53 49 -113 49c-28 0 -59 -15 -82 -46c-22 -28 -37 -94 -37 -196c0 -9 4 -12 11 -12z" />
    <glyph glyph-name="f_f_l" unicode="ffl" horiz-adv-x="778" 
d="M352 345h-177c-6 0 -9 -11 -9 -23c0 -16 3 -233 3 -244c0 -31 14 -42 49 -52c18 -5 26 -9 26 -17s-13 -13 -28 -13c-13 0 -74 4 -94 4c-33 0 -66 -4 -74 -4c-12 0 -22 3 -22 10c0 5 7 12 19 15c43 13 45 24 48 70c-1 31 0 181 0 239c0 4 -5 10 -12 11l-32 6
c-6 0 -8 8 -8 17c0 5 27 14 41 23c9 6 12 10 12 17c0 50 14 102 31 139c18 41 55 84 97 110c24 16 68 36 116 36c37 0 81 -14 102 -36c3 -3 6 -2 7 0c36 36 74 60 127 60c19 0 49 -9 65 -17c3 -2 7 -3 11 -1c10 7 26 15 35 15c6 0 7 -9 7 -16s-3 -235 -3 -336
c0 -109 -1 -250 1 -288c1 -23 9 -36 44 -45c12 -3 21 -9 21 -13c0 -11 -11 -14 -22 -14c-20 0 -62 2 -83 2c-36 1 -54 -3 -69 -3c-21 0 -27 6 -27 12c0 7 8 12 21 16c33 10 38 25 40 51c4 81 2 169 3 256c0 8 -3 12 -5 12c-67 2 -100 0 -177 2c-3 0 -6 -4 -6 -13
c0 -23 1 -236 1 -249c0 -38 1 -48 62 -60c18 -5 21 -13 21 -17c0 -7 -12 -11 -24 -11s-72 4 -99 4c-34 0 -58 -4 -82 -4c-11 0 -24 6 -24 13s11 13 21 15c44 12 51 21 51 68v245c0 4 -2 8 -5 8zM178 390h174c4 0 5 5 5 8c0 77 20 145 44 190c1 1 0 7 -2 10
c-18 22 -55 47 -115 47c-28 0 -56 -16 -78 -47c-22 -28 -39 -94 -39 -196c0 -9 4 -12 11 -12zM534 665c-34 0 -55 -18 -69 -43c-19 -32 -35 -109 -35 -223c0 -5 7 -8 10 -8c-1 0 132 -2 168 1c6 1 10 7 10 12c-1 19 -2 132 -3 166c-1 35 -5 56 -12 63c-12 13 -28 32 -69 32z
" />
    <glyph glyph-name="f_f_t" unicode="fft" horiz-adv-x="810" 
d="M348 345h-172c-7 0 -10 -11 -10 -23c0 -74 -2 -163 1 -229c0 -50 7 -55 51 -67c18 -5 26 -9 26 -17s-13 -13 -28 -13c-20 0 -68 4 -95 4c-32 0 -65 -4 -73 -4c-12 0 -23 6 -23 13c0 5 10 10 21 13c34 10 40 21 43 45c8 68 4 174 4 264c0 12 -22 12 -38 15
c-11 2 -14 4 -14 18c0 6 22 14 39 24c8 5 14 11 14 18c0 97 38 183 111 237c18 12 68 46 133 46c43 0 84 -17 105 -39c2 -2 6 -2 8 0c34 37 97 64 142 64c46 0 87 -22 87 -53c0 -23 -26 -45 -41 -46c-6 1 -12 3 -25 15c-21 19 -43 35 -78 37c-6 1 -12 0 -18 -2
c-18 -6 -35 -23 -48 -43c-23 -36 -38 -145 -38 -223c0 -6 4 -9 9 -9h140c12 0 19 7 46 41c13 15 25 28 28 28c4 0 15 -9 15 -12l-2 -49c0 -3 4 -8 8 -8c22 0 119 4 123 4c7 0 13 -14 13 -45c0 -9 -19 -11 -26 -11h-109c-5 0 -7 -16 -9 -42c-3 -50 -2 -134 -2 -181
c0 -62 51 -67 80 -67c8 0 22 -2 48 14c9 5 11 6 14 6c2 0 6 -2 6 -11c0 -34 -70 -69 -120 -69c-42 0 -75 25 -89 47c-11 17 -12 38 -12 66c0 37 4 190 4 225c0 3 -1 8 -4 12c-9 10 -126 8 -153 7c-4 0 -10 -5 -10 -12c0 -78 0 -192 3 -249c2 -38 1 -47 63 -60
c18 -4 19 -13 19 -17c0 -7 -11 -11 -22 -11c-14 0 -75 4 -102 4c-34 0 -61 -4 -84 -4c-11 0 -23 6 -23 13s11 12 20 14c44 12 51 22 51 69c0 23 2 219 2 244c0 5 -6 9 -9 9zM178 390h170c4 0 9 3 9 8c0 77 20 145 44 189c1 1 0 7 -2 10c-17 22 -62 49 -111 49
c-35 0 -121 -11 -121 -244c0 -10 3 -12 11 -12z" />
    <glyph glyph-name="f_h" unicode="fh" horiz-adv-x="788" 
d="M437 694c0 -7 -3 -241 -3 -342c0 -4 3 -9 7 -6c39 37 82 58 125 58c50 0 84 -17 105 -46c20 -27 29 -65 29 -108c1 -63 4 -125 4 -185c0 -25 13 -33 40 -39c19 -4 28 -10 28 -16c0 -9 -8 -13 -26 -13c-36 0 -47 3 -81 3c-22 0 -42 -2 -71 -2c-16 0 -21 5 -21 12
c0 6 10 11 21 14c26 8 30 11 34 49c2 19 0 129 0 145c0 55 -6 87 -17 100c-17 19 -42 33 -80 33c-45 0 -78 -19 -81 -23c-2 -2 -14 -18 -16 -49c-2 -42 -3 -172 -1 -208c2 -33 15 -39 37 -45c15 -4 23 -11 23 -16c0 -9 -12 -12 -25 -12c-8 0 -58 2 -82 2s-58 -3 -76 -3
c-10 0 -24 3 -24 13c0 5 8 11 29 17c28 9 37 20 40 57c3 42 9 196 9 268c0 96 0 183 -4 228c-3 35 -4 46 -11 53c-12 12 -31 32 -73 32c-32 0 -60 -15 -75 -40c-19 -32 -35 -112 -35 -227c0 -5 7 -8 9 -8c61 0 109 1 113 1c7 0 14 -21 14 -42c0 -3 -9 -10 -15 -10
c-7 0 -99 3 -110 3c-6 0 -10 -6 -10 -11c-1 -28 0 -179 1 -228c1 -62 14 -68 53 -78c17 -4 23 -9 23 -13c0 -9 -11 -15 -19 -15c-28 0 -65 3 -85 3c-56 0 -72 -4 -92 -4c-11 0 -22 4 -22 11s6 10 23 15c32 9 39 27 41 41c3 22 3 176 3 260c0 7 -3 16 -10 17l-34 6
c-3 1 -6 3 -6 6c0 16 27 26 39 35c7 5 11 10 11 17c1 48 7 93 13 115c19 69 52 116 94 150c41 32 78 44 115 44c28 0 52 -9 68 -17c4 -2 8 -2 12 0c14 8 28 14 34 14s8 -9 8 -16z" />
    <glyph glyph-name="f_i" unicode="fi" horiz-adv-x="514" 
d="M181 391c13 -1 87 -1 90 -1c89 -1 105 7 124 13c10 3 22 7 31 7c7 0 2 -32 2 -89c0 -196 0 -229 3 -262c2 -19 13 -25 44 -34c19 -6 21 -10 21 -17c0 -8 -12 -11 -23 -11c-25 0 -51 3 -77 3c-34 0 -62 -4 -86 -4c-11 0 -19 3 -19 11c0 6 5 10 21 16c27 11 37 19 38 36
c3 62 5 224 5 268c0 6 -8 14 -12 15c-28 4 -122 5 -167 0c-2 0 -10 -6 -10 -13c0 -31 0 -193 3 -253c2 -32 5 -38 52 -51c16 -6 21 -11 21 -17c0 -5 -6 -11 -22 -11c-18 0 -57 3 -90 3c-35 0 -69 -5 -83 -5c-13 0 -20 6 -20 12c0 7 7 11 21 15c32 10 37 15 42 46
c3 20 3 185 3 261c0 3 -6 10 -11 11c-14 2 -23 4 -36 5c-5 0 -8 7 -7 11c2 8 12 16 45 33c4 3 9 8 9 13c0 48 6 101 27 149c19 43 48 86 87 115c37 29 83 48 127 48c67 0 94 -27 106 -45c7 -9 9 -14 9 -23c0 -24 -39 -49 -51 -49c-5 0 -20 13 -39 31c-22 23 -50 35 -82 36
c-25 0 -44 -9 -62 -31c-24 -28 -48 -94 -48 -232c0 -3 6 -10 14 -10z" />
    <glyph glyph-name="f_j" unicode="fj" horiz-adv-x="493" 
d="M331 344h-155c-7 0 -10 -2 -10 -20c0 -31 -1 -202 2 -262c1 -20 15 -27 43 -36c20 -6 22 -11 22 -17c0 -7 -7 -12 -23 -12c-18 0 -48 3 -81 3c-35 0 -67 -3 -81 -3c-15 0 -20 6 -20 14c0 4 5 11 20 15c31 9 38 16 42 42c3 20 3 185 3 261c1 8 -1 10 -11 12l-33 4
c-5 0 -11 7 -11 11c0 9 9 14 46 32c4 3 9 6 9 11c4 50 6 104 27 152c19 43 50 86 89 115c37 29 77 48 122 48c66 0 89 -25 102 -43c6 -9 8 -15 8 -23c0 -24 -38 -49 -51 -49c-5 0 -19 13 -39 30c-22 23 -46 34 -77 35c-25 0 -39 -9 -57 -31c-24 -28 -50 -94 -50 -232
c0 -10 5 -10 16 -10c56 -1 68 -1 78 -1c91 -1 108 0 128 12c10 7 17 9 24 9c5 0 9 -6 9 -20v-357c-1 -68 -21 -144 -46 -186c-24 -41 -55 -74 -93 -102c-16 -12 -31 -19 -35 -19c-5 0 -16 2 -20 6c-3 3 -2 9 1 11c46 27 56 41 64 51c28 34 55 92 55 240c0 48 0 258 -2 292
c-2 10 -5 17 -15 17z" />
    <glyph glyph-name="f_k" unicode="fk" horiz-adv-x="757" 
d="M435 352c0 -38 -1 -112 2 -121c2 -6 2 -9 7 -9c6 0 13 7 20 13c33 31 87 82 105 108c4 5 7 16 -21 21c-18 3 -25 7 -25 14s10 12 21 12h43c66 0 101 12 135 12c6 0 7 -1 7 -7c0 -12 -16 -21 -20 -22c-54 -12 -70 -22 -116 -53c-30 -22 -77 -69 -81 -76
c-2 -4 -2 -8 -1 -10c34 -42 131 -146 161 -177c18 -17 35 -29 69 -36c16 -4 23 -12 23 -16c0 -10 -13 -12 -24 -12c-24 0 -74 6 -126 6h-46c-13 0 -24 4 -24 13c0 6 9 11 21 14c22 5 25 14 13 28c-11 14 -62 69 -113 127c-10 12 -18 23 -24 23c-4 0 -5 -6 -5 -8
c-5 -13 -5 -109 1 -139c4 -20 11 -26 37 -33c12 -3 22 -7 22 -15c0 -9 -14 -11 -25 -11c-24 0 -57 2 -82 2c-35 0 -61 -4 -84 -4c-12 0 -24 3 -24 11c0 7 11 11 24 15c41 10 47 19 52 44c3 19 7 150 7 282c0 97 -1 187 -5 232c-3 35 -4 48 -11 56c-13 13 -30 29 -72 29
c-32 0 -61 -17 -75 -42c-19 -32 -35 -110 -35 -225c0 -5 7 -8 9 -8c61 0 109 1 113 1c7 0 14 -21 14 -42c0 -3 -9 -10 -15 -10c-7 0 -100 3 -111 3c-5 0 -9 -6 -9 -11c-1 -28 -1 -179 0 -228c1 -62 6 -68 46 -78c17 -4 23 -9 23 -13c0 -9 -11 -15 -20 -15c-28 0 -56 3 -76 3
c-56 0 -72 -4 -92 -4c-11 0 -22 4 -22 11s6 10 23 15c32 9 39 27 41 41c3 22 3 176 3 260c0 7 -3 16 -10 17l-34 6c-4 1 -7 3 -7 6c0 16 28 26 40 35c7 5 11 10 11 17c1 48 7 90 13 112c19 69 55 121 97 155c41 32 74 42 117 42c24 0 51 -10 67 -18c4 -1 9 0 13 2
c13 7 22 13 30 13c6 0 7 -9 7 -16s-2 -241 -2 -342z" />
    <glyph glyph-name="f_l" unicode="fl" horiz-adv-x="517" 
d="M322 713c19 0 39 -9 55 -17c4 -2 10 -1 17 3c13 8 21 11 30 11c6 0 7 -9 7 -16s-3 -235 -3 -336c0 -109 -1 -250 1 -288c1 -23 9 -36 44 -45c12 -3 21 -9 21 -13c0 -11 -12 -14 -22 -14c-20 0 -62 2 -82 2c-37 1 -55 -3 -70 -3c-21 0 -27 6 -27 12c0 7 8 11 21 15
c33 9 37 26 39 52c4 81 2 168 3 255c0 4 0 12 -8 12c-25 1 -140 2 -172 3c-4 0 -9 -5 -9 -14c-1 -28 0 -180 1 -229c1 -62 9 -68 48 -77c17 -5 24 -11 24 -15c0 -8 -15 -14 -24 -14c-28 0 -56 3 -76 3c-56 0 -72 -4 -92 -4c-11 0 -22 4 -22 11s6 10 23 15c32 9 39 27 41 41
c3 22 3 176 3 260c0 7 -3 16 -10 17l-37 5c-3 1 -6 3 -6 6c0 16 30 27 42 36c7 5 11 10 11 17c1 48 8 82 13 103c18 80 53 130 95 164c41 32 78 42 121 42zM271 665c-33 0 -57 -17 -72 -42c-19 -32 -32 -110 -32 -224c0 -5 7 -8 11 -8c-1 0 133 -3 169 0c5 1 9 7 9 12
l-5 167c-1 35 -2 56 -9 63c-13 13 -29 32 -71 32z" />
    <glyph glyph-name="f_t" unicode="ft" horiz-adv-x="573" 
d="M414 390c22 0 120 2 124 2s8 -2 10 -10c2 -6 3 -10 3 -30c0 -9 -19 -11 -26 -11h-110c-4 0 -7 -4 -8 -12c-3 -51 -2 -167 -2 -214c0 -61 50 -68 79 -68c18 0 59 21 64 21c1 0 5 -2 5 -11c0 -34 -70 -69 -120 -69c-42 0 -76 25 -88 47c-12 17 -13 37 -13 66
c0 37 4 192 4 227c0 5 -2 16 -9 16h-153c-2 0 -7 -5 -7 -7c-2 -20 1 -242 3 -259c4 -35 11 -44 67 -53c17 -3 23 -11 23 -15c0 -10 -14 -12 -26 -12c-9 -1 -39 2 -85 2c-35 0 -89 -5 -98 -5c-14 0 -25 4 -25 11c0 5 10 12 21 16c43 12 44 22 45 67c1 41 2 161 2 215
c0 34 -6 39 -10 39c-10 0 -31 0 -42 -2c-5 0 -12 10 -9 17c0 1 62 34 62 48c2 60 7 106 25 149c33 77 108 159 204 159c36 0 81 -18 81 -53c0 -26 -24 -45 -45 -45c-11 0 -50 51 -97 51c-16 0 -33 -6 -48 -23c-36 -43 -47 -95 -47 -245c0 -4 3 -9 6 -9c58 0 143 1 149 1
c7 0 9 0 14 5c12 8 50 60 58 60c5 0 14 -8 14 -11l-1 -47c0 -3 2 -8 6 -8z" />
    <glyph glyph-name="longs_b" unicode="&#x17f;b" horiz-adv-x="758" 
d="M420 701c0 -15 -1 -219 -3 -319c0 -7 4 -11 7 -9c32 17 74 31 116 31c45 0 90 -16 121 -44c45 -38 66 -95 66 -152c0 -94 -45 -141 -88 -175c-42 -34 -103 -44 -135 -45c-61 -2 -115 16 -128 20c-4 2 -9 2 -18 -3c-4 -3 -9 -3 -10 -3c-4 0 -7 6 -7 13c2 76 5 250 5 332
c1 173 -1 235 -2 251c0 26 -5 34 -13 41c-13 13 -24 23 -56 23c-34 0 -60 -19 -75 -44c-18 -31 -31 -117 -32 -226c0 -35 -1 -238 0 -289c1 -57 5 -64 46 -75c17 -4 27 -12 27 -16c0 -8 -17 -14 -26 -14c-27 0 -53 2 -74 2c-56 0 -88 -4 -93 -4c-8 0 -21 4 -21 11
s6 12 22 17c31 8 39 20 41 37c3 25 3 178 3 261c0 6 -2 16 -9 17l-35 6c-3 1 -6 3 -6 7c0 15 27 27 40 36c7 5 11 8 11 15c1 55 9 97 14 113c11 39 34 96 86 141c32 27 72 51 124 51c22 0 45 -6 57 -13c5 -2 7 -3 12 3s21 20 25 20c6 0 8 -10 8 -17zM644 188
c0 39 -13 88 -44 123c-24 27 -60 48 -111 48c-33 0 -53 -8 -62 -14c-3 -2 -7 -8 -8 -15c-1 -9 -2 -35 -2 -56c0 -52 1 -111 6 -164c1 -25 12 -45 27 -59c21 -21 49 -30 73 -30c19 0 46 7 69 28c35 31 52 86 52 139z" />
    <glyph glyph-name="longs_h" unicode="&#x17f;h" horiz-adv-x="768" 
d="M93 322c0 6 -2 16 -9 17c-1 0 -22 4 -35 6c-3 1 -6 3 -6 7c0 15 27 27 40 36c7 5 11 8 11 15c1 55 9 99 14 115c11 39 34 96 86 140c32 28 72 52 124 52c25 0 44 -5 57 -13c5 -2 9 -1 17 11c4 7 16 16 20 16c6 0 8 -10 8 -17c0 -14 -2 -240 -4 -340c0 -9 5 -13 9 -10
c31 23 84 47 124 47c49 0 84 -17 104 -46c20 -27 29 -65 29 -108c1 -63 1 -125 1 -185c0 -25 15 -32 42 -38c20 -4 27 -9 27 -16c0 -9 -6 -14 -25 -14c-36 0 -49 3 -82 3c-22 0 -42 -3 -72 -3c-16 0 -22 8 -22 15c0 6 9 11 20 14c25 7 33 15 36 47c2 19 3 81 3 153
c0 68 -11 84 -22 97c-18 21 -40 29 -78 29c-45 0 -76 -16 -83 -20s-11 -10 -11 -17c-3 -64 -2 -218 -1 -244c1 -33 11 -37 35 -44c13 -4 20 -9 20 -16c0 -8 -7 -14 -20 -14c-7 0 -58 3 -82 3c-23 0 -56 -3 -74 -3c-10 0 -22 3 -22 13c0 5 6 13 27 19c28 8 38 18 40 55
c3 42 7 173 7 273v232c0 26 -7 45 -15 52c-13 13 -24 23 -56 23c-34 0 -62 -22 -77 -47c-18 -31 -29 -116 -30 -225c0 -35 -1 -238 0 -289c1 -64 4 -68 45 -75c17 -3 21 -10 21 -14c0 -8 -11 -16 -20 -16c-26 0 -52 2 -73 2c-56 0 -88 -4 -93 -4c-8 0 -20 4 -20 11
s5 12 21 17c31 9 39 21 41 37c3 25 3 178 3 261z" />
    <glyph glyph-name="longs_i" unicode="&#x17f;i" horiz-adv-x="507" 
d="M166 385c0 -107 1 -213 1 -310c0 -33 7 -41 49 -49c18 -3 20 -10 20 -16c0 -7 -9 -13 -21 -13s-68 3 -94 3c-34 0 -61 -3 -71 -3c-11 0 -21 6 -21 13c0 4 5 11 16 14c38 11 46 14 47 67c1 41 2 187 2 241c0 4 -5 10 -12 10h-33c-3 0 -7 5 -7 13c0 4 17 15 40 33
c7 6 11 10 11 15c0 40 7 100 28 147c19 43 50 87 89 116c37 29 82 48 126 48c67 0 92 -27 104 -45c6 -9 9 -14 9 -23c0 -24 -39 -49 -51 -49c-5 0 -20 13 -39 31c-22 23 -48 35 -80 36c-25 0 -43 -9 -61 -31c-25 -28 -52 -111 -52 -248zM349 200c0 85 -1 110 -2 122
c-3 13 -11 18 -30 26c-10 4 -13 10 -13 14c0 10 12 13 22 16c33 7 70 20 89 26c5 0 9 -5 9 -11c0 -10 -3 -137 -3 -194c0 -56 1 -98 2 -133c1 -32 17 -36 35 -41c16 -5 22 -11 22 -17s-8 -11 -19 -11c-7 0 -59 3 -81 3c-33 0 -60 -3 -78 -3c-13 0 -22 5 -22 12s7 11 24 15
c23 7 37 15 40 26c4 13 5 59 5 150z" />
    <glyph glyph-name="longs_k" unicode="&#x17f;k" horiz-adv-x="740" 
d="M93 322c0 6 -2 16 -9 17l-35 6c-3 1 -6 3 -6 7c0 15 27 27 40 36c7 5 11 8 11 15c1 55 9 98 15 114c11 39 33 96 85 141c32 27 72 51 124 51c25 0 44 -5 58 -13c1 -1 5 0 9 5c5 6 23 22 27 22c6 0 8 -10 8 -17c0 -14 -2 -226 -3 -327c-1 -38 0 -138 1 -147
c1 -7 2 -9 7 -9c8 0 20 6 26 12c31 27 85 82 103 108c4 5 1 13 -28 18c-18 3 -25 10 -25 17s9 12 20 12h51c69 0 89 9 124 9c12 0 18 -5 18 -11c0 -12 -17 -16 -21 -17c-62 -12 -67 -16 -110 -50c-32 -26 -53 -48 -83 -79c-4 -6 -2 -10 1 -13c58 -72 133 -145 162 -173
c19 -17 40 -25 69 -30c17 -3 22 -9 22 -13c0 -12 -15 -16 -27 -16c-25 0 -68 3 -122 3c-22 0 -49 -1 -55 -1c-13 0 -26 3 -26 14c0 6 6 12 20 15c20 5 30 15 18 28c-23 29 -75 85 -111 125c-9 12 -17 20 -27 20c-6 0 -8 -3 -8 -8c0 -8 -2 -120 1 -136c3 -20 14 -22 41 -31
c12 -4 19 -7 19 -15c0 -9 -11 -14 -22 -14c-24 0 -60 3 -85 3c-34 0 -61 -3 -84 -3c-12 0 -21 4 -21 12c0 7 8 12 21 16c40 11 49 16 54 41c4 19 5 163 6 295c0 34 1 140 0 227c0 26 -7 45 -15 52c-13 13 -24 23 -56 23c-33 0 -62 -22 -77 -47c-18 -31 -29 -115 -30 -224
c0 -35 -1 -238 0 -289c1 -64 7 -69 48 -76c17 -3 22 -10 22 -14c0 -8 -17 -15 -26 -15c-26 0 -50 2 -71 2c-56 0 -88 -4 -93 -4c-8 0 -20 4 -20 11s5 12 21 17c31 8 39 20 41 37c3 25 3 178 3 261z" />
    <glyph glyph-name="longs_l" unicode="&#x17f;l" horiz-adv-x="504" 
d="M93 322c0 6 -2 16 -9 17c-9 1 -28 5 -35 6c-3 1 -6 3 -6 7c0 15 27 27 40 36c7 5 11 8 11 15c1 55 9 98 15 114c11 39 33 96 85 141c32 27 72 51 124 51c25 0 44 -5 58 -13c4 -2 8 -1 16 11c4 7 16 16 20 16c6 0 8 -10 8 -17c0 -14 -1 -231 -2 -332
c-1 -146 2 -278 2 -307c1 -20 9 -29 49 -41c15 -4 22 -9 22 -15c0 -7 -10 -14 -23 -14c-23 0 -75 3 -93 3c-23 0 -57 -3 -79 -3c-23 0 -26 10 -26 14c0 8 10 12 21 15c45 12 47 16 51 67c3 41 5 95 5 254c0 46 0 148 -1 241c0 26 -7 45 -15 52c-13 13 -24 23 -56 23
c-33 0 -62 -22 -77 -47c-18 -31 -29 -115 -30 -224c0 -35 -1 -238 0 -289c1 -64 6 -67 45 -77c17 -4 24 -10 24 -14c0 -8 -14 -14 -23 -14c-26 0 -52 2 -73 2c-56 0 -88 -4 -93 -4c-8 0 -23 4 -23 11s8 12 24 17c31 8 39 20 41 37c3 25 3 178 3 261z" />
    <glyph glyph-name="longs_longs" unicode="&#x17f;&#x17f;" horiz-adv-x="508" 
d="M94 329c0 4 -5 10 -12 11l-32 4c-6 1 -8 7 -8 13c1 4 21 17 35 27c9 6 17 13 17 21c0 63 17 125 37 157c17 30 41 60 76 84c24 18 70 43 117 43c50 0 84 -20 106 -40c1 -1 6 -2 8 1c34 36 80 64 133 64c45 0 83 -26 84 -56c0 -8 -7 -22 -14 -28c-7 -5 -19 -10 -27 -10
c-7 0 -11 6 -24 16c-21 17 -44 28 -66 28c-24 0 -45 -11 -64 -39c-27 -41 -38 -125 -38 -231v-309c1 -38 10 -52 47 -60c18 -4 22 -13 22 -18c0 -7 -11 -11 -22 -11c-14 0 -68 4 -96 4c-34 0 -62 -4 -72 -4c-12 0 -23 5 -23 12s12 12 21 15c42 13 47 22 50 69
c-1 33 1 181 1 241c0 4 -4 11 -11 12l-31 5c-6 1 -8 5 -8 15c1 4 19 13 33 23c10 6 16 13 17 21c4 77 11 129 35 175c3 4 6 12 2 16c-23 23 -49 45 -104 45c-28 0 -52 -9 -74 -39c-24 -30 -42 -113 -42 -232v-304c0 -28 15 -35 50 -44c18 -5 23 -11 23 -15
c0 -11 -12 -15 -23 -15c-14 0 -72 4 -94 4c-35 0 -63 -3 -72 -3c-12 0 -23 6 -23 13c0 5 11 11 23 14c40 12 39 25 42 69c-1 33 1 180 1 236z" />
    <glyph glyph-name="longs_longs_i" unicode="&#x17f;&#x17f;i" horiz-adv-x="763" 
d="M325 689c50 0 86 -20 108 -41c3 -3 8 1 9 2c34 37 78 64 131 64c44 0 83 -25 83 -56c0 -8 -7 -22 -14 -28c-6 -5 -18 -10 -26 -10c-7 0 -12 6 -24 16c-21 17 -44 28 -66 28c-24 0 -46 -11 -65 -39c-27 -41 -39 -136 -39 -242v-298c1 -38 10 -52 46 -60
c19 -4 23 -13 23 -18c0 -7 -12 -11 -23 -11c-14 0 -67 4 -95 4c-34 0 -63 -4 -73 -4c-12 0 -22 5 -22 12s11 12 20 15c42 13 48 22 51 69c-1 32 1 180 1 241c0 4 -4 11 -11 12l-31 5c-6 1 -8 5 -8 15c1 4 19 13 33 23c9 6 16 13 17 21c5 85 14 132 38 179c2 4 3 11 1 12
c-23 23 -49 45 -104 45c-28 0 -52 -10 -75 -40c-23 -29 -43 -100 -43 -220v-315c0 -28 15 -35 50 -44c18 -5 23 -10 23 -15c0 -11 -12 -15 -23 -15c-14 0 -72 4 -94 4c-35 0 -64 -4 -73 -4c-12 0 -23 7 -24 14c0 5 12 11 23 14c40 12 41 25 44 69c-1 33 1 180 1 236
c0 4 -5 10 -12 11l-32 4c-6 1 -8 7 -8 13c1 4 21 17 35 27c9 6 17 13 17 21c0 63 16 121 36 154c17 29 44 63 78 87c25 18 70 43 117 43zM553 359c0 7 11 13 21 15c38 8 84 30 100 34c4 0 9 -10 9 -11c0 -11 -6 -141 -6 -198c0 -56 1 -98 2 -133c1 -32 23 -34 48 -42
c16 -5 22 -10 22 -17c0 -6 -12 -10 -24 -10c-7 0 -56 3 -77 3c-33 0 -68 -4 -86 -4c-15 0 -25 4 -25 11c0 6 7 11 24 16c23 6 38 18 40 28c3 14 4 74 4 103c0 2 4 145 -1 156c-3 6 -10 15 -39 36c-9 5 -12 8 -12 13z" />
    <glyph glyph-name="longs_longs_l" unicode="&#x17f;&#x17f;l" horiz-adv-x="755" 
d="M325 689c50 0 84 -19 106 -40c2 -2 7 0 9 2c34 36 80 63 133 63c24 0 45 -5 61 -16c4 -1 5 -1 9 5c6 8 21 19 24 19c6 0 8 -9 8 -16s-2 -223 -3 -347c-1 -110 1 -235 1 -291c0 -20 6 -33 50 -44c14 -4 23 -10 23 -15c0 -8 -14 -12 -26 -12c-24 0 -67 3 -84 3
c-24 0 -67 -3 -87 -3c-21 0 -29 4 -29 11s11 13 22 15c46 10 48 27 51 75c2 38 6 187 6 254v238c0 27 -5 44 -16 55c-12 13 -36 21 -54 21c-24 0 -49 -11 -68 -39c-27 -41 -39 -136 -39 -242v-300c1 -38 10 -52 46 -60c19 -4 23 -13 23 -18c0 -7 -12 -11 -23 -11
c-14 0 -67 4 -95 4c-34 0 -66 -4 -76 -4c-11 0 -19 6 -19 13s8 11 17 14c42 13 51 22 54 69c1 32 1 180 1 241c0 4 -4 11 -11 12l-31 5c-6 1 -8 5 -8 15c1 4 19 13 33 23c9 6 16 13 17 21c2 88 15 132 39 179c2 4 3 10 1 12c-18 22 -50 45 -105 45c-28 0 -54 -10 -77 -40
c-23 -29 -41 -98 -41 -218v-317c0 -28 16 -35 51 -45c18 -5 22 -11 22 -16c0 -11 -12 -13 -23 -13c-13 0 -72 4 -94 4c-35 0 -66 -4 -75 -4c-12 0 -23 7 -23 14c0 5 11 11 23 14c40 12 41 25 44 69c-1 33 2 180 2 236c0 4 -5 10 -12 11l-32 4c-6 1 -8 7 -8 13
c1 4 21 17 35 27c9 6 17 13 17 21c0 63 17 124 37 156c17 30 41 61 76 85c24 18 71 43 118 43z" />
    <glyph glyph-name="longs_t" unicode="&#x17f;t" horiz-adv-x="582" 
d="M81 341c-9 1 -24 2 -32 2c-4 0 -8 4 -8 12c0 4 28 22 44 34c7 5 9 8 9 20c0 91 29 171 93 225c30 24 72 48 112 48c81 0 119 -52 119 -117v-160c0 -3 7 -11 11 -11c22 0 100 1 104 1s15 -2 17 -12c0 1 2 -20 2 -32c0 -10 -18 -11 -25 -11c-4 0 -93 2 -98 2
c-6 0 -12 -3 -12 -12v-205c0 -25 7 -43 17 -55c16 -19 32 -26 53 -26c22 0 48 13 52 18c8 7 10 7 14 7s8 -10 8 -17c0 -3 -17 -24 -25 -30c-18 -17 -45 -34 -88 -34c-41 0 -79 28 -91 49c-11 17 -14 37 -14 65c0 37 3 198 3 233c0 7 -23 5 -51 8c-8 0 -12 4 -12 12
c0 4 0 5 5 9c15 9 40 20 45 24c9 7 11 11 12 24c4 36 4 99 4 140c0 36 -6 47 -18 60c-15 16 -35 23 -68 23c-66 0 -98 -70 -98 -208c0 -74 1 -255 1 -354c0 -34 6 -41 48 -49c18 -3 22 -9 22 -14c0 -7 -12 -13 -23 -13c-13 0 -66 3 -93 3c-36 0 -60 -3 -70 -3
c-12 0 -21 6 -21 13c0 4 5 7 17 12c44 11 44 22 45 66c1 41 2 189 2 244c0 4 -5 9 -12 9z" />
    <glyph glyph-name="Tcommaaccent_h" unicode="&#x162;h" horiz-adv-x="1049" 
d="M337 643c52 0 192 -2 231 2c2 0 48 2 62 5c18 4 22 5 31 12c14 12 31 24 40 24c7 0 9 -8 9 -11c-3 -36 -12 -68 -14 -135c-3 -90 -3 -169 -3 -188c0 -4 3 -9 7 -6c41 37 83 58 126 58c50 0 85 -17 106 -46c19 -27 28 -65 28 -108c1 -63 4 -125 4 -185
c0 -25 13 -33 40 -39c20 -4 28 -10 28 -16c0 -9 -8 -13 -27 -13c-35 0 -46 3 -79 3c-23 0 -43 -2 -73 -2c-14 0 -19 5 -19 12c0 6 8 11 20 14c25 8 29 11 33 49c2 19 0 129 0 145c0 55 -5 87 -17 100c-16 19 -41 33 -80 33c-44 0 -76 -19 -80 -23c-2 -2 -15 -18 -17 -49
c-2 -42 -2 -172 -1 -208c2 -33 16 -39 39 -45c14 -4 21 -11 21 -16c0 -9 -10 -12 -24 -12c-8 0 -59 2 -82 2s-59 -3 -77 -3c-9 0 -23 3 -23 13c0 5 8 11 29 17c27 9 37 20 40 57c3 42 9 111 9 355c0 81 1 111 0 132c0 20 -15 30 -19 30c-17 3 -202 5 -227 1
c-4 -1 -8 -11 -8 -13c0 -47 -1 -158 -1 -245c0 -116 1 -211 5 -248c4 -45 9 -57 71 -71c13 -3 27 -11 27 -18c0 -11 -18 -12 -28 -12c-8 0 -70 5 -113 5c-51 0 -101 -7 -115 -7c-20 0 -30 4 -30 10c0 8 9 16 19 18c69 16 72 34 75 109c2 59 7 263 7 340v119c0 8 -5 13 -8 13
c-20 3 -104 4 -120 4c-38 0 -59 -7 -74 -23c-4 -3 -16 -16 -33 -49c-9 -21 -15 -23 -19 -23c-6 0 -10 12 -10 22c0 19 19 74 19 133c0 7 9 16 15 16c5 0 4 -4 14 -13c3 -3 21 -21 36 -22c26 -3 102 -4 230 -4zM312 -41c37 0 73 -29 73 -87c0 -85 -87 -113 -107 -113
c-8 0 -14 3 -14 8c0 9 5 12 12 15c24 10 58 36 58 66c0 20 -9 27 -26 32c-12 4 -42 10 -42 38c0 32 29 41 46 41z" />
    <glyph glyph-name="Tcaron_h" unicode="&#x164;h" horiz-adv-x="1049" 
d="M337 643c52 0 192 -2 231 2c2 0 48 2 62 5c18 4 22 5 31 12c14 12 31 24 40 24c7 0 9 -8 9 -11c-3 -36 -12 -68 -14 -135c-3 -90 -3 -169 -3 -188c0 -4 3 -9 7 -6c41 37 83 58 126 58c50 0 85 -17 106 -46c19 -27 28 -65 28 -108c1 -63 4 -125 4 -185
c0 -25 13 -33 40 -39c20 -4 28 -10 28 -16c0 -9 -8 -13 -27 -13c-35 0 -46 3 -79 3c-23 0 -43 -2 -73 -2c-14 0 -19 5 -19 12c0 6 8 11 20 14c25 8 29 11 33 49c2 19 0 129 0 145c0 55 -5 87 -17 100c-16 19 -41 33 -80 33c-44 0 -76 -19 -80 -23c-2 -2 -15 -18 -17 -49
c-2 -42 -2 -172 -1 -208c2 -33 16 -39 39 -45c14 -4 21 -11 21 -16c0 -9 -10 -12 -24 -12c-8 0 -59 2 -82 2s-59 -3 -77 -3c-9 0 -23 3 -23 13c0 5 8 11 29 17c27 9 37 20 40 57c3 42 9 111 9 355c0 81 1 111 0 132c0 20 -15 30 -19 30c-17 3 -202 5 -227 1
c-4 -1 -8 -11 -8 -13c0 -47 -1 -158 -1 -245c0 -116 1 -211 5 -248c4 -45 9 -57 71 -71c13 -3 27 -11 27 -18c0 -11 -18 -12 -28 -12c-8 0 -70 5 -113 5c-51 0 -101 -7 -115 -7c-20 0 -30 4 -30 10c0 8 9 16 19 18c69 16 72 34 75 109c2 59 7 263 7 340v119c0 8 -5 13 -8 13
c-20 3 -104 4 -120 4c-38 0 -59 -7 -74 -23c-4 -3 -16 -16 -33 -49c-9 -21 -15 -23 -19 -23c-6 0 -10 12 -10 22c0 19 19 74 19 133c0 7 9 16 15 16c5 0 4 -4 14 -13c3 -3 21 -21 36 -22c26 -3 102 -4 230 -4zM329 686c-9 0 -23 9 -42 24c-15 13 -54 44 -92 78
c-16 10 -17 29 1 29c7 0 22 -8 30 -10c34 -15 66 -32 98 -48c7 -3 13 -2 18 1c27 13 63 30 94 46c8 2 21 10 30 10c19 0 21 -10 0 -30c-24 -20 -70 -58 -97 -79c-15 -12 -30 -21 -40 -21z" />
    <glyph glyph-name="gamma_gamma" unicode="&#x3b3;&#x3b3;" horiz-adv-x="763" 
d="M117 407c40 0 87 -13 113 -131c7 -33 16 -118 16 -162c0 -6 10 -3 12 3c44 129 89 216 123 251c17 22 59 40 75 40c38 0 94 -15 119 -133c7 -33 18 -117 18 -161c0 -6 7 -3 10 3c28 56 57 111 80 165c24 57 33 97 39 130c0 2 13 5 17 1c11 -7 29 -24 34 -40
c4 -15 -4 -37 -7 -44c-25 -56 -138 -216 -161 -320c-3 -15 -5 -21 -5 -29c0 -28 -7 -178 -10 -189c-1 -6 -14 -17 -20 -16c-20 7 -39 18 -53 47c-4 9 -7 26 -5 33c12 53 30 114 47 164c7 22 6 84 3 108c-10 63 -43 210 -124 210c-13 0 -24 -2 -37 -12
c-54 -39 -116 -186 -142 -303c-3 -15 -4 -26 -4 -34c-3 -62 -21 -212 -24 -224c-1 -6 -15 -18 -21 -16c-21 7 -38 15 -51 44c-4 9 -7 27 -5 34c16 60 42 147 61 197c8 22 6 83 3 107c-9 74 -42 198 -122 198c-36 0 -67 -29 -74 -40c-7 -12 -14 -3 -16 9c-3 15 4 38 15 52
c19 26 54 58 96 58z" />
    <glyph glyph-name="lambda_lambda" unicode="&#x3bb;&#x3bb;" horiz-adv-x="759" 
d="M96 676c53 0 86 -33 116 -146c14 -49 57 -253 77 -326c33 -124 62 -141 81 -141c11 0 19 10 24 21c39 74 104 214 113 230c9 22 24 53 28 58c8 8 7 17 4 35c-13 67 -49 234 -153 234c-34 0 -59 -6 -85 -26c-3 -2 -10 4 -10 8c0 9 2 19 12 32c26 36 64 58 104 58
c59 0 92 -37 128 -151c15 -48 86 -376 109 -439c4 -10 25 -53 65 -53c9 0 30 1 47 5c3 1 3 -8 4 -12c1 -2 1 -8 -3 -20c-14 -39 -35 -61 -69 -61c-29 0 -52 28 -63 71c-11 42 -58 231 -60 242c-2 10 -11 3 -12 -1c-3 -10 -109 -255 -117 -267c-14 -32 -32 -44 -53 -44
c-70 0 -90 71 -105 124c-11 42 -45 177 -47 188c-2 10 -11 3 -12 -1c-3 -10 -99 -250 -104 -259c-5 -11 -23 -54 -34 -54c-6 0 -36 7 -51 18c-6 4 -9 14 -8 17c6 14 137 273 149 296c10 23 26 56 33 64c3 2 7 10 5 22c-27 138 -59 210 -134 210c-27 0 -46 -7 -62 -15
c-3 -1 -11 5 -11 9c0 9 4 18 14 32c22 29 52 42 80 42z" />
    <glyph glyph-name=".notdef" horiz-adv-x="500" 
d="M0 0v700h500v-700h-500zM250 395l170 255h-340zM280 350l170 -255v510zM80 50h340l-170 255zM50 605v-510l170 255z" />
    <glyph glyph-name="space" unicode=" " horiz-adv-x="199" 
 />
    <glyph glyph-name="exclam" unicode="!" horiz-adv-x="291" 
d="M162 612c39 0 55 -46 54 -83c-2 -28 -32 -281 -34 -300c-1 -13 -9 -36 -20 -36c-9 0 -19 17 -20 40c-2 27 -28 216 -34 298c-4 61 36 81 54 81zM161 115c45 0 61 -40 61 -63c0 -35 -26 -64 -62 -64c-27 0 -62 18 -62 64s43 63 63 63z" />
    <glyph glyph-name="quotedbl" unicode="&#x22;" horiz-adv-x="302" 
d="M105 689c12 0 16 -16 16 -21c0 -31 -18 -131 -27 -177c-2 -6 -9 -30 -22 -30c-7 0 -12 15 -13 25c-11 93 -17 134 -17 150c0 3 3 16 7 18c9 7 41 35 56 35zM250 696c6 0 13 -6 13 -21c0 -37 -14 -129 -26 -179c-1 -6 -6 -33 -21 -33c-9 0 -13 23 -14 26
c-12 118 -18 143 -19 160c0 7 9 18 15 21c10 6 38 26 52 26z" />
    <glyph glyph-name="numbersign" unicode="#" horiz-adv-x="486" 
d="M447 430c-1 -12 -8 -34 -16 -34l-76 -3c-2 0 -5 -6 -6 -10l-27 -107c-1 -3 0 -7 3 -6l81 3c5 0 7 -17 6 -23c-2 -12 -12 -38 -23 -38l-79 -3c-2 0 -5 -1 -6 -7l-45 -171c-2 -8 -16 -14 -27 -14c-5 0 -15 3 -12 11l43 171c1 5 -2 9 -4 9l-97 -4c-2 0 -10 -6 -10 -8
l-46 -173c-2 -8 -20 -11 -23 -11c-7 0 -16 9 -15 13l43 168c1 4 0 10 -6 10l-71 -2c-3 0 -7 14 -7 16c4 20 14 43 22 43l73 4c4 0 8 1 9 7l27 108c0 2 0 8 -4 8l-83 -2c0 1 -4 16 -1 31c2 7 11 28 17 29l81 4c2 0 5 3 6 5l40 155c3 6 18 11 30 11c3 0 10 -6 10 -9l-39 -154
c0 -3 2 -6 3 -6l103 3c2 0 5 3 6 8l40 157c2 6 16 10 31 10c2 0 10 -4 7 -14l-39 -151c-2 -8 1 -9 2 -9l76 1c2 -5 4 -21 3 -26zM308 381c1 4 1 11 -3 10l-100 -3c-4 0 -7 -4 -8 -8l-27 -107c-1 -2 2 -9 6 -8l98 4c4 0 7 3 8 8z" />
    <glyph glyph-name="dollar" unicode="$" horiz-adv-x="486" 
d="M257 258l-23 -224c0 -3 3 -5 4 -5c63 7 121 46 121 112c0 55 -29 85 -96 122c-2 0 -6 -1 -6 -5zM237 374l23 207c0 6 -3 8 -5 8c-63 -2 -111 -42 -111 -110c0 -53 44 -89 87 -109c3 -1 6 1 6 4zM266 625l8 67c0 2 2 3 5 3c10 0 25 -5 25 -10l-6 -59c0 -4 1 -6 4 -6
c35 -4 69 -16 86 -21c10 -3 12 -15 17 -31c3 -17 7 -44 7 -57c0 -15 -1 -26 -9 -26c-6 0 -13 8 -17 18c-19 52 -54 73 -88 84c-3 1 -7 -3 -7 -7l-22 -223c0 -4 2 -7 4 -9c120 -57 161 -107 161 -184c0 -56 -33 -97 -73 -127c-23 -19 -86 -34 -125 -38c-4 0 -7 -4 -7 -8
l-10 -75c-2 -4 -13 -8 -18 -7c-1 0 -9 2 -13 6l8 77c0 4 -2 7 -4 7c-19 2 -41 6 -56 10c-27 7 -45 13 -55 16c-11 1 -17 13 -19 24c-4 17 -15 91 -15 94c0 5 2 17 9 17c12 0 23 -18 37 -43c28 -51 59 -75 101 -86c5 -1 6 1 6 4l25 237c0 2 0 7 -3 9c-72 35 -146 86 -147 181
c0 47 20 78 47 104c30 32 83 53 139 54c2 0 4 2 5 5z" />
    <glyph glyph-name="percent" unicode="%" horiz-adv-x="725" 
d="M185 631c96 0 139 -104 139 -174c0 -88 -43 -185 -144 -185c-99 0 -139 94 -139 175c0 92 44 184 144 184zM191 298c55 0 64 101 64 151c0 48 -13 156 -79 156c-56 0 -66 -97 -66 -146c0 -54 19 -161 81 -161zM559 643c13 0 24 -17 23 -19c-148 -237 -283 -452 -412 -653
c-2 -3 -17 0 -20 2c-8 7 -10 17 -5 25c134 214 275 435 398 632c5 9 14 13 16 13zM543 346c96 0 139 -104 139 -174c0 -89 -42 -186 -144 -186c-99 0 -139 95 -139 175c0 91 44 185 144 185zM548 12c56 0 65 105 65 151c0 48 -15 156 -79 156c-56 0 -67 -97 -67 -146
c0 -54 21 -161 81 -161z" />
    <glyph glyph-name="ampersand" unicode="&#x26;" horiz-adv-x="770" 
d="M269 613c80 -1 131 -71 131 -124c1 -59 -60 -87 -99 -111c-3 -2 -1 -6 0 -6c41 -26 122 -104 165 -157c6 -8 9 -6 15 0c32 32 88 115 103 138c13 20 12 25 12 30c0 7 -12 15 -43 21c-7 1 -20 5 -20 13c0 6 9 12 25 12c44 0 83 1 101 3c22 3 60 9 71 9c14 0 22 -6 22 -10
c0 -7 -7 -12 -22 -16c-51 -14 -78 -41 -119 -86c-30 -33 -92 -111 -120 -142c-2 -3 -3 -9 0 -12l54 -78c30 -43 72 -53 110 -54c26 0 56 10 75 22c7 5 11 0 11 -4c0 -9 -5 -19 -18 -32c-42 -39 -105 -47 -135 -46c-20 0 -46 3 -64 10c-18 8 -29 18 -41 40
c-19 35 -37 68 -47 82c-1 1 -4 3 -6 1c-32 -38 -84 -89 -116 -108c-30 -17 -56 -27 -95 -27c-96 0 -178 75 -178 178c0 78 60 127 92 152c16 12 55 39 60 42c2 1 3 4 1 6c-38 30 -67 72 -67 115c0 55 32 89 47 102c27 22 64 37 95 37zM264 48c52 0 112 44 145 89
c4 6 4 13 -4 23c-49 67 -151 161 -177 175c-6 4 -15 3 -22 -2c-46 -35 -86 -84 -86 -149c0 -37 18 -74 45 -97c25 -22 56 -39 99 -39zM254 584c-17 0 -61 -19 -61 -80c0 -46 41 -89 79 -112c6 -3 11 -1 14 1c10 6 15 12 27 26s18 45 18 69c0 33 -19 95 -77 96z" />
    <glyph glyph-name="quoteright" unicode="&#x2019;" horiz-adv-x="211" 
d="M92 686c52 0 78 -44 78 -93c0 -85 -95 -119 -111 -119c-10 0 -18 2 -18 10c0 7 8 12 13 16c34 18 60 44 60 71c0 32 -15 36 -43 46c-9 2 -24 4 -24 29c0 22 22 40 45 40z" />
    <glyph glyph-name="parenleft" unicode="(" horiz-adv-x="341" 
d="M129 282c0 -244 54 -318 155 -461c5 -6 7 -14 2 -20c-6 -5 -16 -11 -22 -11c-7 0 -18 5 -30 18c-108 121 -159 279 -159 452c0 213 96 384 173 463c8 8 23 18 29 18c13 0 24 -8 24 -14c0 -4 -2 -10 -10 -18c-96 -88 -162 -257 -162 -427z" />
    <glyph glyph-name="parenright" unicode=")" horiz-adv-x="341" 
d="M211 247c0 226 -61 334 -160 457c-4 7 -3 15 2 20c6 6 15 11 22 11s22 -5 34 -19c107 -130 154 -275 154 -445c0 -212 -96 -379 -172 -458c-8 -8 -23 -19 -29 -19c-12 0 -17 6 -19 11c-2 3 0 9 8 19c93 96 160 254 160 423z" />
    <glyph glyph-name="asterisk" unicode="*" horiz-adv-x="327" 
d="M147 653c5 1 11 -7 14 -14c8 -21 12 -53 20 -91c1 -2 3 -4 7 -1c25 17 59 37 72 43c7 2 24 5 24 -5c0 -6 -3 -10 -11 -18c-14 -16 -40 -36 -65 -53c-4 -4 -3 -5 1 -8c42 -24 65 -39 77 -49c12 -9 14 -13 14 -15c0 -13 -16 -10 -25 -8c-21 5 -56 19 -82 32
c-2 1 -5 -2 -5 -6c1 -29 1 -55 1 -75c0 -22 -7 -28 -12 -29c-10 0 -16 11 -19 20c-2 7 -11 55 -14 82c-1 3 -3 6 -6 5c-25 -15 -65 -35 -79 -40c-13 -5 -24 -1 -24 5c0 7 6 16 11 19c13 11 42 31 67 48c1 2 3 7 -1 9c-24 12 -52 28 -70 41c-9 6 -12 12 -12 17c0 9 8 12 23 7
c18 -5 46 -17 80 -30c1 -1 5 1 5 5c-2 43 -3 76 -1 93c1 9 5 15 10 16z" />
    <glyph glyph-name="plus" unicode="+" horiz-adv-x="624" 
d="M283 499c0 8 33 14 47 14c10 0 15 -8 15 -11l-3 -217c0 -5 3 -6 6 -6l207 2c3 0 8 -8 8 -14c0 -24 -8 -38 -14 -38l-201 -3c-4 0 -6 -4 -6 -9l-2 -216c0 -7 -18 -16 -44 -16c-5 0 -12 6 -12 11l-1 219c0 6 -3 11 -6 11l-196 1c-18 0 -21 11 -21 25c0 13 7 28 15 28
l202 -1c4 0 6 4 6 7v213z" />
    <glyph glyph-name="comma" unicode="," horiz-adv-x="205" 
d="M90 112c38 0 76 -34 76 -93c0 -90 -95 -125 -115 -125c-7 0 -18 2 -18 9c0 9 11 13 18 16c20 12 59 37 59 73c0 17 -15 27 -29 32c-11 4 -38 13 -38 42c0 33 28 46 47 46z" />
    <glyph glyph-name="hyphen" unicode="-" horiz-adv-x="292" 
d="M52 231c55 8 155 18 194 22c2 0 8 -7 8 -11c0 -16 -6 -47 -18 -48c-34 -4 -125 -13 -185 -19c-9 -1 -16 6 -16 14c0 26 11 41 17 42z" />
    <glyph glyph-name="period" unicode="." horiz-adv-x="205" 
d="M102 103c43 0 56 -38 56 -58c0 -32 -23 -58 -56 -58c-24 0 -55 15 -55 58c0 42 37 58 55 58z" />
    <glyph glyph-name="slash" unicode="/" horiz-adv-x="403" 
d="M44 -48c90 231 183 460 272 692c3 6 8 15 15 15c6 0 19 -3 24 -5s9 -8 7 -14c-90 -233 -183 -458 -273 -689c-6 -14 -12 -18 -17 -17c-9 0 -16 2 -21 5c-4 2 -8 10 -7 13z" />
    <glyph glyph-name="zero" unicode="0" horiz-adv-x="486" 
d="M251 631c158 0 198 -205 198 -312c0 -161 -58 -267 -114 -303c-29 -19 -62 -29 -92 -28c-150 3 -205 188 -205 316c0 161 58 260 121 300c27 17 54 27 92 27zM234 601c-23 0 -40 -9 -61 -38c-24 -36 -51 -99 -51 -247c0 -111 33 -301 135 -301c34 0 62 43 65 48
c23 44 39 122 39 250c0 164 -48 250 -75 269c-16 11 -32 19 -52 19z" />
    <glyph glyph-name="one" unicode="1" horiz-adv-x="486" 
d="M107 5c0 8 10 14 33 20c49 11 63 22 68 64c4 33 7 106 7 290c0 107 -1 140 -4 155c-2 10 -11 18 -22 20c-16 3 -35 5 -45 8c-15 4 -19 7 -19 14c0 5 10 13 20 15c38 8 76 13 105 29l38 19c7 1 11 -5 11 -10c0 -20 -4 -42 -3 -115c0 -71 0 -278 1 -396c0 -68 3 -78 65 -93
c14 -3 26 -9 26 -18c0 -7 -9 -11 -24 -11c-25 0 -66 4 -97 4c-57 0 -121 -5 -135 -5c-11 0 -25 2 -25 10z" />
    <glyph glyph-name="two" unicode="2" horiz-adv-x="486" 
d="M55 -3c-6 -1 -20 4 -21 11c-2 6 5 16 13 23c45 41 111 124 159 184c56 72 103 153 103 223c0 87 -54 123 -115 123c-57 0 -99 -31 -123 -62c-11 -14 -17 -21 -21 -21c-3 0 -11 10 -11 14c0 9 3 19 13 33c45 69 107 106 180 106c90 0 160 -78 160 -169
c0 -58 -39 -128 -79 -176c-56 -65 -112 -132 -181 -208c-3 -2 -1 -7 2 -8c43 -4 196 -4 229 1c30 5 45 12 70 39c7 8 15 17 20 17c9 0 13 -13 3 -32c-18 -39 -27 -63 -31 -90c-2 -8 -11 -9 -15 -9c-5 0 -207 4 -254 4c-23 0 -65 0 -101 -3z" />
    <glyph glyph-name="three" unicode="3" horiz-adv-x="486" 
d="M239 631c95 0 139 -77 139 -125c0 -41 -22 -71 -35 -85c-18 -19 -35 -34 -59 -50c-3 -4 -3 -8 2 -10c32 -7 87 -21 121 -63c17 -21 28 -52 28 -92c0 -82 -58 -165 -144 -215c-51 -30 -108 -42 -148 -42c-55 0 -101 22 -101 50c0 6 4 17 8 23c8 12 19 19 27 19
c4 0 16 -7 24 -14c33 -29 70 -36 101 -36c21 0 57 8 83 29c47 37 65 96 65 136c0 41 -11 82 -36 109s-54 34 -90 34c-16 0 -53 -6 -78 -17c-5 -2 -9 3 -8 8c0 8 9 21 15 26c13 9 28 17 49 28c75 38 96 78 96 126c0 55 -44 99 -97 99c-40 0 -78 -17 -110 -56
c-11 -14 -18 -18 -21 -18c-6 0 -9 4 -9 14c0 11 22 46 55 75c34 30 76 47 123 47z" />
    <glyph glyph-name="four" unicode="4" horiz-adv-x="486" 
d="M377 446v-197c0 -3 3 -8 5 -8l90 2c3 0 6 -4 6 -9c0 -10 -7 -35 -16 -39l-79 1c-2 0 -6 -5 -6 -7c0 -12 -1 -60 0 -82c3 -69 8 -74 53 -83c17 -4 22 -10 22 -16c0 -5 -5 -12 -23 -12c-23 -1 -64 4 -94 4c-35 0 -70 -5 -104 -5c-16 0 -26 6 -26 13c0 5 10 13 26 16
c60 11 57 29 61 79c1 20 3 73 3 79c0 9 -1 12 -5 13c-18 2 -222 3 -265 -2c-9 -1 -18 3 -18 8c0 10 13 25 27 44l321 439c5 7 12 14 19 14h11c9 0 14 -3 14 -8c0 -3 -2 -7 -5 -11l-317 -428c-3 -5 -1 -7 2 -8c45 -4 193 -3 212 -2c2 0 5 5 5 7l1 191c0 3 6 13 9 15
c11 8 46 18 62 18c5 0 9 -6 9 -26z" />
    <glyph glyph-name="five" unicode="5" horiz-adv-x="486" 
d="M423 196c0 -78 -42 -136 -89 -175c-65 -54 -169 -78 -223 -78c-10 0 -20 0 -23 1c-10 1 -14 3 -14 8c0 4 11 18 20 20c124 11 247 76 247 198c0 63 -38 117 -101 145c-49 21 -98 38 -161 49c-4 1 -13 18 -13 23c0 28 31 128 50 173c5 11 17 33 22 34c24 10 173 36 240 36
c2 0 8 -8 8 -9c0 -40 -40 -78 -51 -79c-59 -4 -158 -10 -190 -13c-4 0 -11 -5 -12 -9l-21 -63c-1 -7 2 -13 7 -14c64 -14 161 -51 199 -74c69 -41 105 -106 105 -173z" />
    <glyph glyph-name="six" unicode="6" horiz-adv-x="486" 
d="M312 365c94 0 141 -74 141 -157c0 -82 -39 -141 -90 -178c-39 -30 -76 -43 -123 -43c-124 0 -200 95 -200 235c0 169 123 319 243 396c67 42 130 67 163 67c7 0 20 -2 20 -11c0 -7 -8 -10 -20 -16c-45 -18 -100 -46 -168 -107c-91 -82 -153 -203 -153 -323
c0 -96 54 -202 148 -202c14 0 36 3 54 16c27 20 51 60 51 122c0 92 -52 138 -115 138c-17 0 -57 -14 -73 -22c-2 -1 -9 2 -9 8c0 7 2 12 11 22s37 29 57 37c18 10 46 18 63 18z" />
    <glyph glyph-name="seven" unicode="7" horiz-adv-x="486" 
d="M234 618c71 -1 140 2 164 3c26 1 49 2 52 2c8 0 16 -3 17 -6c0 -5 -5 -14 -8 -19c-15 -21 -142 -272 -212 -420c-54 -113 -94 -196 -100 -211c-5 -11 -12 -14 -14 -14c-14 0 -25 12 -25 20c0 5 4 14 9 23c92 185 197 382 268 537c1 1 -2 7 -4 7c-9 1 -84 7 -211 7
c-18 0 -45 -1 -60 -4c-27 -2 -38 -16 -62 -52c-5 -9 -16 -22 -21 -22c-6 0 -9 6 -9 13s5 23 11 39c15 36 18 67 21 81c1 9 5 18 10 23c4 3 9 2 14 0c15 -6 126 -7 160 -7z" />
    <glyph glyph-name="eight" unicode="8" horiz-adv-x="486" 
d="M251 649c96 0 170 -62 170 -149c0 -46 -26 -78 -55 -102c-18 -17 -47 -34 -68 -48c-4 -2 -4 -7 -2 -9c51 -38 133 -103 133 -186c0 -55 -33 -102 -72 -130c-41 -31 -92 -38 -123 -38c-124 0 -180 83 -180 149c0 64 42 101 70 124c16 13 52 42 64 50c1 1 0 5 -1 6
c-27 19 -58 45 -80 73c-23 28 -37 60 -37 100c0 51 24 90 54 114c36 31 85 46 127 46zM248 15c66 0 100 49 100 109c0 74 -64 124 -122 166c-4 3 -13 7 -15 5c-39 -27 -80 -94 -80 -148c0 -32 14 -65 32 -91c22 -24 57 -41 85 -41zM241 622c-47 0 -98 -35 -98 -104
c0 -68 53 -110 118 -155c3 -2 9 -4 12 -2c13 10 35 30 45 46c7 12 29 50 29 100c0 22 -26 115 -106 115z" />
    <glyph glyph-name="nine" unicode="9" horiz-adv-x="486" 
d="M253 631c131 0 192 -122 192 -236c0 -142 -109 -322 -246 -407c-54 -34 -86 -45 -120 -45c-7 0 -19 5 -19 11c0 3 8 8 14 10c71 35 129 85 172 137c63 73 111 187 111 289c0 62 -20 142 -69 182c-20 16 -48 22 -68 22c-63 0 -106 -66 -106 -126c0 -97 52 -147 127 -147
c28 0 46 11 59 17c5 2 11 -1 11 -5s-2 -11 -5 -17c-2 -5 -6 -11 -18 -21c-28 -24 -74 -38 -99 -38c-90 0 -148 72 -148 163c0 59 26 137 108 184c31 18 76 27 104 27z" />
    <glyph glyph-name="colon" unicode=":" horiz-adv-x="247" 
d="M124 362c41 0 54 -36 54 -57c0 -31 -24 -56 -55 -56c-23 0 -55 14 -55 58c0 43 39 55 56 55zM124 102c41 0 54 -36 54 -57c0 -31 -24 -56 -55 -56c-23 0 -55 15 -55 57c0 43 39 56 56 56z" />
    <glyph glyph-name="semicolon" unicode=";" horiz-adv-x="247" 
d="M124 361c41 0 54 -36 54 -57c0 -31 -24 -56 -55 -56c-20 0 -55 13 -55 56s39 57 56 57zM110 108c38 0 75 -33 75 -91c0 -89 -91 -123 -112 -123c-7 0 -17 2 -17 8c0 9 6 13 13 17c21 12 58 36 58 73c0 13 -8 22 -22 27c-11 3 -42 15 -42 43c0 32 29 46 47 46z" />
    <glyph glyph-name="less" unicode="&#x3c;" horiz-adv-x="586" 
d="M493 80c5 -3 2 -29 -16 -46c-4 -4 -13 -2 -15 -1l-329 183c-36 20 -42 27 -42 32c0 2 3 9 7 15c7 11 18 20 31 27l323 181c12 7 14 7 20 2c11 -11 31 -36 17 -44l-309 -167s-8 -7 -1 -11z" />
    <glyph glyph-name="equal" unicode="=" horiz-adv-x="624" 
d="M553 377c5 0 10 -6 10 -12c0 -24 -4 -44 -10 -44h-480c-10 0 -13 12 -13 16c0 13 7 36 15 36zM552 188c4 0 11 -7 11 -16c0 -25 -8 -37 -14 -37l-475 1c-8 0 -14 14 -14 22c0 14 7 31 15 31z" />
    <glyph glyph-name="greater" unicode="&#x3e;" horiz-adv-x="586" 
d="M493 257c0 -6 -3 -10 -7 -15c-7 -11 -18 -20 -31 -27l-323 -182c-12 -7 -14 -6 -20 -1c-12 11 -30 36 -16 44l312 169c3 2 0 7 -2 8l-315 172c-5 3 0 31 17 49c5 3 13 2 14 1l330 -187c35 -20 41 -24 41 -31z" />
    <glyph glyph-name="question" unicode="?" horiz-adv-x="357" 
d="M138 600c33 0 65 -23 96 -49c9 -7 79 -77 79 -143c0 -59 -18 -82 -37 -102c-21 -14 -68 -40 -88 -51c-20 -9 -17 -24 -19 -42c-1 -17 -9 -26 -16 -26c-6 0 -14 16 -17 28c-5 21 -13 57 -13 78c0 34 32 51 94 78c32 14 49 32 49 56c0 41 -7 84 -78 84c-9 0 -30 -4 -47 -4
s-42 27 -42 57c0 14 16 36 39 36zM171 108c44 0 58 -38 58 -60c0 -33 -25 -61 -59 -61c-26 0 -59 17 -59 61s40 60 60 60z" />
    <glyph glyph-name="at" unicode="@" horiz-adv-x="874" 
d="M524 383c12 0 31 -7 40 -17c3 -2 7 -2 8 1l17 41c2 4 12 10 19 9c10 0 22 -3 29 -8c4 -1 6 -10 5 -13c-19 -46 -94 -232 -106 -301c-5 -28 3 -41 36 -41c92 0 205 88 205 230c0 164 -125 265 -288 265c-235 0 -372 -197 -372 -405c0 -141 90 -304 310 -304
c80 0 169 30 244 97c5 5 16 7 16 -4c0 -5 -2 -18 -13 -31c-65 -74 -180 -106 -270 -106c-175 0 -352 103 -352 352c0 252 214 435 439 435c223 0 329 -145 329 -298c0 -137 -122 -271 -292 -271c-48 0 -68 19 -68 32c-1 6 4 23 8 34l27 79c2 3 -3 8 -7 3
c-70 -71 -154 -148 -211 -148c-20 0 -35 19 -35 42c-1 34 26 97 95 181c54 66 143 146 187 146zM496 335c-17 0 -45 -14 -81 -53c-41 -46 -92 -126 -92 -178c0 -16 7 -22 15 -22s30 2 84 50s103 122 122 165c3 6 2 19 -1 21c-9 10 -27 17 -47 17z" />
    <glyph glyph-name="A" unicode="A" horiz-adv-x="676" 
d="M353 661c4 0 8 -4 16 -26c8 -27 25 -72 44 -124c52 -146 127 -344 144 -385c33 -82 49 -90 94 -101c16 -5 24 -10 24 -17s-7 -13 -32 -13c-33 0 -82 5 -126 5c-32 0 -46 -2 -71 -2s-31 7 -31 12s6 13 24 16c48 10 44 30 40 51c-8 41 -33 107 -56 171c-1 4 -5 10 -34 10
c-55 0 -143 -1 -164 -4c-4 0 -9 -5 -11 -8c-26 -65 -52 -150 -52 -175c0 -12 4 -29 49 -43c17 -5 27 -11 27 -18c0 -10 -15 -13 -28 -13c-17 0 -42 3 -79 3s-89 -5 -104 -5c-18 0 -23 4 -23 10s7 15 22 20c50 17 63 20 92 85c23 51 137 353 179 455c6 14 7 20 9 26
c1 3 3 9 7 17l24 40c7 8 11 13 16 13zM398 303c1 0 4 5 3 8c-17 51 -69 201 -78 215c-3 6 -5 7 -8 0c-18 -48 -70 -188 -78 -219c-1 -4 1 -7 5 -7c40 1 123 0 156 3z" />
    <glyph glyph-name="B" unicode="B" horiz-adv-x="589" 
d="M500 495c0 -78 -46 -113 -81 -132c-3 -1 -1 -7 2 -8c49 -22 123 -68 123 -165c0 -71 -32 -117 -80 -149c-48 -34 -129 -46 -179 -46c-28 0 -124 4 -170 4c-23 0 -47 -1 -64 -1c-15 0 -29 4 -29 13c0 8 14 14 25 16c71 13 71 26 75 61c3 21 8 129 8 328
c0 86 -3 143 -6 158c-5 22 -8 33 -63 40c-13 2 -26 8 -26 16s13 13 27 13h67c32 0 118 7 159 7c59 0 111 -10 141 -29c49 -30 71 -81 71 -126zM416 488c0 81 -53 131 -146 131c-6 0 -32 -4 -43 -8c-2 -1 -11 -12 -12 -16c-2 -16 -6 -61 -6 -222c0 -5 2 -13 11 -13
c44 0 116 9 141 25c32 21 55 61 55 103zM450 180c0 60 -35 106 -83 130c-27 14 -69 19 -106 19c-23 0 -42 -5 -44 -7c-2 -3 -5 -7 -7 -29c-3 -36 -1 -166 4 -201c1 -7 6 -24 16 -33c21 -23 55 -34 68 -34c84 0 152 59 152 155z" />
    <glyph glyph-name="C" unicode="C" horiz-adv-x="717" 
d="M431 661c35 0 80 -7 118 -16c26 -4 61 -17 76 -19c5 0 15 -7 15 -30c0 -21 5 -65 7 -87c1 -21 -7 -33 -15 -33c-5 0 -11 11 -16 26c-9 35 -28 65 -41 75c-55 41 -106 52 -160 52c-161 0 -264 -133 -264 -284c0 -67 13 -121 35 -165c56 -115 172 -160 253 -160
c19 0 68 3 109 27c44 23 69 55 93 97c13 21 17 26 21 26c10 0 11 -22 9 -33c-3 -25 -26 -78 -40 -101c-4 -9 -21 -21 -31 -26c-16 -7 -97 -28 -182 -28c-141 0 -244 70 -284 117c-38 44 -84 116 -84 230s68 205 110 240c86 70 179 92 271 92z" />
    <glyph glyph-name="D" unicode="D" horiz-adv-x="755" 
d="M338 652c140 0 237 -60 277 -97c54 -52 91 -142 91 -221c0 -145 -90 -250 -160 -289c-59 -34 -142 -56 -238 -56c-41 0 -130 3 -196 8c-19 1 -37 1 -53 1c-23 0 -32 7 -32 15s10 13 22 14c69 8 74 27 77 106c2 47 3 78 3 137c0 57 -2 175 -5 257c-2 64 -3 78 -64 87
c-11 2 -23 9 -23 16c0 8 9 13 24 13h28c50 0 163 9 249 9zM294 621c-36 0 -60 -3 -69 -8c-7 -5 -9 -7 -10 -13c-2 -12 -4 -101 -4 -190v-145c0 -70 1 -129 4 -173c3 -31 19 -45 22 -47c19 -14 60 -26 82 -26c46 0 131 18 187 65c60 51 103 138 103 250
c0 86 -43 180 -107 228c-50 37 -134 59 -208 59z" />
    <glyph glyph-name="E" unicode="E" horiz-adv-x="563" 
d="M223 643h147c33 0 77 1 92 3c3 1 8 -6 9 -11c0 -46 2 -75 2 -95c0 -14 -6 -26 -15 -26s-14 14 -16 24c-13 53 -35 63 -67 68c-26 4 -98 6 -142 4c-2 0 -13 -5 -15 -28c-2 -25 -5 -213 -3 -228c1 -4 2 -10 7 -10h65c94 0 98 4 116 50c6 15 12 21 18 21c7 0 9 -14 8 -22
c-2 -28 -3 -48 -3 -72c0 -27 2 -41 3 -61c1 -18 -4 -29 -11 -29s-14 11 -17 22c-14 46 -18 49 -79 52c-32 2 -72 2 -99 2c-4 0 -9 -7 -9 -9c-4 -21 -3 -114 -3 -157c0 -29 4 -67 10 -83c4 -12 12 -20 19 -22c17 -3 51 -7 91 -7c12 0 73 1 95 7c32 8 59 27 83 74
c11 22 17 28 23 28c7 0 10 -16 8 -27c-1 -8 -29 -98 -36 -107c-3 -4 -12 -12 -17 -12c-11 0 -162 8 -325 8c-53 0 -75 -5 -113 -5c-19 0 -30 2 -30 13c0 7 12 12 28 16c50 12 69 19 73 73c3 42 8 160 8 284c0 119 1 140 -1 169c-2 44 -12 56 -56 66c-21 5 -29 9 -29 17
c0 9 14 14 28 14c47 0 86 -4 153 -4z" />
    <glyph glyph-name="F" unicode="F" horiz-adv-x="527" 
d="M177 643h130c60 0 152 3 160 3c5 1 12 -4 12 -10c-2 -29 2 -64 3 -98c1 -13 -5 -27 -14 -27c-8 0 -16 11 -22 31c-16 49 -27 58 -60 63c-34 5 -134 4 -155 2c-10 -1 -16 -10 -16 -13c-2 -24 -4 -155 -4 -221c0 -27 5 -37 10 -37c39 0 120 -1 144 1c31 3 40 12 54 46
c6 14 10 24 19 24c7 0 9 -10 9 -22c0 -13 -5 -45 -5 -63c0 -48 2 -57 2 -79c0 -11 -5 -23 -15 -23c-5 0 -11 7 -15 21c-10 38 -22 43 -41 48c-11 2 -47 5 -67 5c-19 0 -67 0 -88 -3c-3 0 -7 -8 -8 -12c-1 -19 3 -159 4 -188c1 -31 3 -51 68 -63c15 -3 24 -10 24 -19
c0 -6 -9 -12 -28 -12c-26 0 -57 3 -95 3c-40 0 -98 -6 -119 -6c-20 0 -28 4 -28 10c0 8 11 16 27 20c54 13 56 36 57 49c3 31 8 105 8 303c0 94 0 153 -2 179c-2 34 -19 51 -63 62c-20 5 -25 10 -25 17c0 8 12 12 28 12c44 0 80 -3 111 -3z" />
    <glyph glyph-name="G" unicode="G" horiz-adv-x="724" 
d="M415 661c73 0 126 -13 168 -22c20 -4 27 -5 38 -8c4 0 12 -8 12 -24c1 -24 14 -72 14 -110c0 -13 -6 -22 -13 -22c-6 0 -12 8 -18 23c-10 27 -23 51 -38 70c-22 27 -80 62 -160 62c-171 0 -272 -140 -272 -298c0 -71 16 -134 45 -182c53 -90 149 -138 242 -138
c12 0 62 6 90 24c8 5 21 39 21 52c0 35 -1 92 -3 104c-7 23 -15 42 -90 47c-15 1 -26 9 -26 17c0 7 11 14 30 14c18 0 91 -4 120 -4c24 0 58 4 90 4c16 0 27 -5 27 -13c0 -7 -11 -13 -23 -17c-30 -9 -32 -20 -36 -31s-5 -83 -5 -124c0 -16 9 -26 14 -29
c18 -10 17 -13 17 -18c0 -4 -4 -11 -15 -14c-18 -5 -52 -13 -91 -24c-43 -12 -105 -18 -138 -18c-112 0 -205 36 -266 91c-46 44 -103 126 -103 246c0 89 31 180 113 252c63 56 159 90 256 90z" />
    <glyph glyph-name="H" unicode="H" horiz-adv-x="816" 
d="M212 367c1 -19 4 -20 11 -20c59 0 195 3 372 3c6 0 9 6 11 26c1 13 1 143 -2 182c-3 37 -10 45 -55 57c-14 4 -25 10 -25 19c0 7 10 11 31 11c13 0 77 -2 102 -2c34 0 80 3 91 3c16 0 28 -3 28 -11c0 -6 -8 -13 -29 -18c-42 -10 -50 -28 -52 -57c-5 -51 -8 -159 -8 -329
c0 -44 4 -133 4 -148c2 -39 12 -43 57 -56c14 -5 23 -12 23 -19c0 -8 -9 -11 -28 -11c-16 0 -52 3 -83 3c-22 0 -97 -6 -117 -6c-15 0 -25 2 -25 11s11 15 22 18c54 16 59 27 62 98c2 42 4 111 4 161c0 18 -4 21 -12 21c-155 0 -352 3 -372 1c-3 0 -11 -9 -11 -17
c-2 -26 0 -154 0 -183c1 -47 12 -65 54 -78c22 -6 29 -10 30 -20c1 -8 -16 -10 -29 -10c-7 0 -68 4 -104 4c-23 0 -65 -4 -99 -4c-22 0 -30 4 -30 10c0 10 12 16 23 19c51 13 59 23 63 62c3 41 9 154 9 317c0 18 2 110 0 154c-2 34 -8 48 -50 57c-21 4 -28 11 -28 19
c0 7 13 11 29 11c28 0 65 -2 91 -2c42 0 72 2 95 2c21 0 32 -5 32 -11c0 -10 -8 -15 -29 -19c-47 -9 -50 -24 -53 -66c-3 -33 -4 -165 -3 -182z" />
    <glyph glyph-name="I" unicode="I" horiz-adv-x="339" 
d="M128 326c0 62 -1 186 -3 219c-3 46 -3 61 -59 71c-22 4 -28 11 -28 18c0 8 11 12 25 12c26 0 76 -3 109 -3c49 0 72 3 107 3c16 0 25 -4 25 -12s-10 -14 -26 -17c-58 -12 -57 -37 -61 -64c-5 -33 -6 -98 -6 -294c0 -55 1 -117 3 -149c3 -54 8 -73 73 -86
c18 -3 26 -10 26 -17c0 -8 -15 -13 -27 -13c-51 0 -122 6 -149 6c-30 0 -39 -2 -76 -2c-19 0 -26 7 -26 14s10 13 30 17c50 11 54 26 58 73c3 35 5 139 5 224z" />
    <glyph glyph-name="J" unicode="J" horiz-adv-x="330" 
d="M-73 -167c0 9 13 30 23 40c3 3 19 13 24 13c4 0 24 -7 31 -12c19 -12 38 -21 52 -21c17 0 26 3 40 19c16 17 25 41 28 83c4 62 6 170 6 312c0 144 -2 246 -6 294c-2 20 -8 45 -59 54c-23 4 -31 11 -31 19s8 12 27 12c31 0 67 -3 111 -3c35 0 74 3 105 3
c12 0 27 -2 27 -10c0 -10 -9 -16 -30 -20c-40 -8 -57 -22 -57 -73c0 -82 -4 -367 -4 -453c-1 -121 -57 -209 -108 -248c-46 -35 -88 -48 -114 -48c-33 0 -65 20 -65 39z" />
    <glyph glyph-name="K" unicode="K" horiz-adv-x="683" 
d="M43 633c0 9 12 13 27 13c24 0 66 -3 98 -3c30 0 69 2 93 2c17 0 27 -3 27 -12c0 -8 -13 -13 -29 -17c-34 -7 -46 -16 -48 -55c-3 -38 -3 -201 -1 -215c1 -4 3 -7 7 -7s14 7 15 7c32 24 192 181 223 216c26 29 22 45 -11 54c-12 4 -23 7 -23 15c0 9 11 13 26 13
c19 0 20 -1 38 -1c24 0 120 5 148 5c18 0 26 -4 26 -12c0 -6 -12 -14 -27 -18c-57 -12 -81 -28 -145 -77c-47 -37 -177 -157 -189 -176c-2 -6 -3 -7 0 -10c22 -28 193 -203 268 -280c46 -46 69 -48 105 -54c11 -3 20 -10 20 -14c0 -10 -14 -15 -25 -15c-27 0 -119 8 -146 8
c-36 0 -47 -1 -70 -1c-14 0 -21 11 -21 18c0 5 4 9 43 17c4 1 7 7 5 10c-30 38 -165 181 -217 234c-27 29 -37 42 -45 42c-5 0 -4 -13 -5 -21c-2 -19 1 -181 2 -218c1 -26 15 -41 60 -53c18 -4 23 -11 23 -18c0 -8 -10 -13 -26 -13c-22 0 -92 3 -123 3c-32 0 -65 -3 -97 -3
c-11 0 -24 6 -24 13c0 9 8 12 29 17c49 10 68 24 71 83c1 34 3 128 3 236c0 160 -2 178 -4 214c-2 35 -15 46 -55 56c-23 6 -26 12 -26 17z" />
    <glyph glyph-name="L" unicode="L" horiz-adv-x="562" 
d="M46 633c0 7 8 12 30 12c27 0 45 -2 74 -2c39 0 107 3 131 3c18 0 25 -4 25 -11s-8 -13 -23 -17c-58 -13 -65 -24 -67 -39c-6 -45 -6 -146 -6 -294c0 -78 3 -174 7 -207c2 -14 26 -37 34 -38c26 -4 63 -5 96 -5c28 0 56 1 71 3c8 1 20 1 40 19c14 14 30 29 57 67
c11 18 20 22 25 22s8 -11 4 -27c-16 -49 -23 -70 -31 -108c-1 -11 -20 -17 -24 -17c-12 0 -103 6 -306 6c-68 0 -115 -5 -129 -5c-19 0 -29 2 -29 11c0 7 8 15 24 18c55 11 69 30 74 69c2 25 5 184 5 329c0 40 0 109 -1 142c-1 22 -6 41 -53 50c-20 4 -28 12 -28 19z" />
    <glyph glyph-name="M" unicode="M" horiz-adv-x="889" 
d="M47 635c0 10 7 10 29 10c65 0 76 -2 134 -2c2 0 10 -8 11 -13c12 -37 18 -48 38 -91c56 -118 172 -358 186 -377c2 -3 8 -6 10 -3c9 17 196 370 212 412c1 4 17 38 23 58c1 5 9 14 11 14c36 0 117 3 126 3c13 0 26 -2 26 -11c0 -7 -8 -13 -26 -16c-16 -3 -30 -7 -45 -13
s-31 -25 -31 -77c0 -278 11 -405 14 -433c6 -45 17 -55 65 -69c18 -4 27 -12 27 -19c0 -8 -14 -13 -29 -13c-11 0 -88 5 -125 5c-19 0 -52 -3 -76 -3c-11 0 -27 4 -27 14c0 9 12 14 26 18c41 12 43 35 46 72c4 45 2 335 -1 386c0 7 -4 13 -10 3c-11 -19 -123 -239 -162 -321
c-24 -52 -47 -104 -62 -143c-11 -29 -16 -28 -23 -28c-6 0 -12 8 -15 19c-7 25 -18 58 -37 106c-54 132 -136 290 -173 375c-3 7 -6 8 -7 -3c-8 -42 -19 -294 -16 -386c2 -51 10 -65 61 -81c22 -6 27 -10 27 -19c0 -8 -11 -12 -27 -12c-32 0 -74 3 -100 3
c-24 0 -55 -3 -80 -3c-15 0 -26 3 -26 14c0 4 7 11 20 14c62 18 68 35 76 92c10 69 32 357 34 432c0 8 -2 46 -45 58c-17 5 -30 9 -43 12c-7 2 -16 9 -16 16z" />
    <glyph glyph-name="N" unicode="N" horiz-adv-x="771" 
d="M15 634c0 8 10 12 33 12c22 0 71 -3 122 -3c6 0 15 -7 21 -13c15 -18 40 -48 79 -99c45 -57 265 -297 332 -370c6 -6 10 4 10 7c5 32 2 140 2 284c0 34 -2 69 -5 100c-1 21 -8 45 -63 61c-20 6 -27 14 -27 22c0 7 14 9 26 9c26 0 54 -1 86 -1c36 0 68 4 94 4
c17 0 23 -3 23 -11c0 -6 -6 -15 -24 -20c-43 -10 -61 -19 -64 -73c-2 -36 -11 -233 -11 -405c0 -42 7 -117 7 -133c0 -10 -5 -21 -14 -21c-14 0 -36 20 -45 32c-17 21 -35 47 -62 80c-94 112 -267 307 -357 415c-4 5 -11 3 -11 -2c-1 -27 -4 -55 -5 -133
c0 -90 -3 -244 -1 -275c4 -46 15 -61 63 -75c21 -5 25 -12 25 -18c0 -10 -13 -13 -32 -13c-29 0 -71 5 -107 5c-22 0 -48 -2 -65 -2c-14 0 -26 1 -26 11c0 8 10 14 20 17c47 16 66 20 70 94c5 81 19 321 19 404c0 36 -5 45 -7 48c-28 33 -39 34 -84 46c-11 3 -22 8 -22 16z
" />
    <glyph glyph-name="O" unicode="O" horiz-adv-x="781" 
d="M385 661c192 0 347 -141 347 -331c0 -140 -69 -238 -142 -290c-63 -44 -146 -58 -197 -58c-102 0 -199 44 -260 114c-53 59 -83 140 -83 226c0 123 54 208 130 269c49 40 135 70 205 70zM363 628c-42 0 -103 -22 -138 -57c-44 -43 -78 -118 -78 -235
c0 -149 110 -320 270 -320c83 0 121 36 132 48c40 36 85 117 85 236c0 109 -47 214 -121 274c-41 33 -104 54 -150 54z" />
    <glyph glyph-name="P" unicode="P" horiz-adv-x="545" 
d="M417 452c0 91 -69 170 -163 170c-11 0 -21 -4 -29 -9c-4 -3 -9 -15 -10 -39c-1 -21 -1 -145 -2 -260c0 -91 2 -174 2 -199c1 -65 9 -73 60 -88c19 -5 27 -10 27 -19s-18 -12 -33 -12c-25 0 -61 4 -105 4c-29 0 -70 -4 -101 -4c-17 0 -28 5 -28 14c0 7 10 13 20 16
c56 12 67 32 70 73c3 49 5 131 5 181c0 33 -2 245 -3 277c-1 36 0 50 -56 58c-20 3 -31 9 -31 15c0 8 10 13 23 14c7 1 24 0 33 0c40 0 117 8 167 8c91 0 150 -24 187 -59c48 -46 58 -103 58 -136c0 -89 -41 -130 -70 -155c-26 -22 -72 -44 -115 -44c-11 0 -37 1 -53 7
c-12 5 -17 10 -17 16c0 4 4 9 12 9h25c53 0 127 47 127 162z" />
    <glyph glyph-name="Q" unicode="Q" horiz-adv-x="780" 
d="M396 661c181 0 335 -143 335 -331c0 -116 -45 -194 -105 -250c-33 -31 -96 -70 -143 -85c-3 -1 -5 -6 -2 -10c17 -22 81 -70 124 -97c67 -42 125 -64 175 -64c31 0 53 7 69 10c6 1 13 -2 13 -7s-7 -16 -15 -22c-24 -19 -69 -34 -105 -34c-74 0 -151 30 -220 75
c-35 21 -83 56 -144 103c-47 36 -88 52 -113 60c-129 42 -215 170 -215 309c0 127 59 222 136 277c52 37 124 66 210 66zM361 626c-36 0 -79 -12 -113 -39c-67 -53 -101 -130 -101 -260c0 -72 28 -152 77 -212c43 -56 136 -97 179 -97c58 0 96 15 125 34
c67 47 107 157 107 243c0 104 -39 201 -105 262c-42 41 -112 69 -169 69z" />
    <glyph glyph-name="R" unicode="R" horiz-adv-x="631" 
d="M506 481c0 -54 -32 -110 -81 -140c-5 -3 -24 -12 -31 -17c-3 -2 -6 -11 -4 -15c10 -24 94 -159 155 -227c27 -32 54 -50 98 -59c8 -2 16 -10 16 -14c0 -6 -8 -10 -14 -13c-12 -5 -34 -7 -55 -7c-47 0 -104 28 -133 65c-35 48 -86 125 -126 188c-14 21 -34 46 -40 50
c-4 4 -41 13 -71 13c-7 0 -12 -9 -12 -12c-1 -17 1 -144 4 -202c2 -42 13 -56 60 -67c17 -5 24 -12 24 -17c0 -10 -19 -13 -24 -13c-42 0 -61 6 -129 6c-18 0 -70 -4 -81 -4c-13 0 -26 4 -26 14c0 8 9 10 22 15c44 14 62 20 65 58c2 31 6 137 6 197c0 154 -2 245 -6 284
c-4 37 -13 39 -58 50c-15 4 -24 9 -24 17c0 7 5 12 27 12h56c37 0 108 5 162 5c69 0 123 -9 163 -42c33 -27 57 -77 57 -125zM417 479c0 24 -16 71 -45 100c-24 23 -67 38 -99 38c-5 0 -37 -2 -48 -7c-5 -2 -12 -17 -12 -21c-3 -35 -6 -228 -3 -245c2 -8 10 -15 16 -15
c58 0 111 17 125 26c27 17 66 61 66 124z" />
    <glyph glyph-name="S" unicode="S" horiz-adv-x="473" 
d="M274 661c49 0 101 -15 119 -18c6 -2 12 -17 12 -19c2 -19 10 -77 10 -81c0 -17 0 -27 -7 -27c-8 0 -20 7 -24 21c-12 36 -39 66 -49 72c-18 14 -42 23 -71 23c-67 0 -115 -50 -115 -117c0 -71 51 -102 139 -161c77 -52 138 -104 138 -194c0 -50 -28 -106 -82 -141
c-32 -21 -91 -36 -136 -36c-32 0 -100 11 -131 26c-10 6 -23 28 -23 32c-5 34 -15 78 -15 94c0 4 10 19 14 19c8 0 23 -26 37 -57c26 -55 92 -80 130 -80c69 0 121 49 121 121c0 42 -20 87 -125 154c-85 55 -145 113 -145 198c0 47 21 92 55 122c31 28 78 49 148 49z" />
    <glyph glyph-name="T" unicode="T" horiz-adv-x="667" 
d="M341 643c52 0 188 1 229 2c36 2 54 8 68 18c7 4 10 6 14 6c5 0 9 -9 4 -23c-10 -31 -16 -63 -22 -115c-1 -9 -9 -19 -17 -19c-7 0 -11 7 -14 32c-6 52 -19 57 -81 60c-17 1 -128 1 -140 -2c-5 -1 -9 -11 -9 -13v-245c0 -116 0 -211 4 -248c5 -45 10 -57 72 -71
c13 -3 27 -11 27 -18c0 -11 -18 -12 -28 -12c-8 0 -70 5 -114 5c-50 0 -101 -7 -114 -7c-20 0 -30 6 -30 12c0 7 10 15 19 17c70 16 72 33 75 108c2 59 7 263 7 340v119c0 8 -5 13 -8 13c-20 3 -108 5 -124 5c-38 0 -59 -6 -74 -23c-4 -3 -16 -19 -33 -52
c-9 -21 -15 -20 -19 -20c-6 0 -10 13 -10 23c0 19 19 74 19 133c0 6 9 16 15 16c5 0 5 -7 16 -16c3 -3 19 -18 34 -19c26 -3 106 -6 234 -6z" />
    <glyph glyph-name="U" unicode="U" horiz-adv-x="762" 
d="M37 634c0 8 13 12 29 12c42 0 66 -3 103 -3s75 2 97 2c19 0 31 -3 31 -11s-11 -15 -30 -19c-36 -7 -55 -17 -61 -57c-5 -33 -4 -137 -4 -279c0 -113 25 -156 56 -191c28 -31 93 -55 145 -55c65 0 162 30 187 140c12 53 22 137 22 251c0 65 -3 117 -4 129
c-3 38 -10 52 -66 65c-10 2 -21 11 -21 18c0 6 6 10 23 10c25 0 53 -3 85 -3c41 0 62 2 90 2c16 0 25 -3 25 -11c0 -6 -8 -13 -22 -18c-43 -12 -63 -29 -65 -92c-1 -43 -7 -154 -9 -206c-5 -174 -53 -262 -125 -302c-46 -26 -100 -32 -144 -32c-90 0 -157 37 -181 59
c-56 53 -80 126 -80 294c0 144 -3 224 -4 237c-2 19 -16 35 -54 43c-12 3 -23 8 -23 17z" />
    <glyph glyph-name="V" unicode="V" horiz-adv-x="656" 
d="M-1 635c0 8 15 13 30 13c20 0 56 -5 105 -5c35 0 76 2 99 2c13 0 24 -5 24 -12s-5 -15 -24 -18c-53 -10 -51 -32 -47 -48c17 -52 125 -332 161 -418c2 -2 7 -8 10 -1c8 21 117 278 162 386c24 56 -3 68 -46 81c-14 4 -22 12 -22 18c0 7 13 12 29 12c23 0 46 -2 80 -2
c29 0 69 4 90 4c14 0 29 -4 29 -13c0 -8 -12 -14 -26 -17c-44 -11 -66 -35 -87 -79c-46 -100 -71 -143 -132 -294c-58 -141 -71 -166 -94 -242c-4 -11 -11 -22 -21 -22c-6 0 -14 7 -16 18c-6 29 -23 90 -52 163c-34 91 -129 333 -144 369c-20 50 -41 75 -85 88
c-12 4 -23 8 -23 17z" />
    <glyph glyph-name="W" unicode="W" horiz-adv-x="987" 
d="M-2 635c0 5 10 11 26 11c44 0 66 -3 107 -3c23 0 75 3 84 3c19 0 25 -5 25 -12s-6 -13 -27 -19c-34 -9 -37 -23 -31 -40c20 -49 128 -304 196 -450c1 -3 6 -4 8 -1c8 13 53 103 86 177c1 2 2 9 -1 14c-38 91 -84 194 -96 220c-29 61 -35 69 -74 80c-18 5 -25 12 -25 18
c0 8 14 11 29 11c13 0 50 -1 82 -1c46 0 85 3 95 3c13 0 25 -4 25 -11c0 -9 -8 -16 -24 -19c-43 -8 -45 -16 -31 -48c9 -23 35 -82 72 -164c1 -3 6 -2 8 0c24 49 43 91 63 137c25 55 10 67 -31 77c-12 3 -21 11 -21 15c0 7 6 12 29 12c18 0 37 -2 70 -2c30 0 65 2 82 2
c13 0 22 -3 22 -10c0 -10 -8 -14 -28 -19c-36 -9 -50 -22 -78 -72c-10 -17 -37 -64 -95 -178c-1 -3 1 -15 3 -17c36 -85 81 -183 100 -218c2 -6 6 -9 11 0c43 92 124 274 183 408c19 46 14 65 -32 78c-13 4 -23 10 -23 16c0 9 9 12 26 12c23 0 49 -2 68 -2c30 0 64 3 95 3
c17 0 26 -4 26 -11c0 -8 -7 -14 -25 -18c-39 -8 -58 -22 -86 -76c-12 -24 -78 -147 -144 -296c-68 -155 -74 -169 -101 -236c-4 -10 -14 -25 -23 -25c-5 0 -13 4 -18 21c-15 55 -71 171 -107 255c-2 3 -6 5 -8 2c-31 -65 -90 -183 -116 -259c-4 -11 -17 -23 -23 -23
c-8 0 -12 4 -18 19c-10 28 -23 67 -62 159c-37 90 -131 308 -167 378c-26 48 -29 70 -80 81c-12 2 -26 9 -26 18z" />
    <glyph glyph-name="X" unicode="X" horiz-adv-x="694" 
d="M23 636c0 6 5 12 29 12c19 0 86 -5 121 -5c39 0 57 2 86 2c12 0 24 -3 24 -11c0 -7 -4 -12 -23 -17c-21 -6 -31 -17 -19 -38c30 -54 110 -180 126 -196c3 -3 9 -4 10 -2c34 38 119 153 136 185c16 31 -3 41 -39 49c-19 4 -25 12 -25 17c0 8 10 13 29 13c30 0 62 -2 89 -2
c24 0 82 3 105 3c12 0 24 -5 23 -11c0 -8 -11 -15 -22 -18c-53 -10 -85 -29 -123 -74c-35 -41 -106 -122 -155 -190c-1 -2 -1 -9 0 -12c6 -16 128 -196 150 -227c39 -53 53 -72 120 -89c16 -4 24 -13 24 -19c0 -7 -8 -12 -30 -12c-36 0 -78 6 -140 6c-28 0 -71 -4 -83 -4
c-18 0 -25 7 -25 13c0 8 5 12 22 17c15 4 29 7 38 13c4 3 9 11 5 18c-26 44 -125 199 -137 210c-2 2 -7 6 -10 3c-33 -40 -81 -103 -110 -146c-47 -72 -32 -82 8 -97c17 -6 24 -10 24 -17c0 -9 -12 -13 -25 -13c-25 0 -71 3 -103 3c-41 0 -81 -5 -104 -5c-18 0 -26 4 -26 11
c0 9 9 18 38 23c47 9 93 40 117 67c43 47 97 111 159 197c5 7 5 11 3 14c-8 20 -110 180 -161 250c-25 34 -63 53 -99 61c-19 4 -27 11 -27 18z" />
    <glyph glyph-name="Y" unicode="Y" horiz-adv-x="622" 
d="M3 638c0 6 10 10 27 10c15 0 67 -5 114 -5c28 0 36 2 76 2c16 0 22 -4 22 -10c0 -7 -7 -16 -22 -20c-36 -8 -29 -20 -15 -46c12 -23 86 -146 131 -219c2 -3 8 -2 10 2c28 40 104 165 129 206c21 36 10 48 -29 57c-15 4 -21 13 -21 20s12 9 23 9c26 0 42 -1 65 -1
c37 0 95 4 111 4c11 0 21 -4 21 -10c0 -8 -9 -13 -26 -18c-47 -12 -76 -37 -109 -78c-47 -59 -99 -147 -133 -196c-11 -16 -25 -48 -25 -61c0 -56 2 -180 6 -212c4 -21 15 -33 71 -47c20 -5 27 -11 27 -18c0 -8 -10 -11 -30 -11c-15 0 -64 4 -87 4c-60 0 -125 -6 -140 -6
c-17 0 -25 5 -25 11s7 14 28 18c54 12 64 34 65 48c3 41 3 149 3 207c0 5 -6 28 -9 36c-17 36 -79 137 -127 210c-47 70 -59 84 -103 94c-19 4 -28 12 -28 20z" />
    <glyph glyph-name="Z" unicode="Z" horiz-adv-x="620" 
d="M313 643c75 0 198 1 220 3c12 1 17 -1 17 -5s-2 -13 -11 -25c-13 -13 -46 -61 -89 -122c-101 -152 -255 -394 -281 -434c-3 -4 -1 -10 4 -13c10 -6 90 -11 149 -11c35 0 109 0 127 3c48 6 63 11 124 96c12 16 17 26 26 26c6 0 9 -9 9 -22c0 -16 -21 -63 -50 -127
c-5 -9 -15 -17 -58 -17c-79 0 -310 4 -356 4h-95c-7 0 -17 6 -17 14s21 32 43 63c37 48 313 468 337 512c5 8 0 13 -4 14c-38 4 -141 5 -181 5c-17 0 -59 -2 -73 -5c-30 -7 -61 -23 -90 -76c-8 -16 -16 -22 -22 -22s-14 9 -6 34c3 10 30 75 40 119c1 7 7 12 13 12
c3 0 12 -4 16 -8c11 -12 23 -14 50 -16c27 -1 96 -2 158 -2z" />
    <glyph glyph-name="bracketleft" unicode="[" horiz-adv-x="342" 
d="M140 719h129c13 0 24 -6 24 -14s-14 -17 -25 -18c-13 0 -74 -6 -91 -7c-8 0 -15 -13 -16 -25c-3 -56 -4 -183 -4 -337c0 -112 4 -252 7 -416c1 -44 11 -49 18 -50c26 -3 90 -8 95 -8c6 0 26 -6 26 -17c0 -10 -16 -14 -29 -14s-57 -2 -86 -2s-55 -1 -62 -1
c-13 0 -16 8 -16 35v608c0 162 -1 222 -1 235c0 12 3 25 7 28c3 3 13 3 24 3z" />
    <glyph glyph-name="backslash" unicode="\" horiz-adv-x="363" 
d="M327 -50c1 -3 -2 -13 -9 -14c-4 -1 -15 -3 -18 -3c-10 -2 -15 8 -16 12c-84 233 -167 463 -246 695c-1 4 0 12 6 14c7 2 23 5 27 5c6 0 11 -8 13 -12c80 -232 161 -464 243 -697z" />
    <glyph glyph-name="bracketright" unicode="]" horiz-adv-x="342" 
d="M203 -189c-59 0 -103 -1 -119 -1c-19 0 -34 8 -34 15s11 17 33 19s65 5 82 7c8 1 14 8 15 21c3 57 4 185 4 341c0 110 -4 248 -7 414c0 24 -5 50 -17 51c-36 3 -67 8 -89 10c-15 2 -29 9 -29 16c0 9 15 16 32 16c8 0 51 -1 80 -1s58 1 65 1s14 -9 14 -35v-609
c0 -161 1 -230 1 -243s-2 -16 -5 -19s-15 -3 -26 -3z" />
    <glyph glyph-name="asciicircum" unicode="^" horiz-adv-x="469" 
d="M236 642c8 0 25 -23 33 -38l149 -291c6 -12 6 -17 1 -22c-11 -12 -38 -26 -44 -13l-134 275c-4 6 -8 7 -11 1l-138 -279c-3 -5 -25 -3 -42 15c-6 7 -5 9 0 20l150 291c17 34 29 41 36 41z" />
    <glyph glyph-name="underscore" unicode="_" horiz-adv-x="495" 
d="M0 -124h495v-49h-495v49z" />
    <glyph glyph-name="quoteleft" unicode="&#x2018;" horiz-adv-x="211" 
d="M118 474c-52 0 -77 42 -77 92c0 72 84 120 114 120c11 0 15 -4 15 -10c0 -7 -9 -12 -15 -15c-30 -19 -59 -45 -59 -72c0 -31 18 -38 44 -45c8 -2 24 -4 24 -30c0 -22 -22 -40 -46 -40z" />
    <glyph glyph-name="a" unicode="a" horiz-adv-x="397" 
d="M208 404c50 0 75 -25 90 -47c15 -21 20 -41 20 -83c0 -39 -4 -165 -4 -176c0 -46 32 -50 40 -50c4 0 27 7 38 15c3 2 4 0 6 -3c3 -3 3 -9 3 -10c0 -19 -45 -62 -90 -62c-23 0 -52 13 -64 50c0 1 -4 5 -6 4c-37 -26 -80 -43 -90 -46c-11 -4 -35 -6 -40 -6
c-35 0 -69 43 -69 93c0 18 8 37 19 51c10 13 25 18 40 25c15 6 95 28 117 35c23 7 29 12 29 18c1 9 2 70 2 82c0 25 -29 67 -78 67c-21 0 -34 -6 -41 -11c-6 -3 -9 -21 -7 -41c0 -3 -4 -9 -6 -11c-10 -8 -60 -33 -65 -33c-6 0 -12 8 -12 13c0 29 28 57 75 88
c29 21 74 38 93 38zM178 42c15 0 35 7 54 17c6 4 12 23 12 25c2 24 2 58 2 78c0 3 -4 8 -8 8c-28 0 -76 -17 -103 -30c-10 -7 -20 -14 -20 -38c0 -44 42 -60 63 -60z" />
    <glyph glyph-name="b" unicode="b" horiz-adv-x="486" 
d="M454 209c0 -83 -43 -142 -87 -176c-41 -34 -101 -45 -136 -45s-104 12 -127 20c-4 2 -13 1 -21 -3c-4 -2 -10 -3 -12 -3c-4 0 -6 6 -6 13c5 78 6 250 6 332c0 95 -3 243 -5 257c-1 5 -6 18 -25 34c-15 11 -20 14 -20 19c0 1 9 13 12 14c28 10 62 19 82 31
c13 8 23 12 25 12c4 0 11 -9 11 -13c-3 -66 -9 -161 -9 -241c0 -26 0 -75 2 -86c0 -2 5 -5 6 -4c33 22 81 34 114 34c47 0 92 -16 124 -44c45 -38 66 -94 66 -151zM371 188c0 36 -15 92 -49 129c-23 23 -62 43 -109 43c-33 0 -52 -9 -60 -15c-3 -2 -7 -8 -8 -15
c-1 -9 -2 -37 -2 -58c0 -52 3 -106 8 -160c1 -21 7 -37 20 -50c28 -29 75 -42 93 -42c11 0 38 13 61 34c28 27 46 89 46 134z" />
    <glyph glyph-name="c" unicode="c" horiz-adv-x="392" 
d="M260 401c30 0 74 -8 93 -23c10 -7 15 -24 15 -30c0 -16 -29 -40 -33 -40c-6 0 -23 8 -39 19c-33 24 -50 39 -84 39c-16 0 -46 -14 -62 -34c-27 -30 -42 -71 -42 -115c0 -58 22 -94 26 -100c25 -42 74 -67 126 -67c37 0 63 12 89 30c11 8 19 5 19 0c0 -11 -5 -21 -13 -29
c-35 -39 -92 -62 -144 -62c-63 0 -116 33 -148 80c-17 28 -31 75 -31 117c0 73 39 134 97 173c39 28 104 42 131 42z" />
    <glyph glyph-name="d" unicode="d" horiz-adv-x="499" 
d="M270 404c36 0 52 -2 64 -4c4 -1 7 6 8 11c5 27 2 180 -1 204c-1 5 -1 17 -47 41c-9 5 -10 7 -10 9c0 4 11 16 17 17c23 3 76 18 102 28c6 2 9 3 13 3c3 0 9 -7 8 -16c-5 -53 -9 -89 -9 -395c0 -193 2 -209 2 -228c2 -37 10 -41 16 -41c11 0 44 7 54 8c4 0 6 -5 6 -6
c0 -7 -12 -24 -17 -25c-19 -3 -71 -13 -90 -20c-23 -8 -31 -10 -36 -10c-4 0 -11 8 -11 13c0 9 2 27 2 41c0 4 -4 6 -6 6c-46 -41 -97 -50 -130 -50c-48 0 -94 22 -125 55c-32 36 -48 87 -48 137c0 98 57 155 106 184c46 28 105 38 132 38zM233 371c-32 0 -60 -17 -78 -35
c-19 -19 -42 -70 -42 -126c0 -80 56 -172 142 -172c32 0 55 11 73 24c2 2 15 34 16 66c1 64 0 119 -3 166c-1 8 -10 26 -22 38c-28 28 -66 39 -86 39z" />
    <glyph glyph-name="e" unicode="e" horiz-adv-x="392" 
d="M229 403c35 0 74 -13 99 -38c22 -21 35 -49 35 -84c0 -6 -8 -17 -19 -17s-182 0 -228 1c-3 0 -7 -5 -8 -8c-3 -8 -5 -25 -5 -35c0 -39 16 -85 38 -114c22 -30 64 -55 112 -55c44 0 74 11 91 36c4 6 9 12 13 12c6 0 8 -7 8 -12c0 -8 -4 -19 -7 -24
c-35 -51 -88 -75 -145 -75c-108 0 -180 82 -180 199c0 80 42 160 120 196c26 12 59 18 76 18zM219 377c-45 0 -83 -28 -101 -74c-2 -5 2 -11 4 -11c26 -1 79 -1 129 0c24 0 34 5 34 25c0 28 -30 60 -66 60z" />
    <glyph glyph-name="f" unicode="f" horiz-adv-x="294" 
d="M174 390c61 0 114 1 118 1c7 0 14 -21 14 -42c0 -3 -10 -10 -15 -10c-7 0 -106 3 -117 3c-2 0 -7 -6 -7 -8c-2 -20 1 -239 3 -256c4 -35 11 -44 67 -53c17 -3 23 -11 23 -15c0 -10 -14 -12 -26 -12s-58 2 -83 2c-36 0 -90 -5 -100 -5c-14 0 -25 4 -25 11c0 5 10 12 21 16
c43 12 44 22 45 67c1 41 2 161 2 215c0 34 -6 37 -10 37c-10 0 -31 0 -42 -2c-5 0 -12 10 -9 17c1 4 26 15 49 33c7 6 13 12 13 17c2 60 7 106 25 149c21 50 46 86 90 118c40 30 76 41 114 41c21 0 48 -6 64 -19c10 -8 17 -22 17 -34c0 -14 -13 -37 -27 -42
c-5 -2 -12 -3 -18 -3c-7 0 -13 6 -27 20c-19 17 -44 31 -70 31c-24 0 -44 -12 -62 -41c-24 -42 -33 -96 -33 -227c0 -4 3 -9 6 -9z" />
    <glyph glyph-name="g" unicode="g" horiz-adv-x="416" 
d="M205 408c40 0 58 -5 87 -12l28 -6c22 -2 95 -3 116 -8c6 -1 9 -7 9 -11c0 -14 -14 -32 -18 -32c-6 0 -42 0 -67 2c-4 0 -7 -5 -6 -8c5 -15 8 -33 8 -50c0 -55 -17 -96 -56 -126c-44 -34 -85 -38 -109 -38c-6 0 -28 1 -35 1c-6 1 -11 1 -15 -1c-10 -5 -32 -26 -32 -34
c0 -26 30 -44 41 -45c44 -2 152 -3 184 -8c8 -1 30 -10 48 -24c28 -24 42 -62 42 -88c0 -75 -51 -126 -94 -154c-55 -36 -108 -43 -144 -43s-83 6 -125 37c-28 22 -46 59 -46 87c0 44 20 56 29 63c25 21 56 43 69 54c2 2 0 5 -3 7c-7 4 -26 10 -39 20c-20 14 -34 42 -34 74
c0 2 3 7 5 9c15 12 58 36 74 52c2 2 -1 6 -4 9c-28 16 -76 54 -76 127c0 49 22 85 61 114c28 21 63 32 102 32zM229 -235c39 0 68 12 79 18c40 26 55 64 55 93c0 13 -2 36 -14 52c-10 13 -29 26 -53 31c-27 5 -59 5 -101 5c-32 0 -48 -6 -54 -10c-32 -22 -45 -59 -45 -82
c0 -32 14 -58 35 -76c27 -21 61 -31 98 -31zM197 384c-18 0 -41 -13 -50 -25c-15 -16 -26 -42 -26 -89c0 -50 34 -125 99 -125c7 0 19 5 33 14c25 16 38 65 38 106c0 18 -6 51 -22 75c-19 28 -43 44 -72 44z" />
    <glyph glyph-name="h" unicode="h" horiz-adv-x="513" 
d="M290 404c50 0 85 -17 106 -46c20 -27 29 -65 29 -108l4 -185c0 -25 13 -33 39 -39c20 -4 28 -10 28 -16c0 -9 -8 -13 -27 -13c-34 0 -45 3 -79 3c-23 0 -43 -2 -72 -2c-15 0 -20 5 -20 12c0 6 9 11 21 14c25 8 28 11 32 49c2 19 0 129 0 145c0 55 -5 87 -16 100
c-16 19 -42 33 -81 33c-43 0 -76 -19 -80 -23c-2 -2 -15 -18 -16 -49c-3 -42 -3 -172 -2 -208c2 -33 16 -39 39 -45c14 -4 22 -11 22 -16c0 -9 -11 -12 -25 -12c-8 0 -58 2 -82 2c-23 0 -59 -3 -76 -3c-9 0 -23 3 -23 13c0 5 8 11 29 17c26 9 36 20 39 57
c3 42 10 177 10 278c0 40 1 209 -3 238c-3 26 -5 28 -33 46c-4 2 -10 12 -10 20c0 2 1 4 3 5c31 9 76 19 100 35c4 2 13 7 19 7c4 0 6 -8 6 -11c-10 -72 -14 -321 -14 -350c0 -6 6 -7 7 -6c41 37 84 58 126 58z" />
    <glyph glyph-name="i" unicode="i" horiz-adv-x="253" 
d="M138 0c-33 0 -68 -4 -85 -4c-16 0 -26 4 -26 11c0 6 7 11 24 16c23 6 38 18 40 28c3 14 4 74 4 103c0 30 1 144 -1 156c-1 7 -12 15 -41 36c-6 4 -8 7 -8 11c0 7 9 15 20 17c37 8 84 30 99 34c4 0 9 -10 9 -11c0 -11 -6 -141 -6 -198c0 -56 1 -98 2 -133
c1 -32 23 -34 48 -42c16 -5 22 -10 22 -17c0 -6 -12 -10 -23 -10c-7 0 -57 3 -78 3zM136 607c27 0 44 -31 44 -49c0 -27 -28 -49 -48 -49c-7 0 -23 4 -32 12c-8 9 -15 20 -15 37c0 9 4 25 12 36c10 9 25 13 39 13z" />
    <glyph glyph-name="j" unicode="j" horiz-adv-x="235" 
d="M33 354c0 4 8 12 17 15c24 7 77 24 94 33c7 4 12 5 17 5c1 0 7 -8 7 -11c-2 -57 -4 -337 -5 -362c-2 -82 -19 -143 -44 -185c-24 -41 -56 -76 -94 -103c-16 -12 -29 -18 -34 -18s-17 1 -22 5c-2 3 -1 9 1 11c38 24 55 39 64 50c27 34 54 101 54 250c0 48 0 236 -4 265
c-1 7 -6 16 -41 35c-4 2 -10 6 -10 10zM119 615c41 0 53 -37 53 -50c0 -36 -31 -50 -49 -50c-17 0 -47 21 -48 49c0 15 8 31 19 41c6 6 13 10 25 10z" />
    <glyph glyph-name="k" unicode="k" horiz-adv-x="479" 
d="M262 390h47c66 0 101 12 135 12c4 0 7 -4 7 -7c0 -12 -16 -21 -20 -22c-54 -12 -71 -22 -116 -53c-30 -22 -77 -69 -81 -76c-2 -4 -2 -8 -1 -10c34 -42 130 -146 161 -177c18 -17 36 -29 68 -36c17 -4 24 -12 24 -16c0 -10 -13 -12 -25 -12c-23 0 -73 6 -125 6h-45
c-14 0 -25 4 -25 13c0 6 9 11 22 14c21 5 24 14 13 28s-63 69 -113 127c-10 12 -20 23 -25 23c-4 0 -5 -6 -5 -8c-5 -13 -5 -109 1 -139c3 -20 10 -26 37 -33c12 -3 22 -7 22 -15c0 -9 -13 -11 -24 -11c-25 0 -58 2 -83 2c-35 0 -62 -4 -84 -4c-12 0 -23 3 -23 11
c0 7 10 11 23 15c40 10 47 19 52 44c4 19 7 210 7 343c0 129 -3 185 -6 211c0 3 -2 9 -30 26c-8 6 -13 11 -13 14c0 4 5 10 13 13c10 3 60 14 87 31c10 6 15 9 20 9c2 0 8 -9 7 -13c-5 -24 -9 -282 -9 -368c0 -39 0 -92 3 -101c2 -6 3 -9 8 -9s13 7 20 13
c33 31 88 82 106 108c4 5 7 15 -38 22c-6 1 -9 4 -9 7c0 4 10 18 17 18z" />
    <glyph glyph-name="l" unicode="l" horiz-adv-x="244" 
d="M41 660c0 4 3 11 14 14c46 16 76 22 103 39c3 2 9 -6 9 -10c-3 -25 -9 -138 -9 -272c0 -146 -2 -337 3 -364c4 -20 8 -32 51 -44c15 -4 23 -9 23 -15c0 -7 -14 -11 -26 -11c-24 0 -67 3 -85 3c-23 0 -67 -3 -88 -3c-20 0 -28 3 -28 11c0 7 11 12 22 14c46 10 48 28 52 78
c3 41 6 146 6 304c0 74 0 182 -3 209c-1 8 -1 14 -24 28c-17 12 -20 15 -20 19z" />
    <glyph glyph-name="m" unicode="m" horiz-adv-x="762" 
d="M52 350c0 6 9 12 20 18c20 8 65 34 76 41c4 3 6 4 8 4c5 -1 12 -8 12 -10c0 -14 -4 -42 -4 -52c0 -3 2 -10 6 -6c25 20 87 58 134 58c36 0 60 -7 78 -20s28 -28 32 -35c2 -4 4 -6 8 -4c19 14 45 30 71 43c23 11 46 16 64 16c37 0 65 -12 86 -34c22 -25 31 -60 33 -96
c4 -52 2 -122 2 -204c1 -18 7 -37 43 -47c13 -4 19 -8 19 -14c0 -7 -9 -11 -28 -11c-20 0 -47 3 -72 3c-30 0 -45 -2 -68 -2c-19 0 -25 6 -25 13c0 6 11 10 22 13c32 10 36 22 36 57c0 24 -2 136 -2 169c0 35 -6 49 -16 67c-12 19 -34 35 -76 35c-45 0 -63 -19 -77 -31
c-3 -3 -10 -22 -10 -29s-2 -196 0 -218c3 -32 8 -42 42 -50c11 -3 21 -9 21 -14c0 -7 -8 -12 -24 -12c-22 0 -52 2 -75 2c-21 0 -50 -2 -71 -2c-23 0 -26 8 -26 12c0 3 4 10 20 14c34 8 38 18 38 54v196c0 29 -6 42 -13 51c-13 17 -39 30 -75 30c-33 0 -56 -12 -80 -31
c-7 -6 -10 -14 -11 -25c-2 -26 -2 -152 -2 -228c0 -19 4 -35 36 -45c19 -6 27 -10 27 -18c0 -7 -14 -10 -27 -10c-4 0 -41 2 -79 2c-33 0 -53 -3 -75 -3c-15 0 -25 4 -25 11c0 4 6 11 24 15c32 8 38 23 42 66c2 29 3 129 3 198c0 5 2 18 -7 27c-28 26 -35 31 -35 36z" />
    <glyph glyph-name="n" unicode="n" horiz-adv-x="521" 
d="M53 356c0 7 11 17 18 20c17 6 53 19 67 29c10 6 19 11 24 11s10 -11 10 -15c0 -17 -4 -41 -4 -50c0 -5 5 -3 6 -3c40 27 92 55 134 55c49 0 77 -22 91 -38c22 -26 35 -72 35 -122c0 -19 2 -168 3 -182c2 -15 12 -28 37 -35c19 -5 25 -10 25 -17s-14 -11 -30 -11
c-23 0 -46 2 -74 2c-25 0 -56 -2 -69 -2c-9 0 -23 4 -23 12c0 7 11 13 23 17c24 9 29 17 31 50s3 154 3 183c0 36 -18 65 -30 74c-11 8 -41 19 -64 19c-44 0 -70 -15 -89 -32c-3 -3 -10 -15 -10 -24c0 -13 0 -228 1 -240c1 -14 5 -22 37 -31c10 -3 18 -9 18 -15
c0 -7 -11 -12 -25 -12c-12 0 -40 1 -61 1c-37 0 -66 -3 -83 -3c-15 0 -26 4 -26 13c0 7 10 12 21 15c33 10 39 20 42 56c3 30 5 117 5 219c0 11 -2 21 -24 39c-13 9 -19 14 -19 17z" />
    <glyph glyph-name="o" unicode="o" horiz-adv-x="482" 
d="M250 404c99 0 200 -78 200 -204c0 -83 -50 -148 -87 -172c-40 -29 -79 -40 -124 -40c-46 0 -96 21 -133 52c-43 35 -74 103 -74 153c0 76 32 124 70 156c31 27 81 55 148 55zM231 374c-21 0 -44 -11 -65 -29c-26 -24 -49 -76 -49 -128c0 -33 4 -64 12 -89
c25 -75 82 -111 130 -111c11 0 33 5 61 33c25 27 45 89 45 132c0 52 -12 109 -50 153c-22 24 -58 39 -84 39z" />
    <glyph glyph-name="p" unicode="p" horiz-adv-x="496" 
d="M306 402c36 0 81 -23 111 -56c24 -27 47 -76 47 -131c0 -50 -21 -124 -85 -172c-55 -43 -114 -51 -159 -51c-23 0 -43 2 -56 4c-3 0 -7 -8 -7 -13c0 -97 1 -138 4 -166c3 -26 10 -38 48 -50c20 -6 28 -11 28 -18c0 -8 -13 -13 -26 -13c-22 0 -80 5 -119 5
c-24 0 -34 -3 -64 -3c-15 0 -30 4 -30 13c0 4 7 12 23 15c53 11 58 20 62 92c2 33 3 115 3 217c0 68 1 143 0 202c0 42 -5 49 -8 51c-25 18 -37 27 -37 32s10 17 14 18c15 4 59 25 76 35c10 5 18 9 20 9c3 0 11 -8 11 -12c-2 -16 -2 -35 -3 -51c0 -4 4 -8 8 -5
c24 16 51 30 65 36c16 7 46 12 74 12zM254 351c-42 0 -70 -9 -81 -18c-5 -4 -10 -12 -13 -30c-5 -30 -6 -139 -2 -180c2 -18 6 -35 13 -44c27 -38 75 -55 100 -55c11 0 32 5 46 17c50 42 68 117 68 147c0 23 0 77 -41 122c-26 27 -67 41 -90 41z" />
    <glyph glyph-name="q" unicode="q" horiz-adv-x="489" 
d="M252 404c31 0 63 -3 86 -10c18 -6 32 -11 38 -11c2 0 12 5 24 16c7 6 18 13 24 13c4 0 9 -7 5 -20c-10 -34 -11 -264 -11 -353c0 -70 0 -150 3 -215c1 -36 5 -45 52 -53c8 -1 22 -8 22 -15s-10 -13 -25 -13c-80 0 -151 -12 -192 -12c-11 0 -25 3 -25 11c0 7 12 14 25 17
c61 12 63 34 65 56c2 21 5 136 5 200c0 6 -2 11 -5 10c-38 -19 -82 -37 -115 -37c-65 0 -114 27 -146 60c-31 33 -50 89 -50 138c0 107 68 163 105 184c30 18 83 34 115 34zM228 373c-17 0 -39 -4 -58 -21c-25 -22 -55 -61 -55 -143c0 -59 20 -101 50 -133
c29 -29 74 -43 113 -43c13 0 47 7 60 17c4 2 10 24 10 31c0 37 -2 149 -5 180c-1 10 -11 49 -17 58c-20 31 -62 54 -98 54z" />
    <glyph glyph-name="r" unicode="r" horiz-adv-x="340" 
d="M51 352c0 3 2 13 13 17c33 11 64 26 74 32c12 8 17 12 20 12c4 0 9 -9 9 -12c0 -18 -2 -36 -2 -55c0 -4 5 -5 7 -4c39 37 83 62 114 62c41 0 50 -25 50 -34c0 -2 -3 -9 -6 -14c-11 -16 -35 -43 -41 -46c-2 -1 -11 1 -14 3c-11 10 -35 22 -55 22c-17 0 -34 -3 -44 -14
c-7 -8 -10 -17 -10 -22c0 -20 5 -201 6 -216c2 -29 8 -48 26 -51l46 -12c16 -5 18 -12 18 -16c0 -5 -9 -9 -24 -9c-25 0 -60 5 -118 5c-30 0 -42 -4 -66 -4c-11 0 -21 4 -21 12c0 6 12 10 20 13c39 13 42 23 43 83v191c0 10 0 23 -11 30c-24 19 -34 23 -34 27z" />
    <glyph glyph-name="s" unicode="s" horiz-adv-x="321" 
d="M185 404c19 0 40 -3 51 -6c11 -2 30 -10 32 -11s8 -8 8 -14c0 -18 3 -52 3 -59c0 -9 -4 -18 -12 -18c-4 0 -10 6 -15 17c-22 47 -47 67 -80 67c-41 0 -60 -41 -60 -62c0 -34 32 -60 99 -97c56 -33 78 -67 78 -112c0 -46 -33 -80 -58 -98c-18 -12 -53 -23 -84 -23
c-30 0 -80 8 -97 22c-3 5 -15 47 -15 76c0 11 2 21 8 21c8 0 15 -12 21 -23c28 -51 55 -71 91 -71c13 0 29 7 40 15c15 12 23 36 23 55c0 27 -14 48 -45 67c-24 17 -30 22 -61 42c-30 19 -62 54 -62 101c0 34 17 67 55 90c19 12 46 21 80 21z" />
    <glyph glyph-name="t" unicode="t" horiz-adv-x="322" 
d="M164 390c22 0 119 4 123 4c1 0 11 -5 11 -8c0 3 3 -25 3 -38c0 -9 -19 -11 -26 -11h-109c-5 0 -9 -5 -9 -7c-1 -20 -2 -167 -2 -215c0 -25 6 -38 17 -49c19 -17 40 -19 61 -19c13 0 34 6 49 15c9 5 11 6 15 6c1 0 6 -2 6 -11c0 -8 -7 -18 -14 -25
c-27 -26 -62 -44 -107 -44c-41 0 -76 25 -88 47c-11 17 -13 38 -13 66c0 37 4 187 4 222c0 7 -18 14 -38 20c-8 3 -14 8 -14 11c0 4 3 8 6 11c35 28 66 52 80 69c12 14 19 22 23 22c5 0 14 -9 14 -11v-47c0 -3 4 -8 8 -8z" />
    <glyph glyph-name="u" unicode="u" horiz-adv-x="498" 
d="M246 38c24 0 51 13 76 35c6 5 15 20 15 24l2 230c0 6 -11 20 -17 22l-46 12c-7 2 -20 8 -20 16c0 4 13 9 23 9c40 0 84 5 107 11c10 3 17 4 24 4c5 0 7 -11 7 -15c-2 -28 -10 -250 -10 -332c0 -2 4 -14 12 -14c7 0 38 5 50 5c4 0 11 -16 12 -19c0 -3 -7 -10 -11 -10
c-26 -2 -68 -13 -91 -19c-17 -5 -33 -9 -35 -9c-4 0 -10 7 -10 14c0 6 3 25 4 42c0 5 -3 8 -5 7c-29 -20 -69 -46 -82 -51c-17 -7 -39 -12 -67 -12c-36 0 -68 16 -88 47c-7 11 -14 31 -14 47c0 72 0 185 -2 238c-1 28 -20 32 -37 39c-9 4 -18 9 -18 18c0 3 5 9 17 9
c28 0 102 11 106 11s8 -9 8 -15c1 -34 -3 -223 -3 -268c0 -23 11 -46 25 -56c26 -20 44 -20 68 -20z" />
    <glyph glyph-name="v" unicode="v" horiz-adv-x="423" 
d="M-8 384c0 7 15 11 24 11c18 0 72 -5 83 -5c26 0 51 2 62 2c15 0 23 -4 23 -11s-9 -11 -22 -15c-29 -8 -26 -22 -22 -34c29 -86 82 -205 89 -211c2 -3 6 0 8 4c13 31 67 170 76 201c8 26 -1 32 -31 43c-8 3 -16 7 -16 13s7 11 20 11c20 0 29 -3 54 -3c18 0 49 5 68 5
c10 0 20 -5 20 -11s-6 -9 -21 -15c-24 -9 -35 -21 -50 -39c-14 -22 -52 -119 -82 -189c-28 -71 -28 -81 -45 -134c-5 -16 -16 -26 -24 -26c-4 0 -10 7 -13 18c-11 33 -13 44 -36 102c-24 64 -77 187 -104 235c-7 13 -17 26 -42 33c-15 5 -19 9 -19 15z" />
    <glyph glyph-name="w" unicode="w" horiz-adv-x="654" 
d="M91 390c25 0 53 3 70 3c18 0 26 -6 26 -11c0 -6 -8 -12 -25 -16c-22 -4 -27 -16 -18 -39c12 -39 79 -210 86 -222c3 -6 7 -5 9 0c11 22 50 107 70 152c5 11 5 16 5 20c-1 7 -8 33 -16 48c-11 20 -19 36 -42 42c-13 4 -22 8 -22 16c0 7 7 10 24 10c14 0 44 -3 67 -3
c18 0 48 3 70 3c15 0 24 -5 24 -11c0 -7 -7 -13 -24 -16c-26 -6 -29 -18 -29 -22c0 -7 5 -17 12 -36c6 -15 56 -151 77 -200c2 -7 6 -5 9 1c17 36 47 116 67 167c11 29 17 51 17 60c0 10 -2 22 -39 31c-9 3 -23 7 -23 16c0 6 13 10 23 10c11 0 47 -3 62 -3c33 0 58 5 74 5
c12 0 21 -4 21 -10c0 -9 -11 -12 -23 -15c-33 -10 -37 -21 -53 -48c-33 -59 -66 -141 -96 -215c-17 -42 -32 -75 -42 -108c-3 -10 -8 -12 -13 -12s-13 7 -19 15c-4 11 -16 50 -26 74l-62 153c-1 2 -6 2 -7 -1c-24 -50 -61 -127 -91 -202c-4 -11 -16 -41 -25 -41
s-14 3 -18 15l-30 86c-7 20 -65 165 -86 214c-16 37 -28 60 -56 67c-14 3 -25 9 -25 15c0 9 10 12 29 12c17 0 46 -4 68 -4z" />
    <glyph glyph-name="x" unicode="x" horiz-adv-x="426" 
d="M15 387c0 6 12 9 26 9c12 0 63 -6 87 -6c21 0 42 2 59 2c12 0 22 -3 22 -9c0 -7 -8 -14 -19 -17c-22 -7 -20 -16 -20 -21c0 -6 39 -72 53 -92c1 -2 5 -1 7 1c16 21 43 63 53 82c10 16 5 21 -7 26c-22 9 -27 12 -27 19s9 11 20 11c10 0 25 -2 43 -2c24 0 71 5 87 5
c11 0 21 -3 21 -11s-14 -12 -19 -14c-40 -11 -65 -21 -87 -48c-25 -31 -43 -54 -70 -92c-2 -4 -2 -8 -1 -11c10 -22 52 -98 83 -142c30 -43 55 -50 76 -55c17 -4 23 -10 23 -15c0 -7 -8 -12 -24 -12c-34 0 -70 5 -108 5c-20 0 -31 -2 -51 -2c-14 0 -21 6 -21 13
c0 4 5 9 19 13c17 6 29 10 10 40c-10 19 -42 80 -49 86c-2 2 -4 3 -7 0c-16 -16 -62 -85 -63 -99c0 -12 6 -20 26 -28c6 -2 14 -9 14 -15c0 -8 -14 -10 -21 -10c-21 0 -27 2 -43 2c-33 0 -62 -4 -81 -4c-13 0 -29 3 -29 11c0 7 13 13 25 16c35 10 55 23 75 46s53 72 83 111
c2 3 2 6 0 10c-4 9 -40 75 -69 119c-25 37 -45 52 -70 60c-19 5 -26 11 -26 18z" />
    <glyph glyph-name="y" unicode="y" horiz-adv-x="414" 
d="M-5 382c0 4 3 12 24 12c25 0 49 -4 78 -4c28 0 58 2 70 2c8 0 22 -3 22 -11c0 -7 -7 -13 -23 -17c-28 -8 -31 -13 -21 -39c15 -48 79 -205 87 -217c1 -2 5 -2 8 4c12 27 74 189 79 205c9 28 1 40 -38 49c-12 3 -21 10 -21 14c0 9 13 11 25 11c19 0 46 -1 59 -1
c14 0 37 4 63 4c13 0 20 -2 20 -9c0 -9 -10 -13 -22 -17c-21 -7 -34 -19 -49 -52c-33 -75 -87 -209 -110 -267c-35 -91 -72 -194 -104 -279c-4 -13 -23 -28 -52 -28c-34 0 -45 28 -45 49c0 17 16 44 44 44c5 0 26 -1 36 -1c9 0 11 7 15 17c9 16 41 104 48 129
c3 14 7 27 3 36l-15 41c-21 59 -83 208 -114 271c-9 18 -14 28 -47 39c-14 5 -20 9 -20 15z" />
    <glyph glyph-name="z" unicode="z" horiz-adv-x="392" 
d="M204 390c73 0 117 5 139 4c4 0 4 0 8 -3s6 -11 3 -15c-17 -23 -35 -43 -60 -80c-27 -40 -111 -177 -153 -245c-4 -4 0 -9 3 -10c8 -3 88 -8 128 -8c10 0 16 4 24 12c14 14 32 35 49 59c9 13 17 22 21 22c8 0 9 -13 8 -19c-3 -15 -20 -64 -27 -100c0 -4 -9 -12 -13 -12
c-7 0 -151 5 -199 5c-44 0 -70 -3 -93 -4c-4 0 -13 9 -13 14c0 6 40 63 70 107c29 40 99 154 146 230c2 3 1 7 -3 8c-7 2 -82 6 -129 6c-9 0 -42 -35 -59 -63c-3 -6 -8 -16 -15 -16c-4 0 -10 9 -10 17c0 9 3 19 8 34c6 20 10 45 10 62c0 1 0 5 3 8c6 5 10 5 11 4
c12 -9 34 -17 52 -17h91z" />
    <glyph glyph-name="braceleft" unicode="{" horiz-adv-x="342" 
d="M37 297c74 16 97 59 97 97c0 35 -26 144 -26 173c0 25 16 82 62 119c55 42 96 46 120 46c14 0 18 -4 18 -9c0 -3 -8 -18 -12 -20l-36 -8c-67 -17 -87 -67 -87 -123c0 -43 27 -110 27 -161c0 -49 -48 -92 -99 -119c-6 -4 -5 -7 -1 -9c75 -39 101 -82 101 -140
c0 -40 -18 -118 -22 -135c-8 -33 -11 -44 -11 -56c0 -72 56 -101 124 -116c6 -1 13 -5 13 -8c0 -12 -15 -18 -24 -18c-117 0 -178 91 -178 173c0 23 25 126 25 167c0 65 -15 91 -72 108c-21 7 -31 21 -31 28c0 2 3 9 12 11z" />
    <glyph glyph-name="bar" unicode="|" horiz-adv-x="259" 
d="M99 743h61v-991h-61v991z" />
    <glyph glyph-name="braceright" unicode="}" horiz-adv-x="342" 
d="M291 267c-75 -16 -98 -60 -98 -97c0 -36 25 -171 25 -195c0 -28 -14 -82 -60 -119c-50 -40 -102 -46 -114 -46c-10 0 -18 7 -18 13c0 5 7 11 11 13c7 4 19 9 40 15c64 16 76 68 76 119c0 43 -25 130 -25 182c0 50 48 96 101 122c4 3 4 5 0 7c-79 39 -102 81 -102 141
c0 39 16 96 21 113c7 31 10 43 10 55c0 71 -54 93 -123 115c-5 2 -12 5 -12 9c0 7 15 18 23 18c116 0 178 -90 178 -173c0 -21 -24 -106 -24 -145c0 -65 15 -91 71 -109c23 -8 31 -18 31 -25c0 -6 -3 -9 -11 -13z" />
    <glyph glyph-name="asciitilde" unicode="~" horiz-adv-x="624" 
d="M211 338c77 0 153 -113 208 -113c52 0 70 36 98 105c3 7 9 9 11 9c15 0 39 -14 34 -28c-28 -82 -79 -145 -148 -145c-83 0 -149 114 -209 114c-37 0 -63 -29 -94 -99c-5 -11 -10 -15 -13 -15c-9 0 -39 13 -35 26c23 72 72 146 148 146z" />
    <glyph glyph-name="exclamdown" unicode="&#xa1;" horiz-adv-x="270" 
d="M123 -176c-46 0 -54 56 -54 83c1 28 32 286 35 306c1 13 10 30 21 30c10 0 17 -12 18 -34c2 -29 28 -223 34 -303c5 -62 -35 -82 -54 -82zM125 327c-43 0 -59 38 -59 61c0 33 25 61 60 61c26 0 59 -17 59 -62c0 -44 -39 -60 -60 -60z" />
    <glyph glyph-name="cent" unicode="&#xa2;" horiz-adv-x="486" 
d="M135 331c0 -88 42 -139 97 -165c3 -1 7 2 7 6l30 314s-2 5 -4 5c-70 0 -130 -81 -130 -160zM60 293c0 81 38 147 104 190c22 14 69 33 104 39c4 1 6 3 6 6l9 72c0 1 2 6 6 6c9 0 24 -4 24 -7l-5 -67c0 -5 3 -7 4 -7c46 -1 76 -14 95 -27c13 -10 17 -18 17 -30
c0 -15 -22 -32 -30 -32c-6 0 -21 12 -40 28c-13 11 -33 21 -48 24c-2 1 -4 -3 -4 -3l-31 -320c0 -4 1 -9 6 -10c4 -1 11 -2 16 -2c51 0 103 37 118 49c4 4 10 -1 10 -5c0 -11 -7 -26 -15 -34c-37 -40 -93 -59 -136 -64c-2 0 -6 -4 -6 -8l-8 -78c-2 -2 -17 -7 -22 -7
c-6 0 -10 4 -10 6l9 80c0 2 -4 8 -8 8c-54 8 -105 40 -133 82c-18 28 -32 72 -32 111z" />
    <glyph glyph-name="sterling" unicode="&#xa3;" horiz-adv-x="486" 
d="M343 631c62 0 95 -38 95 -76c0 -41 -27 -60 -44 -60c-5 0 -9 4 -9 7c0 4 1 12 1 18c0 43 -24 85 -61 85c-43 0 -86 -47 -110 -264c0 -2 1 -8 6 -8l124 5c5 0 9 -8 8 -14c0 -7 -6 -19 -10 -19l-124 -8c-3 0 -10 -5 -11 -10c-15 -77 -32 -123 -75 -170c-2 -2 -3 -8 3 -8
c24 0 64 -8 93 -23c47 -22 93 -62 126 -62c55 0 67 25 68 70c0 22 -2 31 -5 54c0 5 5 13 11 13c18 0 39 -18 38 -52c-2 -66 -81 -148 -171 -148c-43 0 -80 37 -138 84c-33 27 -46 23 -57 23c-6 0 -23 -30 -39 -49c-20 -22 -33 -31 -45 -31c-15 0 -28 11 -27 22
c0 21 31 68 81 89c7 3 12 9 16 13c22 22 37 86 43 169c0 1 -2 9 -5 9l-65 -1c-4 -1 -7 9 -7 15c0 9 4 17 8 18l67 5c3 1 7 6 7 9c17 152 54 221 108 262c25 19 60 33 100 33z" />
    <glyph glyph-name="fraction" unicode="&#x2044;" horiz-adv-x="82" 
d="M238 643c13 0 25 -10 18 -21c-151 -239 -369 -591 -411 -650c-1 -2 -7 -4 -12 0c-8 6 -14 17 -8 27c135 214 367 587 397 632c6 10 13 12 16 12z" />
    <glyph glyph-name="yen" unicode="&#xa5;" horiz-adv-x="486" 
d="M9 612c0 8 10 10 23 10c16 0 42 -3 68 -3c30 0 69 3 89 3c15 0 21 -6 21 -10c0 -6 -7 -12 -20 -16c-27 -8 -27 -18 -16 -44c16 -32 59 -130 89 -185c2 -4 5 -4 8 1c27 48 47 87 69 135c19 42 25 55 25 64c0 11 -9 20 -37 29c-10 3 -20 8 -20 16c0 6 11 10 24 10
c20 0 41 -3 60 -3c25 -1 50 3 72 3c10 0 21 -3 21 -10c0 -9 -10 -13 -18 -15c-44 -14 -53 -34 -80 -73c-23 -36 -86 -153 -98 -180c-2 -3 -2 -8 2 -8l106 -1c2 0 4 -2 4 -8c0 -9 -7 -22 -12 -22h-105c-3 0 -4 -7 -4 -8v-64c0 -2 4 -8 5 -8h103c2 0 6 -3 6 -11
c0 -10 -6 -19 -11 -19l-96 -2c-5 0 -7 -7 -7 -10v-39c0 -94 4 -103 27 -111c16 -6 21 -7 34 -10c10 -2 18 -7 18 -14c0 -5 -11 -11 -23 -11c-24 0 -64 2 -86 2c-29 0 -71 -4 -101 -4c-9 0 -19 3 -19 10s7 12 22 16c46 11 48 23 51 84c1 22 1 60 1 75c0 4 -2 12 -6 12h-103
c-5 0 -8 3 -8 11c0 7 5 21 9 21h100c5 0 8 4 8 7v63c0 4 -1 10 -5 10h-94c-3 0 -7 1 -7 9s6 23 9 23l87 -1c2 0 2 4 0 9c-6 16 -70 145 -103 198c-20 31 -25 42 -62 53c-12 4 -20 11 -20 16z" />
    <glyph glyph-name="florin" unicode="&#x192;" horiz-adv-x="486" 
d="M396 668c49 0 77 -30 77 -59c0 -46 -32 -63 -49 -63c-8 0 -13 5 -12 10c0 9 1 20 0 30c-1 36 -16 54 -38 54s-42 -14 -63 -53c-22 -40 -42 -115 -59 -210c-1 -5 3 -11 6 -11l100 4s5 -5 5 -12c0 -4 -5 -19 -9 -19l-102 -6c-3 0 -9 -6 -10 -12c-19 -89 -27 -142 -54 -279
c-14 -74 -51 -130 -98 -167c-34 -26 -72 -41 -104 -41c-34 0 -65 24 -65 47c0 17 13 33 24 42c3 3 10 3 14 0c23 -25 60 -46 80 -46c22 0 44 15 68 144c18 99 37 212 52 299c1 3 -3 9 -5 9l-70 -2c-4 0 -7 3 -7 10c0 11 8 21 12 21l69 4c5 1 10 11 11 14
c29 124 73 216 129 259c35 25 63 33 98 33z" />
    <glyph glyph-name="section" unicode="&#xa7;" horiz-adv-x="423" 
d="M261 637c19 0 39 -4 57 -17c4 -4 11 -11 11 -18c0 -13 -23 -36 -29 -41c-5 -4 -20 0 -24 1c-16 11 -41 28 -60 28c-46 0 -57 -33 -57 -64c0 -41 79 -112 110 -147c41 -43 105 -125 105 -201c0 -94 -39 -155 -56 -187c-34 -61 -100 -110 -136 -120c-13 -4 -20 -7 -37 -7
c-47 0 -65 23 -65 33c0 7 18 37 42 50c4 2 11 1 22 -7c21 -17 43 -21 57 -21c39 0 57 23 57 65c0 29 -67 109 -99 141c-47 49 -87 106 -102 136c-10 23 -16 52 -16 80c0 65 39 134 67 169c5 26 25 59 53 84c43 36 80 43 100 43zM333 114c0 81 -51 138 -102 201
c-39 46 -100 105 -120 146c-4 5 -6 0 -7 -1c-10 -16 -18 -43 -18 -69c0 -76 57 -147 115 -208c50 -50 93 -107 108 -142c0 -1 4 -4 6 0c10 17 18 44 18 73z" />
    <glyph glyph-name="currency" unicode="&#xa4;" horiz-adv-x="486" 
d="M437 469l-50 -54c-1 -3 -1 -8 0 -11c19 -29 31 -67 31 -102s-14 -73 -34 -102c-2 -2 -3 -6 -2 -6l53 -58c4 -5 3 -18 -8 -28c-4 -4 -18 -11 -21 -7l-61 55c-2 2 -8 0 -10 -1c-26 -16 -59 -30 -90 -30c-34 0 -66 10 -92 26c-2 1 -5 2 -12 -1l-51 -50c-4 -5 -10 -7 -25 5
c-16 16 -10 29 -8 32l46 51c1 2 3 6 0 10c-19 29 -33 68 -33 103c0 36 17 70 34 98c1 1 3 10 0 12l-51 59c-6 7 4 23 9 28c10 9 18 13 25 7l51 -52c2 -2 12 -4 14 -2c27 16 62 26 93 26c33 0 68 -12 95 -28c2 -1 7 -2 10 1l50 52c4 4 9 10 28 -7c13 -10 13 -21 9 -26z
M245 426c-70 0 -121 -53 -121 -125c0 -74 56 -122 121 -122c63 0 121 49 121 122c0 70 -62 125 -121 125z" />
    <glyph glyph-name="quotesingle" unicode="'" horiz-adv-x="174" 
d="M113 693c10 0 14 -10 14 -21c1 -39 -16 -131 -26 -178c-2 -6 -12 -31 -23 -31c-7 0 -15 15 -16 27c-4 45 -13 125 -19 151c0 2 3 12 7 16c9 9 46 36 63 36z" />
    <glyph glyph-name="quotedblleft" unicode="&#x201c;" horiz-adv-x="370" 
d="M122 474c-52 0 -77 42 -77 90c0 84 98 122 113 122c6 0 16 -1 16 -9c0 -7 -8 -13 -15 -16c-32 -19 -60 -45 -60 -72c0 -31 16 -36 45 -45c9 -2 24 -4 24 -30c0 -22 -23 -40 -46 -40zM273 474c-52 0 -78 44 -78 93c0 85 97 119 113 119c7 0 17 -1 17 -9
c0 -7 -8 -13 -16 -16c-33 -19 -59 -45 -59 -72c0 -31 16 -36 44 -45c9 -2 26 -4 26 -30c0 -22 -24 -40 -47 -40z" />
    <glyph glyph-name="guillemotleft" unicode="&#xab;" horiz-adv-x="689" 
d="M110 185c-12 6 -12 20 -7 23c88 49 187 115 225 148c14 12 28 20 36 20s7 -14 -4 -29c-25 -36 -107 -103 -147 -135c-9 -7 -7 -14 -3 -17c46 -41 120 -104 147 -147c6 -9 18 -29 1 -29c-5 0 -15 4 -23 11c-60 51 -146 112 -225 155zM332 185c-11 7 -11 20 -6 23
c92 50 184 114 223 148c14 12 25 20 33 20s9 -14 -2 -29c-25 -36 -103 -102 -145 -135c-9 -7 -7 -13 -3 -17c50 -41 122 -106 148 -149c6 -9 11 -27 -1 -27c-2 0 -12 4 -21 11c-61 52 -147 112 -226 155z" />
    <glyph glyph-name="guilsinglleft" unicode="&#x2039;" horiz-adv-x="483" 
d="M109 186c-12 6 -12 21 -6 24c99 51 198 115 237 146c15 12 26 20 36 20c8 0 10 -10 -1 -25c-26 -37 -119 -112 -159 -143c-9 -6 -4 -11 0 -14c49 -40 130 -106 158 -149c6 -9 13 -26 -3 -26c-5 0 -14 5 -23 12c-52 41 -159 112 -239 155z" />
    <glyph glyph-name="guilsinglright" unicode="&#x203a;" horiz-adv-x="483" 
d="M373 208c12 -6 12 -21 6 -24c-99 -51 -197 -114 -237 -145c-15 -12 -26 -20 -36 -20c-8 0 -9 11 2 26c26 36 118 111 159 141c9 6 4 11 0 14c-49 40 -131 107 -158 150c-6 9 -13 26 3 26c5 0 14 -5 23 -12c51 -42 158 -113 238 -156z" />
    <glyph glyph-name="endash" unicode="&#x2013;" horiz-adv-x="551" 
d="M68 240l424 -1c4 0 9 -7 9 -13c1 -13 -9 -41 -16 -41l-424 1c-6 0 -11 11 -11 14c0 21 13 40 18 40z" />
    <glyph glyph-name="dagger" unicode="&#x2020;" horiz-adv-x="443" 
d="M217 612c14 0 36 -25 36 -51c0 -39 -14 -81 -19 -149c0 -2 2 -4 5 -4c49 2 69 17 115 17c25 0 40 -21 40 -32c0 -12 -21 -32 -44 -32c-45 0 -65 13 -113 16c-1 0 -4 -2 -4 -6c0 -96 16 -387 16 -415c0 -37 -24 -49 -32 -49c-9 0 -32 9 -32 47c0 63 13 327 14 416
c0 3 -1 6 -4 6c-50 -2 -76 -15 -116 -15c-17 0 -39 16 -39 30c0 12 19 34 40 34c41 0 63 -16 113 -17c2 0 5 4 5 5c-5 68 -18 109 -18 148c0 27 22 51 37 51z" />
    <glyph glyph-name="daggerdbl" unicode="&#x2021;" horiz-adv-x="443" 
d="M216 612c18 0 34 -26 34 -47c0 -27 -2 -62 -5 -129c0 -1 0 -8 4 -8c31 1 67 12 102 12c28 0 42 -17 42 -28c0 -12 -14 -31 -44 -31c-28 0 -60 16 -101 16c-2 0 -6 -1 -6 -6l-2 -131c0 -2 2 -5 5 -5c40 1 75 12 108 12c24 0 40 -17 40 -28s-16 -28 -44 -28s-65 12 -106 13
c-3 0 -5 -2 -5 -5c-1 -122 -7 -257 -7 -274c-1 -38 -10 -47 -17 -47c-8 0 -17 9 -18 47c-1 18 -3 163 -5 273c0 3 -2 5 -6 5c-34 0 -69 -13 -102 -13c-27 0 -43 16 -43 29c0 12 15 28 43 28c35 0 79 -12 103 -12c2 0 5 2 5 6l-2 129c0 4 -4 6 -5 6c-26 0 -70 -15 -105 -15
c-25 0 -39 16 -39 29c0 11 17 30 43 30c29 0 61 -11 98 -12c2 0 6 1 6 7c-3 64 -6 103 -6 130c0 21 18 47 35 47z" />
    <glyph glyph-name="periodcentered" unicode="&#xb7;" horiz-adv-x="205" 
d="M103 257c46 0 61 -40 61 -64c0 -35 -26 -62 -62 -62c-26 0 -61 17 -61 64c0 48 42 62 62 62z" />
    <glyph glyph-name="paragraph" unicode="&#xb6;" horiz-adv-x="546" 
d="M459 626h35c17 0 17 -16 17 -21c0 -6 -7 -14 -10 -14c-8 0 -85 -2 -102 -2c-3 0 -7 -9 -7 -16c0 -302 4 -569 4 -594c0 -102 -10 -239 -136 -239c-67 0 -105 55 -105 99c0 45 34 94 84 94c29 0 52 -25 52 -47c0 -39 -33 -50 -43 -50c-11 0 -19 1 -27 6c-6 4 -9 6 -14 6
c-6 0 -11 -4 -11 -13c0 -37 26 -62 70 -62c64 0 88 65 89 175c1 98 2 126 2 158c0 6 -4 13 -8 14c-158 3 -299 81 -299 248c0 76 26 126 76 176c44 46 121 68 163 74c34 4 140 8 170 8z" />
    <glyph glyph-name="bullet" unicode="&#x2022;" horiz-adv-x="433" 
d="M217 357c77 0 156 -70 156 -163c0 -91 -78 -162 -155 -162c-87 0 -159 71 -159 162c0 93 77 163 158 163z" />
    <glyph glyph-name="quotesinglbase" unicode="&#x201a;" horiz-adv-x="214" 
d="M92 116c56 0 82 -47 82 -99c0 -89 -103 -126 -120 -126c-6 0 -16 1 -16 10c0 7 8 13 14 17c36 19 64 47 64 74c0 28 -16 38 -46 48c-9 3 -26 16 -26 32c0 22 24 44 48 44z" />
    <glyph glyph-name="quotedblbase" unicode="&#x201e;" horiz-adv-x="385" 
d="M93 116c55 0 82 -47 82 -99c0 -84 -104 -126 -120 -126c-7 0 -17 2 -17 11c0 7 9 13 15 17c29 16 63 43 63 75c0 29 -16 35 -45 45c-10 3 -27 15 -27 34c0 23 24 43 49 43zM263 116c55 0 83 -47 83 -99c0 -89 -103 -126 -120 -126c-7 0 -18 2 -18 11c0 7 8 13 15 17
c32 16 63 46 63 75c0 30 -16 35 -44 45c-10 3 -28 8 -28 34c0 23 25 43 49 43z" />
    <glyph glyph-name="quotedblright" unicode="&#x201d;" horiz-adv-x="370" 
d="M96 686c53 0 78 -44 78 -93c0 -85 -97 -119 -113 -119c-6 0 -17 1 -17 9c0 7 9 14 15 18c34 18 59 43 59 70c0 32 -15 36 -43 46c-9 2 -25 5 -25 29c0 22 23 40 46 40zM248 686c51 0 77 -44 77 -93c0 -85 -100 -119 -114 -119c-6 0 -18 1 -18 9c0 7 10 14 16 18
c34 18 60 43 60 70c0 32 -15 36 -43 46c-9 2 -25 5 -25 29c0 22 24 40 47 40z" />
    <glyph glyph-name="guillemotright" unicode="&#xbb;" horiz-adv-x="689" 
d="M578 209c12 -6 12 -20 7 -23c-87 -48 -186 -114 -225 -147c-14 -12 -27 -20 -36 -20c-8 0 -6 13 5 29c25 36 107 103 147 134c9 7 7 14 3 17c-46 42 -124 108 -151 150c-6 9 -14 27 3 27c5 0 15 -4 23 -11c59 -52 146 -112 224 -156zM356 209c12 -7 12 -20 7 -23
c-92 -49 -184 -113 -223 -147c-14 -12 -26 -20 -34 -20s-10 12 1 27c24 36 105 103 147 137c8 6 7 12 3 16c-50 41 -124 108 -151 150c-6 9 -8 27 3 27c3 0 13 -4 22 -11c61 -53 146 -112 225 -156z" />
    <glyph glyph-name="ellipsis" unicode="&#x2026;" horiz-adv-x="704" 
d="M113 100c40 0 52 -36 52 -55c0 -30 -23 -55 -53 -55c-24 0 -53 14 -53 55c0 43 37 55 54 55zM348 103c41 0 55 -38 55 -58c-1 -32 -25 -58 -56 -58c-25 0 -57 15 -57 58c0 44 39 58 58 58zM583 103c42 0 56 -38 56 -58c-1 -32 -25 -58 -57 -58c-25 0 -56 15 -56 58
c0 44 38 58 57 58z" />
    <glyph glyph-name="perthousand" unicode="&#x2030;" horiz-adv-x="1050" 
d="M185 631c96 0 139 -104 139 -174c0 -88 -43 -185 -144 -185c-99 0 -139 94 -139 175c0 92 44 184 144 184zM191 298c54 0 63 101 63 151c0 48 -13 156 -79 156c-56 0 -65 -97 -65 -146c0 -54 21 -161 81 -161zM558 644c14 0 26 -18 24 -20c-147 -237 -283 -452 -412 -653
c-2 -3 -15 0 -17 2c-9 8 -14 15 -11 21c134 213 278 439 401 636c5 9 13 14 15 14zM543 346c96 0 139 -104 139 -174c0 -89 -42 -186 -144 -186c-99 0 -139 95 -139 175c0 91 44 185 144 185zM548 12c55 0 65 105 65 151c0 48 -15 156 -79 156c-54 0 -66 -97 -66 -146
c0 -54 21 -161 80 -161zM869 346c95 0 140 -104 140 -174c0 -89 -43 -186 -145 -186c-99 0 -139 95 -139 175c0 91 44 185 144 185zM875 12c55 0 63 105 63 151c0 48 -12 156 -75 156c-51 0 -70 -97 -70 -146c0 -54 22 -161 82 -161z" />
    <glyph glyph-name="questiondown" unicode="&#xbf;" horiz-adv-x="336" 
d="M217 -164c-33 0 -66 22 -97 48c-9 8 -78 77 -78 145c0 57 17 81 37 101c21 15 68 40 88 51c19 10 18 24 20 42c1 17 8 26 15 26s15 -16 17 -27c4 -21 12 -58 12 -79c0 -34 -32 -50 -93 -78c-32 -15 -49 -31 -49 -56c0 -42 7 -84 77 -84c10 0 31 4 48 4
c10 0 41 -19 41 -58c0 -13 -15 -35 -38 -35zM183 330c-35 0 -55 35 -55 58c0 32 24 58 57 58c25 0 56 -16 56 -59c0 -42 -38 -57 -58 -57z" />
    <glyph glyph-name="grave" unicode="`" horiz-adv-x="400" 
d="M137 655c7 0 13 -5 26 -35c13 -27 46 -107 60 -149c3 -9 4 -25 -4 -25s-18 9 -23 16c-34 44 -86 126 -94 140c-7 13 -9 17 -8 26c0 6 6 14 16 18c6 3 21 9 27 9z" />
    <glyph glyph-name="acute" unicode="&#xb4;" horiz-adv-x="400" 
d="M251 626c7 14 18 21 24 21c9 0 36 -2 43 -10c3 -4 0 -17 -5 -27c-20 -38 -68 -116 -92 -147c-7 -9 -17 -19 -26 -19s-8 17 -5 27c12 36 42 113 61 155z" />
    <glyph glyph-name="circumflex" unicode="&#x2c6;" horiz-adv-x="400" 
d="M200 641c6 0 16 -14 28 -38c11 -20 38 -70 66 -125c3 -7 15 -34 -2 -34c-8 0 -22 12 -27 19c-19 26 -46 64 -63 89c-1 2 -6 5 -9 1c-17 -25 -47 -70 -64 -92c-4 -6 -12 -15 -21 -15c-6 0 -12 12 -8 23c12 29 50 99 72 139c11 20 21 33 28 33z" />
    <glyph glyph-name="tilde" unicode="&#x2dc;" horiz-adv-x="400" 
d="M128 515c-8 0 -25 -13 -34 -23c-5 -6 -6 -6 -10 -6c-3 0 -13 14 -13 16c0 1 32 46 68 68c6 5 11 5 15 4c10 -3 74 -10 100 -10c14 0 22 1 29 6c9 7 21 20 26 26c5 5 21 -10 21 -14c0 -2 0 -4 -3 -6c-5 -4 -57 -59 -62 -64s-8 -8 -12 -8c-15 0 -86 11 -125 11z" />
    <glyph glyph-name="macron" unicode="&#xaf;" horiz-adv-x="400" 
d="M99 571l210 4c4 0 8 -16 8 -20c0 -21 -8 -39 -20 -39h-205c-2 0 -8 4 -8 13c0 20 8 42 15 42z" />
    <glyph glyph-name="breve" unicode="&#x2d8;" horiz-adv-x="400" 
d="M191 475c-42 0 -91 24 -99 103c-2 23 11 29 17 29c5 0 12 -10 15 -20c12 -42 38 -60 74 -60c27 0 63 10 81 60c4 11 15 19 22 19c6 0 6 -22 6 -25c-5 -44 -38 -106 -116 -106z" />
    <glyph glyph-name="dotaccent" unicode="&#x2d9;" horiz-adv-x="400" 
d="M202 605c30 0 45 -28 45 -51c0 -29 -27 -48 -46 -48c-20 0 -49 14 -49 50c0 25 22 49 50 49z" />
    <glyph glyph-name="dieresis" unicode="&#xa8;" horiz-adv-x="400" 
d="M116 600c24 0 41 -23 41 -46c0 -30 -22 -44 -43 -44c-18 0 -42 15 -42 43c0 24 17 47 44 47zM285 599c23 0 43 -23 43 -45c0 -24 -21 -44 -45 -44c-22 0 -43 18 -43 43c0 29 24 46 45 46z" />
    <glyph glyph-name="ring" unicode="&#x2da;" horiz-adv-x="400" 
d="M200 629c49 0 82 -39 82 -81c0 -43 -33 -82 -82 -82s-82 39 -82 82c0 42 33 81 82 81zM199 600c-26 0 -44 -23 -44 -52c0 -33 20 -52 45 -52c26 0 45 18 45 54c0 27 -20 50 -46 50z" />
    <glyph glyph-name="cedilla" unicode="&#xb8;" horiz-adv-x="400" 
d="M263 -136c0 -33 -26 -64 -49 -82c-33 -25 -51 -31 -68 -31c-8 0 -18 3 -24 14c-4 7 -4 27 -1 31c6 8 9 7 11 7c15 -3 34 -6 42 -6c24 0 36 19 36 38c0 28 -28 47 -56 47c-4 0 -9 0 -16 -1c-5 0 -16 10 -16 15c0 3 0 5 7 13l75 96h32l-43 -54c-2 -5 0 -8 6 -12
c34 -17 64 -32 64 -75z" />
    <glyph glyph-name="hungarumlaut" unicode="&#x2dd;" horiz-adv-x="400" 
d="M175 634c11 0 36 -7 40 -16c2 -5 -1 -14 -6 -25c-19 -42 -47 -91 -65 -121c-5 -8 -16 -22 -25 -22c-6 0 -9 13 -6 24c11 38 35 118 47 144c5 10 10 16 15 16zM299 646c10 0 42 -6 42 -16c0 -6 -3 -14 -9 -26c-19 -39 -39 -85 -64 -127c-6 -8 -16 -21 -26 -21
c-8 0 -8 13 -3 28c10 37 28 104 43 145c5 14 12 17 17 17z" />
    <glyph glyph-name="ogonek" unicode="&#x2db;" horiz-adv-x="400" 
d="M247 25h27c-69 -58 -100 -117 -100 -158c0 -29 20 -49 45 -49c21 0 47 12 58 20c5 3 10 -2 10 -8s-5 -19 -6 -21c-12 -23 -46 -51 -96 -51c-54 0 -83 40 -83 86c0 65 64 130 145 181z" />
    <glyph glyph-name="caron" unicode="&#x2c7;" horiz-adv-x="400" 
d="M199 443c-7 0 -17 15 -29 39c-11 20 -38 70 -65 125c-3 6 -15 33 2 33c7 0 21 -11 26 -18c22 -30 45 -63 62 -88c2 -3 8 -6 11 -2c20 31 40 58 63 91c4 6 15 15 24 15c6 0 9 -11 5 -22c-15 -42 -49 -98 -71 -139c-10 -20 -21 -34 -28 -34z" />
    <glyph glyph-name="emdash" unicode="&#x2014;" horiz-adv-x="953" 
d="M68 240l828 -1c4 0 9 -7 9 -13c0 -13 -9 -41 -16 -41l-828 1c-6 0 -11 11 -11 14c0 21 13 40 18 40z" />
    <glyph glyph-name="AE" unicode="&#xc6;" horiz-adv-x="903" 
d="M504 643h201c49 0 89 8 92 8c4 0 12 -8 12 -16c0 -7 11 -81 15 -104c1 -8 -4 -19 -11 -19c-8 0 -15 7 -22 22c-17 36 -40 66 -67 70c-25 4 -131 1 -152 1c-6 0 -10 -8 -10 -11c-3 -19 0 -143 0 -242c0 -6 2 -22 10 -22c74 0 116 0 135 4c13 3 28 23 37 44
c5 9 18 17 23 17s10 -9 7 -24c-8 -39 -4 -126 -4 -137s-5 -19 -11 -19c-11 0 -18 16 -21 24c-10 38 -16 48 -61 48c-20 0 -56 1 -102 1c-6 0 -11 -6 -12 -13c-4 -18 0 -157 1 -179c2 -42 23 -54 47 -58c17 -2 83 -5 126 -4c40 1 59 19 109 77c6 7 18 22 24 22s15 -13 12 -23
c-6 -19 -39 -95 -42 -101c-5 -9 -24 -14 -36 -14c-23 0 -114 5 -264 5c-26 0 -106 -5 -133 -5c-15 0 -23 7 -23 11c0 8 8 15 25 19c53 11 59 26 64 64c3 26 4 84 4 182c0 4 -1 11 -7 11c-37 2 -140 3 -161 1c-4 0 -16 -10 -19 -15c-50 -94 -103 -190 -103 -210
c0 -12 14 -21 44 -29c16 -4 20 -8 20 -12c0 -8 -8 -20 -25 -20c-24 0 -49 3 -90 3c-28 0 -103 -6 -118 -6c-12 0 -26 6 -26 13s12 16 34 20c53 8 80 22 129 91c56 77 257 439 275 471c6 10 0 13 -7 15c-16 4 -63 9 -79 13c-12 4 -19 9 -19 16s9 12 29 12c37 0 109 -2 150 -2
zM468 327c7 0 9 11 9 16c0 7 2 209 2 232c0 12 0 17 -2 17c-3 0 -8 -7 -18 -22c-32 -50 -95 -166 -127 -230c-2 -6 1 -11 7 -12c15 -1 113 -1 129 -1z" />
    <glyph glyph-name="ordfeminine" unicode="&#xaa;" horiz-adv-x="272" 
d="M140 535c52 0 79 -43 79 -89c0 -15 -2 -65 -3 -93c-1 -21 6 -39 24 -39c7 0 12 1 25 10c3 2 6 -1 6 -9c0 -5 -4 -13 -8 -18c-14 -15 -33 -25 -55 -25c-23 0 -38 14 -44 32c-1 4 -3 5 -6 3c-24 -16 -55 -35 -77 -35c-24 0 -55 27 -55 63c0 23 11 39 34 47c8 3 70 20 97 30
c1 1 6 4 7 9c1 10 1 25 1 36c0 28 -25 47 -48 47c-9 0 -24 -1 -31 -5c-5 -3 -7 -8 -7 -29c0 -6 -2 -7 -6 -10c-4 -1 -29 -13 -39 -15c-5 -1 -10 0 -10 5c0 14 17 37 29 48c21 16 62 37 87 37zM80 344c0 -16 20 -34 37 -34c9 0 26 7 35 17c6 5 9 8 9 14c1 7 1 33 1 42
c-1 6 -5 7 -7 6c-53 -13 -75 -23 -75 -45z" />
    <glyph glyph-name="Lslash" unicode="&#x141;" horiz-adv-x="562" 
d="M127 323c0 125 0 193 -1 226c-1 41 -9 56 -51 65c-20 4 -30 11 -30 18c0 11 10 12 27 12c27 0 68 -1 97 -1c39 0 87 3 111 3c17 0 24 -4 24 -11c0 -6 -6 -13 -22 -17c-53 -12 -64 -18 -68 -52c-3 -23 -3 -107 -3 -213c0 -4 3 -7 6 -6c40 13 117 40 149 50c3 2 9 -2 11 -5
s6 -10 6 -13c0 -4 -5 -11 -20 -17c-37 -16 -115 -43 -148 -55c-1 0 -4 -4 -4 -9c0 -147 1 -162 4 -212c2 -28 29 -47 49 -48c45 -3 118 -4 140 -2c52 5 57 21 115 95c8 11 16 15 18 15c8 0 10 -12 8 -20c-13 -38 -25 -82 -35 -121c-3 -8 -11 -10 -23 -10
c-17 0 -100 5 -303 5c-39 0 -95 -5 -134 -5c-18 0 -27 3 -27 12c0 7 10 13 25 17c49 13 67 17 73 65c3 21 4 77 5 178c0 6 -4 8 -7 7l-64 -20c-2 -1 -6 0 -9 5c-5 6 -7 14 -7 18c0 3 1 6 9 9c30 13 48 18 72 28c4 2 7 6 7 9z" />
    <glyph glyph-name="Oslash" unicode="&#xd8;" horiz-adv-x="781" 
d="M385 661c69 0 145 -24 197 -57c4 -2 7 1 10 4c12 15 22 29 29 37c6 8 12 14 16 14c5 0 13 -5 17 -12c3 -2 3 -9 1 -11l-38 -51c-2 -2 -1 -5 0 -6c74 -63 115 -157 115 -250c0 -139 -70 -237 -144 -289c-63 -44 -135 -58 -197 -58c-68 0 -132 20 -184 53c-3 1 -9 3 -12 -1
c-22 -27 -33 -39 -49 -60c-3 -5 -19 -4 -25 2c-6 5 -7 16 -4 19c16 22 28 36 47 62c3 5 -1 9 -2 10c-69 62 -112 151 -112 254c0 120 51 206 128 267c49 40 138 73 207 73zM360 626c-42 0 -98 -20 -133 -55c-45 -42 -78 -116 -78 -234c0 -82 30 -155 67 -207c2 -3 4 -3 7 1
c104 135 225 290 321 414c1 2 2 6 0 8c-43 40 -104 73 -184 73zM413 15c33 0 93 11 133 46c40 37 88 121 88 240c0 72 -27 156 -63 213c-1 2 -6 4 -8 1c-106 -144 -210 -278 -318 -414c-2 -2 -2 -7 0 -9c41 -42 112 -77 168 -77z" />
    <glyph glyph-name="OE" unicode="&#x152;" horiz-adv-x="1060" 
d="M861 643c33 0 71 2 87 2c3 0 13 -6 13 -13c1 -4 4 -80 2 -95c-1 -14 -7 -26 -17 -26c-5 0 -11 9 -15 21c-10 34 -21 67 -45 70c-25 4 -68 5 -166 5c-2 0 -9 -1 -12 -15c-3 -17 -7 -115 -7 -235c0 -4 4 -13 11 -13h82c75 0 84 9 101 59c5 14 11 16 17 16s11 -7 11 -20
c0 -14 -4 -42 -4 -64c-1 -34 4 -71 4 -89s-7 -23 -14 -23s-13 8 -16 19c-11 33 -17 58 -58 60c-37 2 -36 2 -127 2c-4 0 -7 -6 -7 -10c0 -45 -1 -159 1 -185c3 -31 4 -48 11 -57c11 -16 25 -22 106 -22c122 0 130 5 190 101c6 10 11 18 17 18c9 0 12 -15 12 -23
s-40 -115 -47 -123c-7 -7 -18 -10 -25 -10c-11 0 -220 7 -252 7c-27 0 -60 -2 -85 -2c-12 0 -13 9 -13 32l2 69c0 5 -2 8 -6 2c-53 -72 -139 -118 -241 -118c-182 0 -321 156 -321 337c0 134 63 216 125 267c50 41 130 73 201 73c101 0 179 -45 235 -110c3 -2 7 0 7 5
c0 24 -2 47 -2 65c0 9 3 23 11 23h234zM373 626c-59 0 -107 -19 -142 -51c-50 -46 -82 -121 -82 -239c0 -150 94 -315 263 -315c35 0 83 15 114 38c50 38 90 122 90 253c0 114 -21 182 -77 240c-42 44 -98 74 -166 74z" />
    <glyph glyph-name="ordmasculine" unicode="&#xba;" horiz-adv-x="321" 
d="M161 535c67 0 135 -49 135 -134c0 -70 -61 -129 -138 -129c-70 0 -133 59 -133 132c0 72 61 131 136 131zM155 513c-51 0 -67 -59 -67 -103c0 -56 32 -112 82 -112c49 0 64 55 64 101c0 55 -39 114 -79 114z" />
    <glyph glyph-name="ae" unicode="&#xe6;" horiz-adv-x="562" 
d="M40 279c0 8 7 28 31 49c43 36 68 51 99 67c19 10 37 11 45 11c48 0 72 -29 88 -51c2 -2 6 -2 8 0c42 31 77 51 119 51c74 0 108 -63 108 -111c0 -7 -8 -20 -18 -23c-43 -12 -153 -44 -192 -56c-5 -2 -9 -7 -9 -12c0 -91 2 -105 18 -125c16 -21 49 -30 84 -30
c57 0 88 33 104 42c7 4 15 3 15 -1c0 -8 -1 -15 -7 -24c-27 -41 -87 -78 -152 -78c-49 0 -90 18 -116 58c-2 2 -7 5 -9 3c-44 -32 -96 -61 -122 -61c-38 0 -90 39 -90 101c0 41 23 62 64 76c35 11 83 31 117 41c23 7 24 11 24 21c0 77 4 95 -8 108c-17 16 -39 25 -66 25
c-15 0 -31 -7 -37 -12c-5 -4 -9 -9 -8 -19c1 -17 1 -21 -3 -25c0 0 -56 -38 -75 -38c-6 0 -12 7 -12 13zM179 42c20 0 55 15 66 36c3 8 4 15 4 28v70c0 1 -5 8 -14 5c-76 -25 -116 -39 -116 -78c0 -37 28 -61 60 -61zM394 365c-29 0 -53 -18 -63 -27c-7 -6 -12 -13 -12 -32
v-60c0 -2 6 -5 8 -4c28 7 96 28 111 35c24 10 24 26 24 33c0 10 -7 55 -68 55z" />
    <glyph glyph-name="dotlessi" unicode="&#x131;" horiz-adv-x="253" 
d="M45 359c0 7 9 13 20 15c37 8 84 30 99 34c4 0 9 -10 9 -11c0 -11 -6 -141 -6 -198c0 -56 1 -98 2 -133c1 -32 23 -34 48 -42c16 -5 22 -10 22 -17c0 -6 -12 -10 -23 -10c-7 0 -57 3 -78 3c-33 0 -68 -4 -85 -4c-16 0 -26 4 -26 11c0 6 7 11 24 16c23 6 38 18 40 28
c3 14 4 74 4 103c0 2 1 144 -1 156c-1 7 -10 15 -39 36c-8 5 -10 8 -10 13z" />
    <glyph glyph-name="lslash" unicode="&#x142;" horiz-adv-x="264" 
d="M43 326c15 9 49 25 59 31c1 1 4 5 4 15c0 75 -2 195 -3 241c0 14 -9 21 -24 29c-20 11 -20 16 -20 20c0 3 5 11 16 14c48 13 86 29 101 38c4 2 10 -5 9 -9c-4 -33 -8 -173 -8 -305c0 -5 1 -9 5 -7c21 11 46 22 59 29c3 1 6 -2 8 -3c2 -3 7 -9 7 -17c0 -7 -3 -8 -8 -11
c-16 -9 -54 -28 -67 -35c-2 -1 -4 -6 -4 -9c-1 -71 -1 -240 2 -276c2 -21 7 -34 49 -47c14 -4 25 -7 25 -16c0 -8 -13 -11 -27 -11c-24 0 -75 3 -92 3c-23 0 -58 -3 -80 -3s-28 7 -28 11c0 8 13 13 23 15c44 8 46 20 50 71c3 32 6 159 7 220c0 5 -2 7 -4 6
c-19 -10 -36 -17 -50 -24c-3 -1 -7 1 -9 2c-3 2 -8 13 -8 16c0 4 2 10 8 12z" />
    <glyph glyph-name="oslash" unicode="&#xf8;" horiz-adv-x="482" 
d="M252 404c32 0 64 -9 94 -25c1 -1 7 -3 9 0l26 31c4 4 9 9 14 9c8 0 19 -14 15 -19c-13 -19 -16 -20 -28 -39c-1 -2 0 -7 2 -9c39 -37 66 -91 66 -159c0 -72 -50 -143 -87 -167c-40 -29 -79 -38 -124 -38c-35 0 -70 12 -103 31c-2 1 -8 4 -11 0l-34 -41c-3 -3 -7 -2 -9 -1
c-14 10 -13 18 -11 20c12 16 18 24 31 39c2 2 -2 8 -4 10c-37 35 -66 88 -66 144c0 71 31 126 69 158c31 27 84 56 151 56zM168 62c27 -27 58 -45 87 -45c27 0 45 9 67 32c25 28 45 92 45 137c0 29 -4 70 -23 108c-2 5 -8 7 -9 5c-55 -71 -111 -150 -168 -223
c-3 -4 -1 -11 1 -14zM230 374c-21 0 -43 -7 -64 -26c-25 -23 -51 -78 -51 -131c0 -46 9 -87 25 -113c1 -2 7 -6 10 -2c54 70 115 153 167 224c3 4 -2 9 -3 11c-21 20 -46 37 -84 37z" />
    <glyph glyph-name="oe" unicode="&#x153;" horiz-adv-x="695" 
d="M250 404c62 0 116 -38 133 -55c3 -3 10 -4 14 -1c28 23 70 53 136 53c104 0 139 -81 139 -124c0 -11 -18 -29 -46 -29h-194c-3 0 -8 -3 -9 -8c-3 -8 -4 -18 -4 -30c0 -81 37 -158 128 -158c54 0 80 20 104 42c6 6 15 7 15 -4c0 -5 -3 -17 -12 -28
c-39 -49 -98 -70 -147 -70c-57 0 -103 30 -124 54c-2 2 -6 3 -9 -2c-39 -39 -87 -56 -140 -56c-117 0 -202 106 -202 205c0 68 26 132 86 171c31 21 66 40 132 40zM225 373c-17 0 -40 -9 -55 -23c-26 -22 -53 -74 -53 -143c0 -81 40 -188 133 -188c18 0 47 8 64 27
c25 32 34 83 34 151c0 82 -24 176 -123 176zM523 371c-49 0 -81 -38 -95 -82c-3 -7 3 -11 5 -12c9 0 107 4 125 4c19 0 31 18 31 26c0 23 -12 64 -66 64z" />
    <glyph glyph-name="germandbls" unicode="&#xdf;" horiz-adv-x="502" 
d="M315 714c104 0 142 -87 142 -142c0 -63 -23 -82 -44 -105c-12 -14 -40 -38 -64 -60c-20 -19 -40 -35 -40 -61c0 -16 14 -31 25 -38c11 -8 69 -51 86 -65c28 -24 51 -44 51 -100c0 -64 -50 -115 -107 -140c-28 -12 -55 -15 -62 -15c-14 0 -56 6 -56 42c0 11 10 32 16 38
c3 2 15 8 20 4c21 -17 57 -30 72 -30c46 0 64 27 64 56c0 53 -44 78 -112 122c-37 23 -62 53 -62 98c0 23 11 36 19 45c9 9 30 30 62 60c58 53 73 95 73 146c0 43 -33 106 -108 106c-73 0 -95 -46 -112 -122c-10 -45 -12 -153 -12 -290c0 -139 3 -182 5 -204
c2 -19 11 -27 31 -33c14 -5 24 -9 24 -16c0 -10 -16 -12 -28 -12c-14 0 -35 2 -70 2c-22 0 -62 -4 -77 -4c-18 0 -25 4 -25 10c0 8 8 12 26 17c31 10 35 23 38 36c4 20 4 120 4 171c0 50 -1 82 -1 95c0 10 -8 16 -14 17c-7 2 -21 3 -33 5c-5 1 -6 17 -1 22c10 9 23 16 37 26
c7 6 12 11 12 20c0 66 16 165 77 232c29 31 74 67 144 67z" />
    <glyph glyph-name="logicalnot" unicode="&#xac;" horiz-adv-x="624" 
d="M75 349h459c12 0 12 -12 12 -21v-274c0 -15 -31 -20 -47 -20c-6 0 -12 2 -12 15v227c0 16 -5 20 -17 20h-389c-18 0 -21 1 -21 15s7 38 15 38z" />
    <glyph glyph-name="mu" unicode="&#xb5;" horiz-adv-x="453" 
d="M92 407c20 0 32 -9 45 -18c1 0 10 -19 10 -23c0 -14 -6 -48 -15 -96s-17 -117 -20 -132c-2 -14 0 -29 3 -43c5 -26 22 -36 48 -36c45 0 100 62 124 124c4 12 7 28 8 39c4 84 12 142 14 158c2 12 11 28 16 28c30 0 53 -19 59 -25s4 -15 2 -35c-4 -46 -38 -154 -57 -194
c-4 -10 -4 -18 -4 -25c-2 -51 32 -72 54 -72c32 0 54 16 67 32c3 4 8 1 10 -5c3 -10 -2 -37 -9 -50c-20 -39 -45 -52 -75 -52c-33 0 -68 28 -69 116c0 1 -4 3 -6 0c-49 -82 -83 -109 -117 -109c-40 0 -67 51 -76 71c-1 4 -6 -3 -6 -5c-2 -16 -8 -150 -4 -180
c8 -45 31 -82 68 -105c3 -2 2 -10 1 -15c-3 -7 -19 -17 -29 -22c-8 -4 -18 -7 -29 -7c-7 0 -18 5 -31 25c-10 18 -12 62 -12 107c0 69 6 200 7 226c1 19 1 34 -1 54c-4 31 -8 176 -7 249c0 4 3 12 9 16c6 3 15 4 22 4z" />
    <glyph glyph-name="trademark" unicode="&#x2122;" horiz-adv-x="387" 
d="M344 601c3 0 38 1 43 1c10 0 13 -8 2 -13c-5 -2 -10 -1 -14 -3c-6 -3 -6 -7 -7 -14c0 -12 1 -50 2 -73c1 -21 2 -22 6 -25l14 -5c15 -6 5 -14 -3 -14h-31c-9 0 -18 -1 -26 -1c-13 0 -18 6 -3 13c11 5 12 7 13 25c2 33 1 69 1 72c0 4 -2 3 -3 1c-8 -15 -30 -64 -39 -85
c-5 -12 -9 -23 -10 -24c-3 -3 -6 -3 -9 0c0 0 -2 4 -8 18c-8 17 -23 51 -37 77c-1 4 -3 3 -4 0c0 -24 -2 -41 -2 -60c0 -14 5 -15 25 -22c11 -4 6 -15 -4 -15c-13 0 -22 1 -35 1c-11 0 -20 -1 -26 -1c-9 0 -14 9 -4 13c13 6 22 8 24 24c3 20 9 66 9 73c1 6 0 10 -3 15
c-5 7 -6 5 -17 8c-19 5 -12 16 -1 15c14 -1 19 -1 33 -1h9c3 0 6 -3 11 -14c9 -22 28 -56 40 -76c1 -2 3 -4 5 -1c12 24 32 61 42 86c1 3 2 5 7 5zM44 601h90c14 0 20 1 30 6c3 1 8 -1 8 -3c-2 -7 -4 -41 -4 -44c0 -7 -10 -8 -13 -1c-4 8 -6 26 -18 26h-28v-86
c0 -17 -1 -24 9 -27l13 -4c8 -3 6 -14 -1 -14c-9 0 -28 1 -38 1c-20 0 -23 -1 -38 -1c-7 0 -11 9 -2 13c4 2 9 3 12 4c7 3 13 9 13 31v63c0 13 -1 20 -5 20h-22c-17 0 -17 -12 -23 -21c-1 -2 -4 -8 -7 -8c-4 0 -7 2 -7 10c0 2 2 32 2 39c1 2 8 4 11 2c4 -3 7 -5 18 -6z" />
    <glyph glyph-name="Eth" unicode="&#xd0;" horiz-adv-x="755" 
d="M44 349l76 1c4 0 8 7 8 11l-4 166c-2 64 -3 78 -64 87c-12 2 -23 8 -23 15c0 8 8 14 24 14h29c49 0 162 9 248 9c140 0 237 -60 277 -97c54 -52 91 -143 91 -221c0 -146 -90 -250 -160 -289c-59 -34 -141 -56 -238 -56c-41 0 -130 3 -196 8c-19 1 -37 1 -53 1
c-23 0 -32 7 -32 15s9 13 21 15c69 8 77 26 78 105c0 60 2 107 2 167c0 4 -3 11 -6 11l-73 1c-3 0 -13 2 -13 15c0 3 2 22 8 22zM393 313l-176 -2c-3 0 -6 -6 -6 -10c1 -70 1 -160 4 -205c3 -32 10 -44 22 -51c19 -14 60 -26 83 -26c46 0 129 18 186 65
c60 51 103 137 103 250c0 87 -43 180 -107 229c-50 37 -134 58 -208 58c-35 0 -60 -3 -68 -8c-7 -5 -9 -7 -11 -14c-2 -11 -2 -155 -4 -239c0 -4 3 -10 7 -10h172c11 0 16 -5 16 -8c0 -12 -6 -29 -13 -29z" />
    <glyph glyph-name="onehalf" unicode="&#xbd;" horiz-adv-x="679" 
d="M188 618c0 -5 -1 -30 -2 -80c0 -56 1 -135 2 -190c1 -35 8 -35 46 -47c5 -2 15 -5 15 -11s-5 -12 -18 -12c-9 0 -58 2 -80 2c-39 0 -65 -2 -73 -2c-7 0 -19 4 -19 10c0 8 5 12 27 17c27 6 34 13 36 32c3 21 5 77 5 141c0 39 -1 59 -2 71c0 5 -5 13 -11 15
c-11 4 -21 8 -32 11c-7 2 -18 6 -18 12c0 7 9 9 17 10c43 3 90 24 97 28c4 3 10 2 10 -7zM537 643c13 0 25 -10 18 -21c-151 -239 -369 -591 -411 -650c-1 -2 -7 -4 -12 0c-8 6 -14 17 -8 27c135 214 367 587 397 632c6 10 13 12 16 12zM519 345c57 0 100 -46 100 -100
c0 -27 -12 -57 -43 -90c-31 -34 -58 -60 -93 -93c-5 -5 1 -8 3 -8c27 0 109 -1 114 0c7 0 18 6 36 29c4 5 10 11 16 11c7 0 8 -14 4 -23c-14 -28 -22 -62 -23 -67c-2 -5 -4 -6 -8 -6c-3 0 -114 3 -142 2l-61 -1c-9 0 -18 5 -18 9s3 10 8 14c26 23 68 66 98 101
c30 36 44 71 44 111c0 37 -26 57 -58 57c-28 0 -54 -15 -68 -31c-7 -6 -13 -10 -18 -10c-4 0 -7 5 -7 8c0 5 0 12 9 23c23 32 61 64 107 64z" />
    <glyph glyph-name="plusminus" unicode="&#xb1;" horiz-adv-x="624" 
d="M283 545c0 8 30 15 44 15s15 -2 15 -20v-189c0 -10 3 -12 11 -12h195c13 0 15 -3 15 -12c0 -25 -8 -41 -14 -41h-197c-6 0 -10 -7 -10 -13v-190c0 -16 -31 -21 -47 -21c-7 0 -12 2 -12 15v192c0 15 -4 17 -16 17h-187c-17 0 -20 1 -20 15s7 38 15 38h195c6 0 13 6 13 12
v194zM548 4c13 0 15 -3 15 -12c0 -25 -8 -42 -14 -42h-468c-18 0 -21 1 -21 15s7 39 15 39h473z" />
    <glyph glyph-name="Thorn" unicode="&#xde;" horiz-adv-x="549" 
d="M123 139c3 41 4 289 4 395c0 74 -12 69 -57 83c-13 4 -20 8 -20 16s12 12 24 12c27 0 70 -2 95 -2c23 0 67 2 100 2c15 0 25 -3 25 -13c0 -6 -10 -13 -26 -17c-55 -13 -57 -12 -57 -96c0 -5 5 -9 7 -9c10 0 48 3 83 3c99 0 208 -46 208 -178c0 -120 -97 -190 -211 -190
c-31 0 -57 3 -79 11c-5 1 -8 -1 -8 -5c0 -93 8 -101 27 -109c16 -6 35 -11 51 -14c9 -1 23 -8 23 -16c0 -10 -11 -15 -32 -15c-22 0 -71 3 -116 3c-35 0 -75 -3 -104 -3c-10 0 -23 3 -23 13c0 8 8 14 22 18c58 16 59 18 64 111zM420 327c0 117 -82 154 -157 154
c-28 0 -44 -8 -47 -15c-2 -7 -5 -7 -5 -33v-227c0 -7 6 -16 10 -17c14 -4 33 -8 53 -8c68 0 146 51 146 146z" />
    <glyph glyph-name="onequarter" unicode="&#xbc;" horiz-adv-x="657" 
d="M188 618c0 -5 -1 -30 -2 -80c0 -56 1 -135 2 -190c1 -35 8 -35 46 -47c5 -2 15 -5 15 -11s-5 -12 -18 -12c-9 0 -58 2 -80 2c-39 0 -65 -2 -73 -2c-7 0 -19 4 -19 10c0 8 5 12 27 17c27 6 34 13 36 32c3 21 5 77 5 141c0 39 -1 59 -2 71c0 5 -5 13 -11 15
c-11 4 -21 8 -32 11c-7 2 -18 6 -18 12c0 7 9 9 17 10c43 3 90 24 97 28c4 3 10 2 10 -7zM556 643c13 0 25 -10 18 -21c-151 -239 -369 -591 -411 -650c-1 -2 -7 -4 -12 0c-8 6 -14 17 -8 27c135 214 367 587 397 632c6 10 13 12 16 12zM581 350c3 0 8 -4 8 -11
c0 -4 1 -150 1 -189c0 -2 1 -7 5 -7l56 2c3 0 5 -3 5 -9c0 -7 -5 -27 -10 -28l-51 1c-1 0 -4 -3 -4 -8c0 -25 2 -77 1 -94c0 -8 -3 -11 -9 -13c-5 -2 -41 -5 -45 -5c-3 0 -9 4 -9 10c0 9 -1 67 1 104c0 3 -3 6 -6 6c-6 0 -117 -2 -146 -4c-4 0 -7 7 -7 12c0 4 13 15 17 20
c24 28 133 152 153 185c8 11 28 28 40 28zM531 147c0 22 4 76 4 121c0 3 -5 3 -6 2c-28 -33 -67 -76 -99 -119c-3 -4 0 -8 3 -8l90 -1c6 0 8 3 8 5z" />
    <glyph glyph-name="divide" unicode="&#xf7;" horiz-adv-x="624" 
d="M311 139c29 0 51 -25 51 -51c0 -31 -22 -55 -51 -55c-30 0 -53 24 -53 55c0 26 23 51 53 51zM311 364c-26 0 -51 24 -51 52c0 29 25 54 51 54c31 0 53 -25 53 -54c0 -28 -22 -52 -53 -52zM548 280c13 0 15 -2 15 -12c0 -24 -8 -40 -14 -40h-468c-18 0 -21 1 -21 15
c0 13 7 37 15 37h473z" />
    <glyph glyph-name="brokenbar" unicode="&#xa6;" horiz-adv-x="259" 
d="M99 -173v346h61v-346h-61zM99 668h61v-346h-61v346z" />
    <glyph glyph-name="degree" unicode="&#xb0;" horiz-adv-x="282" 
d="M145 636c58 0 111 -42 111 -115c0 -74 -56 -116 -115 -116c-63 0 -116 41 -116 116c0 69 58 115 120 115zM138 601c-39 0 -66 -35 -66 -80c0 -49 33 -80 76 -80c33 0 62 31 62 80c0 45 -29 80 -72 80z" />
    <glyph glyph-name="thorn" unicode="&#xfe;" horiz-adv-x="478" 
d="M71 75c0 68 1 147 0 206c0 43 -1 260 -4 333c0 14 -4 19 -5 20c-25 19 -41 26 -41 32c0 4 15 15 19 16c15 5 58 13 76 23c10 5 18 9 21 9c4 0 12 -7 12 -12c-3 -22 -3 -248 -4 -335c0 -4 5 -7 8 -5c23 13 49 23 65 29c17 6 41 10 69 10c37 0 82 -22 112 -55
c24 -27 48 -76 48 -131c0 -50 -22 -124 -86 -172c-55 -43 -109 -50 -154 -50c-22 0 -41 1 -53 3c-3 0 -10 -8 -10 -13c0 -97 0 -138 3 -166c3 -26 10 -39 47 -51c20 -5 29 -10 29 -17c0 -8 -14 -13 -26 -13c-22 0 -81 5 -119 5c-24 0 -34 -2 -65 -2c-15 0 -29 4 -29 14
c0 4 8 12 24 15c54 13 56 18 60 90c2 33 3 115 3 217zM236 353c-42 0 -66 -5 -77 -13c-5 -4 -10 -12 -12 -30c-5 -30 -6 -140 -3 -182c2 -18 6 -35 12 -44c27 -38 74 -59 99 -59c11 0 32 5 45 17c51 42 67 117 67 146c0 22 0 76 -41 121c-26 27 -68 44 -90 44z" />
    <glyph glyph-name="threequarters" unicode="&#xbe;" horiz-adv-x="634" 
d="M148 627c52 0 80 -38 80 -67c0 -32 -20 -51 -51 -71c-2 -1 -2 -5 1 -6c51 -6 81 -33 81 -77c0 -50 -36 -96 -92 -123c-27 -14 -61 -17 -73 -17c-23 0 -59 17 -59 35c0 14 14 27 22 30c5 2 7 2 11 -2c21 -18 49 -28 72 -28c34 0 63 42 63 73c0 38 -21 73 -66 73
c-15 0 -21 -3 -39 -7c-4 -1 -10 0 -10 2c0 5 0 6 2 10c7 12 11 16 26 22c42 18 55 28 55 63c0 22 -21 47 -46 47c-22 0 -43 -14 -59 -27c-13 -12 -20 -11 -20 -3c0 4 1 9 3 13c17 28 51 60 99 60zM535 643c13 0 25 -10 18 -21c-151 -239 -369 -591 -411 -650
c-1 -2 -7 -4 -12 0c-8 6 -14 17 -8 27c135 214 367 587 397 632c6 10 13 12 16 12zM557 350c3 0 8 -4 8 -11c0 -4 1 -150 1 -189c0 -2 1 -7 5 -7l56 2c3 0 5 -3 5 -9c0 -7 -5 -27 -10 -28l-51 1c-1 0 -4 -3 -4 -8c0 -25 2 -77 1 -94c0 -8 -3 -11 -9 -13c-5 -2 -41 -5 -45 -5
c-3 0 -9 4 -9 10c0 9 -1 67 1 104c0 3 -3 6 -6 6c-6 0 -117 -2 -146 -4c-4 0 -7 7 -7 12c0 4 13 15 17 20c24 28 133 152 153 185c8 11 28 28 40 28zM507 147c0 22 4 76 4 121c0 3 -5 3 -6 2c-28 -33 -67 -76 -99 -119c-3 -4 0 -8 3 -8l90 -1c6 0 8 3 8 5z" />
    <glyph glyph-name="registered" unicode="&#xae;" horiz-adv-x="233" 
d="M127 644c63 0 110 -48 110 -110c0 -52 -40 -113 -112 -113c-62 0 -109 49 -109 113c0 58 47 110 111 110zM127 626c-51 1 -89 -39 -89 -92s38 -93 89 -93c52 0 88 40 88 93s-41 92 -88 92zM92 508v51c0 15 -3 15 -11 18c-11 5 -5 9 -1 10c21 2 32 3 49 3
c26 0 43 -12 43 -30c0 -15 -14 -19 -18 -21c-1 -1 -2 -2 -1 -4c17 -32 26 -41 32 -45c4 -2 6 -5 6 -6c0 -2 -5 -5 -14 -5c-11 0 -21 5 -27 15c-5 8 -13 20 -17 29c-1 3 -4 4 -9 4c-7 0 -7 -1 -7 -4v-11c0 -15 1 -15 16 -21c6 -3 5 -9 0 -9h-53c-4 0 -7 6 -2 8
c10 4 14 8 14 18zM117 574v-30c0 -4 0 -4 9 -4c15 0 19 6 19 18c0 10 -7 20 -18 20c-8 0 -10 -1 -10 -4z" />
    <glyph glyph-name="minus" unicode="&#x2212;" horiz-adv-x="624" 
d="M556 281c4 0 7 -7 7 -12c0 -25 -8 -41 -14 -41h-477c-7 0 -12 9 -12 15c0 13 7 38 15 38h481z" />
    <glyph glyph-name="eth" unicode="&#xf0;" horiz-adv-x="480" 
d="M64 700c0 7 8 14 19 14c60 0 155 -49 215 -100c3 -3 10 -3 13 -1c37 19 67 36 101 53c3 2 10 -1 10 -7c1 -8 1 -15 -1 -21s-6 -10 -13 -14c-23 -12 -45 -23 -71 -38c-3 -2 -4 -7 -1 -10c73 -90 103 -199 103 -318c0 -137 -54 -202 -95 -233c-34 -25 -69 -37 -107 -37
c-113 0 -205 84 -205 208c0 59 24 98 35 115c35 52 108 94 193 94c17 0 55 -7 76 -16c5 -2 11 1 10 6c-7 37 -25 97 -64 149c-3 4 -9 6 -13 4c-28 -13 -93 -43 -129 -61c-5 -3 -12 1 -12 6c-1 7 -1 12 0 17c2 5 5 7 8 9c37 21 73 38 108 56c3 2 4 6 3 8
c-50 51 -117 90 -166 103c-5 1 -17 6 -17 14zM241 371c-24 0 -60 -5 -88 -47c-18 -26 -35 -56 -35 -126c0 -76 51 -178 135 -178c31 0 53 16 78 59c20 37 30 98 30 143c0 56 -14 87 -28 103c-27 28 -63 46 -92 46z" />
    <glyph glyph-name="multiply" unicode="&#xd7;" horiz-adv-x="624" 
d="M93 427c-6 5 12 25 22 35c8 9 15 12 28 -1l161 -162c9 -8 11 -7 18 -1l164 169c8 9 13 8 18 2c19 -18 22 -33 18 -37l-166 -170c-5 -5 -2 -16 2 -20l167 -166c12 -13 -5 -35 -16 -46c-5 -5 -11 -7 -20 2l-171 172c-11 10 -14 10 -23 0l-157 -159c-13 -12 -17 -13 -26 -5
c-10 9 -20 31 -15 37l164 165c4 4 6 12 0 17z" />
    <glyph glyph-name="copyright" unicode="&#xa9;" horiz-adv-x="692" 
d="M347 628c176 0 305 -139 305 -309s-135 -310 -305 -310c-179 0 -307 140 -307 310s136 309 307 309zM347 598c-153 0 -270 -122 -270 -278c0 -155 129 -281 270 -281c150 0 268 122 268 281c0 156 -123 278 -268 278zM364 493c30 0 49 -3 61 -6c12 -2 36 -9 49 -12
c3 -1 8 -9 9 -23s1 -30 1 -44c0 -11 -4 -18 -11 -18c-5 0 -11 10 -13 16c-10 35 -49 62 -90 62c-72 0 -124 -55 -124 -134c0 -119 77 -155 128 -155c57 0 77 32 92 56c9 13 14 20 22 20c4 0 5 -7 5 -13c-1 -13 -9 -44 -14 -54c-3 -8 -18 -20 -23 -22c-17 -7 -46 -17 -90 -17
c-71 0 -124 34 -146 59c-20 22 -45 60 -45 114c0 66 37 107 60 125c43 37 99 46 129 46z" />
    <glyph glyph-name="Aacute" unicode="&#xc1;" horiz-adv-x="676" 
d="M353 661c4 0 8 -4 16 -26c8 -27 25 -72 44 -124c52 -146 127 -344 144 -385c33 -82 49 -90 94 -101c16 -5 24 -10 24 -17s-7 -13 -32 -13c-33 0 -82 5 -126 5c-32 0 -46 -2 -71 -2s-31 7 -31 12s6 13 24 16c48 10 44 30 40 51c-8 41 -33 107 -56 171c-1 4 -5 10 -34 10
c-55 0 -143 -1 -164 -4c-4 0 -9 -5 -11 -8c-26 -65 -52 -150 -52 -175c0 -12 4 -29 49 -43c17 -5 27 -11 27 -18c0 -10 -15 -13 -28 -13c-17 0 -42 3 -79 3s-89 -5 -104 -5c-18 0 -23 4 -23 10s7 15 22 20c50 17 63 20 92 85c23 51 137 353 179 455c6 14 7 20 9 26
c1 3 3 9 7 17l24 40c7 8 11 13 16 13zM398 303c1 0 4 5 3 8c-17 51 -69 201 -78 215c-3 6 -5 7 -8 0c-18 -48 -70 -188 -78 -219c-1 -4 1 -7 5 -7c40 1 123 0 156 3zM437 830c13 11 26 7 32 6c9 -6 31 -22 31 -36c0 -8 -11 -22 -22 -28c-45 -30 -99 -59 -146 -80
c-8 -4 -26 -10 -36 0c-2 0 -4 12 12 27c32 30 87 79 129 111z" />
    <glyph glyph-name="Acircumflex" unicode="&#xc2;" horiz-adv-x="676" 
d="M353 661c4 0 8 -4 16 -26c8 -27 25 -72 44 -124c52 -146 127 -344 144 -385c33 -82 49 -90 94 -101c16 -5 24 -10 24 -17s-7 -13 -32 -13c-33 0 -82 5 -126 5c-32 0 -46 -2 -71 -2s-31 7 -31 12s6 13 24 16c48 10 44 30 40 51c-8 41 -33 107 -56 171c-1 4 -5 10 -34 10
c-55 0 -143 -1 -164 -4c-4 0 -9 -5 -11 -8c-26 -65 -52 -150 -52 -175c0 -12 4 -29 49 -43c17 -5 27 -11 27 -18c0 -10 -15 -13 -28 -13c-17 0 -42 3 -79 3s-89 -5 -104 -5c-18 0 -23 4 -23 10s7 15 22 20c50 17 63 20 92 85c23 51 137 353 179 455c6 14 7 20 9 26
c1 3 3 9 7 17l24 40c7 8 11 13 16 13zM398 303c1 0 4 5 3 8c-17 51 -69 201 -78 215c-3 6 -5 7 -8 0c-18 -48 -70 -188 -78 -219c-1 -4 1 -7 5 -7c40 1 123 0 156 3zM351 807c9 0 23 -10 41 -25c15 -14 51 -44 90 -77c16 -10 20 -29 2 -29c-8 0 -23 6 -30 9
c-34 15 -66 32 -98 47c-7 4 -13 1 -18 -1c-27 -12 -64 -30 -94 -45c-8 -2 -22 -10 -30 -10c-19 0 -20 10 1 30c25 18 68 58 96 79c15 12 29 22 40 22z" />
    <glyph glyph-name="Adieresis" unicode="&#xc4;" horiz-adv-x="676" 
d="M353 661c4 0 8 -4 16 -26c8 -27 25 -72 44 -124c52 -146 127 -344 144 -385c33 -82 49 -90 94 -101c16 -5 24 -10 24 -17s-7 -13 -32 -13c-33 0 -82 5 -126 5c-32 0 -46 -2 -71 -2s-31 7 -31 12s6 13 24 16c48 10 44 30 40 51c-8 41 -33 107 -56 171c-1 4 -5 10 -34 10
c-55 0 -143 -1 -164 -4c-4 0 -9 -5 -11 -8c-26 -65 -52 -150 -52 -175c0 -12 4 -29 49 -43c17 -5 27 -11 27 -18c0 -10 -15 -13 -28 -13c-17 0 -42 3 -79 3s-89 -5 -104 -5c-18 0 -23 4 -23 10s7 15 22 20c50 17 63 20 92 85c23 51 137 353 179 455c6 14 7 20 9 26
c1 3 3 9 7 17l24 40c7 8 11 13 16 13zM398 303c1 0 4 5 3 8c-17 51 -69 201 -78 215c-3 6 -5 7 -8 0c-18 -48 -70 -188 -78 -219c-1 -4 1 -7 5 -7c40 1 123 0 156 3zM249 778c24 0 44 -23 44 -48c0 -30 -23 -44 -48 -44c-18 0 -41 15 -41 46c0 24 19 46 45 46zM450 777
c23 0 42 -23 42 -47s-21 -44 -45 -44c-21 0 -43 17 -43 44c0 28 21 47 46 47z" />
    <glyph glyph-name="Agrave" unicode="&#xc0;" horiz-adv-x="676" 
d="M353 661c4 0 8 -4 16 -26c8 -27 25 -72 44 -124c52 -146 127 -344 144 -385c33 -82 49 -90 94 -101c16 -5 24 -10 24 -17s-7 -13 -32 -13c-33 0 -82 5 -126 5c-32 0 -46 -2 -71 -2s-31 7 -31 12s6 13 24 16c48 10 44 30 40 51c-8 41 -33 107 -56 171c-1 4 -5 10 -34 10
c-55 0 -143 -1 -164 -4c-4 0 -9 -5 -11 -8c-26 -65 -52 -150 -52 -175c0 -12 4 -29 49 -43c17 -5 27 -11 27 -18c0 -10 -15 -13 -28 -13c-17 0 -42 3 -79 3s-89 -5 -104 -5c-18 0 -23 4 -23 10s7 15 22 20c50 17 63 20 92 85c23 51 137 353 179 455c6 14 7 20 9 26
c1 3 3 9 7 17l24 40c7 8 11 13 16 13zM398 303c1 0 4 5 3 8c-17 51 -69 201 -78 215c-3 6 -5 7 -8 0c-18 -48 -70 -188 -78 -219c-1 -4 1 -7 5 -7c40 1 123 0 156 3zM242 834c8 0 13 -5 40 -28c22 -21 64 -58 94 -89c8 -8 15 -19 10 -25c-5 -8 -23 -7 -36 -1
c-39 19 -117 68 -133 79c-13 8 -21 15 -21 24s8 16 19 25c7 6 23 15 27 15z" />
    <glyph glyph-name="Aring" unicode="&#xc5;" horiz-adv-x="676" 
d="M353 661c4 0 8 -4 16 -26c8 -27 25 -72 44 -124c52 -146 127 -344 144 -385c33 -82 49 -90 94 -101c16 -5 24 -10 24 -17s-7 -13 -32 -13c-33 0 -82 5 -126 5c-32 0 -46 -2 -71 -2s-31 7 -31 12s6 13 24 16c48 10 44 30 40 51c-8 41 -33 107 -56 171c-1 4 -5 10 -34 10
c-55 0 -143 -1 -164 -4c-4 0 -9 -5 -11 -8c-26 -65 -52 -150 -52 -175c0 -12 4 -29 49 -43c17 -5 27 -11 27 -18c0 -10 -15 -13 -28 -13c-17 0 -42 3 -79 3s-89 -5 -104 -5c-18 0 -23 4 -23 10s7 15 22 20c50 17 63 20 92 85c23 51 137 353 179 455c6 14 7 20 9 26
c1 3 3 9 7 17l24 40c7 8 11 13 16 13zM398 303c1 0 4 5 3 8c-17 51 -69 201 -78 215c-3 6 -5 7 -8 0c-18 -48 -70 -188 -78 -219c-1 -4 1 -7 5 -7c40 1 123 0 156 3zM348 853c52 0 85 -40 85 -85s-33 -85 -85 -85s-85 40 -85 85s33 85 85 85zM348 822c-26 0 -46 -23 -46 -54
c0 -35 21 -54 46 -54c26 0 46 18 46 56c0 29 -20 52 -46 52z" />
    <glyph glyph-name="Atilde" unicode="&#xc3;" horiz-adv-x="676" 
d="M353 661c4 0 8 -4 16 -26c8 -27 25 -72 44 -124c52 -146 127 -344 144 -385c33 -82 49 -90 94 -101c16 -5 24 -10 24 -17s-7 -13 -32 -13c-33 0 -82 5 -126 5c-32 0 -46 -2 -71 -2s-31 7 -31 12s6 13 24 16c48 10 44 30 40 51c-8 41 -33 107 -56 171c-1 4 -5 10 -34 10
c-55 0 -143 -1 -164 -4c-4 0 -9 -5 -11 -8c-26 -65 -52 -150 -52 -175c0 -12 4 -29 49 -43c17 -5 27 -11 27 -18c0 -10 -15 -13 -28 -13c-17 0 -42 3 -79 3s-89 -5 -104 -5c-18 0 -23 4 -23 10s7 15 22 20c50 17 63 20 92 85c23 51 137 353 179 455c6 14 7 20 9 26
c1 3 3 9 7 17l24 40c7 8 11 13 16 13zM398 303c1 0 4 5 3 8c-17 51 -69 201 -78 215c-3 6 -5 7 -8 0c-18 -48 -70 -188 -78 -219c-1 -4 1 -7 5 -7c40 1 123 0 156 3zM218 715c10 15 27 42 36 52c5 6 13 10 28 10c61 0 131 -2 155 4c20 6 30 27 35 32c3 4 5 8 10 8
s14 -10 16 -15c2 -4 1 -12 -3 -16c-13 -14 -46 -60 -56 -69c-7 -7 -10 -7 -16 -7c-29 0 -145 2 -160 -2c-8 -2 -19 -13 -32 -30c-3 -5 -7 -8 -9 -8c-12 0 -16 11 -16 15c0 3 2 10 12 26z" />
    <glyph glyph-name="Ccedilla" unicode="&#xc7;" horiz-adv-x="717" 
d="M431 661c35 0 80 -7 118 -16c26 -4 61 -17 76 -19c5 0 15 -7 15 -30c0 -21 5 -65 7 -87c1 -21 -7 -33 -15 -33c-5 0 -11 11 -16 26c-9 35 -28 65 -41 75c-55 41 -106 52 -160 52c-161 0 -264 -133 -264 -284c0 -67 13 -121 35 -165c57 -114 172 -160 253 -160
c19 0 68 4 110 27c43 23 68 55 92 97c13 21 15 25 22 25c10 0 10 -21 8 -32c-3 -25 -26 -77 -39 -101c-5 -10 -21 -21 -32 -26c-15 -7 -84 -24 -161 -27l-26 -35c-2 -5 0 -9 7 -13c35 -18 67 -34 67 -79c0 -35 -29 -68 -52 -87c-34 -26 -54 -33 -73 -33c-9 0 -18 4 -25 15
c-6 10 -4 24 0 31c5 8 8 10 14 9c16 -3 34 -7 42 -7c26 0 39 21 39 41c0 29 -31 50 -61 50c-5 0 -10 0 -18 -1c-4 0 -15 10 -15 15c0 4 0 6 7 14c17 24 43 55 62 79c-135 4 -234 71 -273 117c-38 44 -84 116 -84 230s68 205 110 240c86 70 179 92 271 92z" />
    <glyph glyph-name="Eacute" unicode="&#xc9;" horiz-adv-x="563" 
d="M223 643h147c33 0 77 1 92 3c3 1 8 -6 9 -11c0 -46 2 -75 2 -95c0 -14 -6 -26 -15 -26s-14 14 -16 24c-13 53 -35 63 -67 68c-26 4 -98 6 -142 4c-2 0 -13 -5 -15 -28c-2 -25 -5 -213 -3 -228c1 -4 2 -10 7 -10h65c94 0 98 4 116 50c6 15 12 21 18 21c7 0 9 -14 8 -22
c-2 -28 -3 -48 -3 -72c0 -27 2 -41 3 -61c1 -18 -4 -29 -11 -29s-14 11 -17 22c-14 46 -18 49 -79 52c-32 2 -72 2 -99 2c-4 0 -9 -7 -9 -9c-4 -21 -3 -114 -3 -157c0 -29 4 -67 10 -83c4 -12 12 -20 19 -22c17 -3 51 -7 91 -7c12 0 73 1 95 7c32 8 59 27 83 74
c11 22 17 28 23 28c7 0 10 -16 8 -27c-1 -8 -29 -98 -36 -107c-3 -4 -12 -12 -17 -12c-11 0 -162 8 -325 8c-53 0 -75 -5 -113 -5c-19 0 -30 2 -30 13c0 7 12 12 28 16c50 12 69 19 73 73c3 42 8 160 8 284c0 119 1 140 -1 169c-2 44 -12 56 -56 66c-21 5 -29 9 -29 17
c0 9 14 14 28 14c47 0 86 -4 153 -4zM368 828c13 11 26 7 32 6c9 -6 31 -22 31 -36c0 -8 -11 -22 -22 -28c-45 -30 -99 -59 -146 -80c-8 -4 -26 -10 -36 0c-2 0 -4 12 12 27c32 30 87 79 129 111z" />
    <glyph glyph-name="Ecircumflex" unicode="&#xca;" horiz-adv-x="563" 
d="M223 643h147c33 0 77 1 92 3c3 1 8 -6 9 -11c0 -46 2 -75 2 -95c0 -14 -6 -26 -15 -26s-14 14 -16 24c-13 53 -35 63 -67 68c-26 4 -98 6 -142 4c-2 0 -13 -5 -15 -28c-2 -25 -5 -213 -3 -228c1 -4 2 -10 7 -10h65c94 0 98 4 116 50c6 15 12 21 18 21c7 0 9 -14 8 -22
c-2 -28 -3 -48 -3 -72c0 -27 2 -41 3 -61c1 -18 -4 -29 -11 -29s-14 11 -17 22c-14 46 -18 49 -79 52c-32 2 -72 2 -99 2c-4 0 -9 -7 -9 -9c-4 -21 -3 -114 -3 -157c0 -29 4 -67 10 -83c4 -12 12 -20 19 -22c17 -3 51 -7 91 -7c12 0 73 1 95 7c32 8 59 27 83 74
c11 22 17 28 23 28c7 0 10 -16 8 -27c-1 -8 -29 -98 -36 -107c-3 -4 -12 -12 -17 -12c-11 0 -162 8 -325 8c-53 0 -75 -5 -113 -5c-19 0 -30 2 -30 13c0 7 12 12 28 16c50 12 69 19 73 73c3 42 8 160 8 284c0 119 1 140 -1 169c-2 44 -12 56 -56 66c-21 5 -29 9 -29 17
c0 9 14 14 28 14c47 0 86 -4 153 -4zM288 820c9 0 23 -10 41 -25c15 -14 51 -44 90 -77c16 -10 20 -29 2 -29c-8 0 -23 6 -30 9c-34 15 -66 32 -98 47c-7 4 -13 1 -18 -1c-27 -12 -64 -30 -94 -45c-8 -2 -22 -10 -30 -10c-19 0 -20 10 1 30c25 18 68 58 96 79
c15 12 29 22 40 22z" />
    <glyph glyph-name="Edieresis" unicode="&#xcb;" horiz-adv-x="563" 
d="M223 643h147c33 0 77 1 92 3c3 1 8 -6 9 -11c0 -46 2 -75 2 -95c0 -14 -6 -26 -15 -26s-14 14 -16 24c-13 53 -35 63 -67 68c-26 4 -98 6 -142 4c-2 0 -13 -5 -15 -28c-2 -25 -5 -213 -3 -228c1 -4 2 -10 7 -10h65c94 0 98 4 116 50c6 15 12 21 18 21c7 0 9 -14 8 -22
c-2 -28 -3 -48 -3 -72c0 -27 2 -41 3 -61c1 -18 -4 -29 -11 -29s-14 11 -17 22c-14 46 -18 49 -79 52c-32 2 -72 2 -99 2c-4 0 -9 -7 -9 -9c-4 -21 -3 -114 -3 -157c0 -29 4 -67 10 -83c4 -12 12 -20 19 -22c17 -3 51 -7 91 -7c12 0 73 1 95 7c32 8 59 27 83 74
c11 22 17 28 23 28c7 0 10 -16 8 -27c-1 -8 -29 -98 -36 -107c-3 -4 -12 -12 -17 -12c-11 0 -162 8 -325 8c-53 0 -75 -5 -113 -5c-19 0 -30 2 -30 13c0 7 12 12 28 16c50 12 69 19 73 73c3 42 8 160 8 284c0 119 1 140 -1 169c-2 44 -12 56 -56 66c-21 5 -29 9 -29 17
c0 9 14 14 28 14c47 0 86 -4 153 -4zM185 790c24 0 44 -23 44 -48c0 -30 -23 -44 -48 -44c-18 0 -41 15 -41 46c0 24 19 46 45 46zM386 789c23 0 42 -23 42 -47s-21 -44 -45 -44c-21 0 -43 17 -43 44c0 28 21 47 46 47z" />
    <glyph glyph-name="Egrave" unicode="&#xc8;" horiz-adv-x="563" 
d="M223 643h147c33 0 77 1 92 3c3 1 8 -6 9 -11c0 -46 2 -75 2 -95c0 -14 -6 -26 -15 -26s-14 14 -16 24c-13 53 -35 63 -67 68c-26 4 -98 6 -142 4c-2 0 -13 -5 -15 -28c-2 -25 -5 -213 -3 -228c1 -4 2 -10 7 -10h65c94 0 98 4 116 50c6 15 12 21 18 21c7 0 9 -14 8 -22
c-2 -28 -3 -48 -3 -72c0 -27 2 -41 3 -61c1 -18 -4 -29 -11 -29s-14 11 -17 22c-14 46 -18 49 -79 52c-32 2 -72 2 -99 2c-4 0 -9 -7 -9 -9c-4 -21 -3 -114 -3 -157c0 -29 4 -67 10 -83c4 -12 12 -20 19 -22c17 -3 51 -7 91 -7c12 0 73 1 95 7c32 8 59 27 83 74
c11 22 17 28 23 28c7 0 10 -16 8 -27c-1 -8 -29 -98 -36 -107c-3 -4 -12 -12 -17 -12c-11 0 -162 8 -325 8c-53 0 -75 -5 -113 -5c-19 0 -30 2 -30 13c0 7 12 12 28 16c50 12 69 19 73 73c3 42 8 160 8 284c0 119 1 140 -1 169c-2 44 -12 56 -56 66c-21 5 -29 9 -29 17
c0 9 14 14 28 14c47 0 86 -4 153 -4zM194 841c8 0 13 -5 40 -28c22 -21 64 -58 94 -89c8 -8 15 -19 10 -25c-5 -8 -23 -7 -36 -1c-39 19 -117 68 -133 79c-13 8 -21 15 -21 24s8 16 19 25c7 6 23 15 27 15z" />
    <glyph glyph-name="Iacute" unicode="&#xcd;" horiz-adv-x="339" 
d="M128 326c0 62 -1 186 -3 219c-3 46 -3 61 -59 71c-22 4 -28 11 -28 18c0 8 11 12 25 12c26 0 76 -3 109 -3c49 0 72 3 107 3c16 0 25 -4 25 -12s-10 -14 -26 -17c-58 -12 -57 -37 -61 -64c-5 -33 -6 -98 -6 -294c0 -55 1 -117 3 -149c3 -54 8 -73 73 -86
c18 -3 26 -10 26 -17c0 -8 -15 -13 -27 -13c-51 0 -122 6 -149 6c-30 0 -39 -2 -76 -2c-19 0 -26 7 -26 14s10 13 30 17c50 11 54 26 58 73c3 35 5 139 5 224zM258 838c13 11 26 7 32 6c9 -6 31 -22 31 -36c0 -8 -11 -22 -22 -28c-45 -30 -99 -59 -146 -80
c-8 -4 -26 -10 -36 0c-2 0 -4 12 12 27c32 30 87 79 129 111z" />
    <glyph glyph-name="Icircumflex" unicode="&#xce;" horiz-adv-x="339" 
d="M128 326c0 62 -1 186 -3 219c-3 46 -3 61 -59 71c-22 4 -28 11 -28 18c0 8 11 12 25 12c26 0 76 -3 109 -3c49 0 72 3 107 3c16 0 25 -4 25 -12s-10 -14 -26 -17c-58 -12 -57 -37 -61 -64c-5 -33 -6 -98 -6 -294c0 -55 1 -117 3 -149c3 -54 8 -73 73 -86
c18 -3 26 -10 26 -17c0 -8 -15 -13 -27 -13c-51 0 -122 6 -149 6c-30 0 -39 -2 -76 -2c-19 0 -26 7 -26 14s10 13 30 17c50 11 54 26 58 73c3 35 5 139 5 224zM178 827c9 0 23 -10 41 -25c15 -14 51 -44 90 -77c16 -10 20 -29 2 -29c-8 0 -23 6 -30 9c-34 15 -66 32 -98 47
c-7 4 -13 1 -18 -1c-27 -12 -64 -30 -94 -45c-8 -2 -22 -10 -30 -10c-19 0 -20 10 1 30c25 18 68 58 96 79c15 12 29 22 40 22z" />
    <glyph glyph-name="Idieresis" unicode="&#xcf;" horiz-adv-x="339" 
d="M128 326c0 62 -1 186 -3 219c-3 46 -3 61 -59 71c-22 4 -28 11 -28 18c0 8 11 12 25 12c26 0 76 -3 109 -3c49 0 72 3 107 3c16 0 25 -4 25 -12s-10 -14 -26 -17c-58 -12 -57 -37 -61 -64c-5 -33 -6 -98 -6 -294c0 -55 1 -117 3 -149c3 -54 8 -73 73 -86
c18 -3 26 -10 26 -17c0 -8 -15 -13 -27 -13c-51 0 -122 6 -149 6c-30 0 -39 -2 -76 -2c-19 0 -26 7 -26 14s10 13 30 17c50 11 54 26 58 73c3 35 5 139 5 224zM73 790c24 0 44 -23 44 -48c0 -30 -23 -44 -48 -44c-18 0 -41 15 -41 46c0 24 19 46 45 46zM274 789
c23 0 42 -23 42 -47s-21 -44 -45 -44c-21 0 -43 17 -43 44c0 28 21 47 46 47z" />
    <glyph glyph-name="Igrave" unicode="&#xcc;" horiz-adv-x="339" 
d="M128 326c0 62 -1 186 -3 219c-3 46 -3 61 -59 71c-22 4 -28 11 -28 18c0 8 11 12 25 12c26 0 76 -3 109 -3c49 0 72 3 107 3c16 0 25 -4 25 -12s-10 -14 -26 -17c-58 -12 -57 -37 -61 -64c-5 -33 -6 -98 -6 -294c0 -55 1 -117 3 -149c3 -54 8 -73 73 -86
c18 -3 26 -10 26 -17c0 -8 -15 -13 -27 -13c-51 0 -122 6 -149 6c-30 0 -39 -2 -76 -2c-19 0 -26 7 -26 14s10 13 30 17c50 11 54 26 58 73c3 35 5 139 5 224zM81 844c8 0 13 -5 40 -28c22 -21 64 -58 94 -89c8 -8 15 -19 10 -25c-5 -8 -23 -7 -36 -1
c-39 19 -117 68 -133 79c-13 8 -21 15 -21 24s8 16 19 25c7 6 23 15 27 15z" />
    <glyph glyph-name="Ntilde" unicode="&#xd1;" horiz-adv-x="771" 
d="M15 634c0 8 10 12 33 12c22 0 71 -3 122 -3c6 0 15 -7 21 -13c15 -18 40 -48 79 -99c45 -57 265 -297 332 -370c6 -6 10 4 10 7c5 32 2 140 2 284c0 34 -2 69 -5 100c-1 21 -8 45 -63 61c-20 6 -27 14 -27 22c0 7 14 9 26 9c26 0 54 -1 86 -1c36 0 68 4 94 4
c17 0 23 -3 23 -11c0 -6 -6 -15 -24 -20c-43 -10 -61 -19 -64 -73c-2 -36 -11 -233 -11 -405c0 -42 7 -117 7 -133c0 -10 -5 -21 -14 -21c-14 0 -36 20 -45 32c-17 21 -35 47 -62 80c-94 112 -267 307 -357 415c-4 5 -11 3 -11 -2c-1 -27 -4 -55 -5 -133
c0 -90 -3 -244 -1 -275c4 -46 15 -61 63 -75c21 -5 25 -12 25 -18c0 -10 -13 -13 -32 -13c-29 0 -71 5 -107 5c-22 0 -48 -2 -65 -2c-14 0 -26 1 -26 11c0 8 10 14 20 17c47 16 66 20 70 94c5 81 19 321 19 404c0 36 -5 45 -7 48c-28 33 -39 34 -84 46c-11 3 -22 8 -22 16z
M268 725c10 15 27 42 36 52c5 6 13 10 28 10c61 0 131 -2 155 4c20 6 30 27 35 32c3 4 5 8 10 8s14 -10 16 -15c2 -4 1 -12 -3 -16c-13 -14 -46 -60 -56 -69c-7 -7 -10 -7 -16 -7c-29 0 -145 2 -160 -2c-8 -2 -19 -13 -32 -30c-3 -5 -7 -8 -9 -8c-12 0 -16 11 -16 15
c0 3 2 10 12 26z" />
    <glyph glyph-name="Oacute" unicode="&#xd3;" horiz-adv-x="781" 
d="M385 661c192 0 347 -141 347 -331c0 -140 -69 -238 -142 -290c-63 -44 -146 -58 -197 -58c-102 0 -199 44 -260 114c-53 59 -83 140 -83 226c0 123 54 208 130 269c49 40 135 70 205 70zM363 628c-42 0 -103 -22 -138 -57c-44 -43 -78 -118 -78 -235
c0 -149 110 -320 270 -320c83 0 121 36 132 48c40 36 85 117 85 236c0 109 -47 214 -121 274c-41 33 -104 54 -150 54zM461 847c13 11 26 7 32 6c9 -6 31 -22 31 -36c0 -8 -11 -22 -22 -28c-45 -30 -99 -59 -146 -80c-8 -4 -26 -10 -36 0c-2 0 -4 12 12 27
c32 30 87 79 129 111z" />
    <glyph glyph-name="Ocircumflex" unicode="&#xd4;" horiz-adv-x="781" 
d="M385 661c192 0 347 -141 347 -331c0 -140 -69 -238 -142 -290c-63 -44 -146 -58 -197 -58c-102 0 -199 44 -260 114c-53 59 -83 140 -83 226c0 123 54 208 130 269c49 40 135 70 205 70zM363 628c-42 0 -103 -22 -138 -57c-44 -43 -78 -118 -78 -235
c0 -149 110 -320 270 -320c83 0 121 36 132 48c40 36 85 117 85 236c0 109 -47 214 -121 274c-41 33 -104 54 -150 54zM398 834c9 0 23 -10 41 -25c15 -14 51 -44 90 -77c16 -10 20 -29 2 -29c-8 0 -23 6 -30 9c-34 15 -66 32 -98 47c-7 4 -13 1 -18 -1
c-27 -12 -64 -30 -94 -45c-8 -2 -22 -10 -30 -10c-19 0 -20 10 1 30c25 18 68 58 96 79c15 12 29 22 40 22z" />
    <glyph glyph-name="Odieresis" unicode="&#xd6;" horiz-adv-x="781" 
d="M385 661c192 0 347 -141 347 -331c0 -140 -69 -238 -142 -290c-63 -44 -146 -58 -197 -58c-102 0 -199 44 -260 114c-53 59 -83 140 -83 226c0 123 54 208 130 269c49 40 135 70 205 70zM363 628c-42 0 -103 -22 -138 -57c-44 -43 -78 -118 -78 -235
c0 -149 110 -320 270 -320c83 0 121 36 132 48c40 36 85 117 85 236c0 109 -47 214 -121 274c-41 33 -104 54 -150 54zM294 800c24 0 44 -23 44 -48c0 -30 -23 -44 -48 -44c-18 0 -41 15 -41 46c0 24 19 46 45 46zM495 799c23 0 42 -23 42 -47s-21 -44 -45 -44
c-21 0 -43 17 -43 44c0 28 21 47 46 47z" />
    <glyph glyph-name="Ograve" unicode="&#xd2;" horiz-adv-x="781" 
d="M385 661c192 0 347 -141 347 -331c0 -140 -69 -238 -142 -290c-63 -44 -146 -58 -197 -58c-102 0 -199 44 -260 114c-53 59 -83 140 -83 226c0 123 54 208 130 269c49 40 135 70 205 70zM363 628c-42 0 -103 -22 -138 -57c-44 -43 -78 -118 -78 -235
c0 -149 110 -320 270 -320c83 0 121 36 132 48c40 36 85 117 85 236c0 109 -47 214 -121 274c-41 33 -104 54 -150 54zM314 854c8 0 13 -5 40 -28c22 -21 64 -58 94 -89c8 -8 15 -19 10 -25c-5 -8 -23 -7 -36 -1c-39 19 -117 68 -133 79c-13 8 -21 15 -21 24s8 16 19 25
c7 6 23 15 27 15z" />
    <glyph glyph-name="Otilde" unicode="&#xd5;" horiz-adv-x="781" 
d="M385 661c192 0 347 -141 347 -331c0 -140 -69 -238 -142 -290c-63 -44 -146 -58 -197 -58c-102 0 -199 44 -260 114c-53 59 -83 140 -83 226c0 123 54 208 130 269c49 40 135 70 205 70zM363 628c-42 0 -103 -22 -138 -57c-44 -43 -78 -118 -78 -235
c0 -149 110 -320 270 -320c83 0 121 36 132 48c40 36 85 117 85 236c0 109 -47 214 -121 274c-41 33 -104 54 -150 54zM255 744c10 15 27 42 36 52c5 6 13 10 28 10c61 0 131 -2 155 4c20 6 30 27 35 32c3 4 5 8 10 8s14 -10 16 -15c2 -4 1 -12 -3 -16
c-13 -14 -46 -60 -56 -69c-7 -7 -10 -7 -16 -7c-29 0 -145 2 -160 -2c-8 -2 -19 -13 -32 -30c-3 -5 -7 -8 -9 -8c-12 0 -16 11 -16 15c0 3 2 10 12 26z" />
    <glyph glyph-name="Scaron" unicode="&#x160;" horiz-adv-x="473" 
d="M274 661c49 0 101 -15 119 -18c6 -2 12 -17 12 -19c2 -19 10 -77 10 -81c0 -17 0 -27 -7 -27c-8 0 -20 7 -24 21c-12 36 -39 66 -49 72c-18 14 -42 23 -71 23c-67 0 -115 -50 -115 -117c0 -71 51 -102 139 -161c77 -52 138 -104 138 -194c0 -50 -28 -106 -82 -141
c-32 -21 -91 -36 -136 -36c-32 0 -100 11 -131 26c-10 6 -23 28 -23 32c-5 34 -15 78 -15 94c0 4 10 19 14 19c8 0 23 -26 37 -57c26 -55 92 -80 130 -80c69 0 121 49 121 121c0 42 -20 87 -125 154c-85 55 -145 113 -145 198c0 47 21 92 55 122c31 28 78 49 148 49z
M260 704c-9 0 -23 9 -42 24c-15 13 -54 44 -92 78c-16 10 -17 29 1 29c7 0 22 -8 30 -10c34 -15 66 -32 98 -48c7 -3 13 -2 18 1c27 13 63 30 94 46c8 2 21 10 30 10c19 0 21 -10 0 -30c-24 -20 -70 -58 -97 -79c-15 -12 -30 -21 -40 -21z" />
    <glyph glyph-name="Uacute" unicode="&#xda;" horiz-adv-x="762" 
d="M37 634c0 8 13 12 29 12c42 0 66 -3 103 -3s75 2 97 2c19 0 31 -3 31 -11s-11 -15 -30 -19c-36 -7 -55 -17 -61 -57c-5 -33 -4 -137 -4 -279c0 -113 25 -156 56 -191c28 -31 93 -55 145 -55c65 0 162 30 187 140c12 53 22 137 22 251c0 65 -3 117 -4 129
c-3 38 -10 52 -66 65c-10 2 -21 11 -21 18c0 6 6 10 23 10c25 0 53 -3 85 -3c41 0 62 2 90 2c16 0 25 -3 25 -11c0 -6 -8 -13 -22 -18c-43 -12 -63 -29 -65 -92c-1 -43 -7 -154 -9 -206c-5 -174 -53 -262 -125 -302c-46 -26 -100 -32 -144 -32c-90 0 -157 37 -181 59
c-56 53 -80 126 -80 294c0 144 -3 224 -4 237c-2 19 -16 35 -54 43c-12 3 -23 8 -23 17zM483 830c13 11 26 7 32 6c9 -6 31 -22 31 -36c0 -8 -11 -22 -22 -28c-45 -30 -99 -59 -146 -80c-8 -4 -26 -10 -36 0c-2 0 -4 12 12 27c32 30 87 79 129 111z" />
    <glyph glyph-name="Ucircumflex" unicode="&#xdb;" horiz-adv-x="762" 
d="M37 634c0 8 13 12 29 12c42 0 66 -3 103 -3s75 2 97 2c19 0 31 -3 31 -11s-11 -15 -30 -19c-36 -7 -55 -17 -61 -57c-5 -33 -4 -137 -4 -279c0 -113 25 -156 56 -191c28 -31 93 -55 145 -55c65 0 162 30 187 140c12 53 22 137 22 251c0 65 -3 117 -4 129
c-3 38 -10 52 -66 65c-10 2 -21 11 -21 18c0 6 6 10 23 10c25 0 53 -3 85 -3c41 0 62 2 90 2c16 0 25 -3 25 -11c0 -6 -8 -13 -22 -18c-43 -12 -63 -29 -65 -92c-1 -43 -7 -154 -9 -206c-5 -174 -53 -262 -125 -302c-46 -26 -100 -32 -144 -32c-90 0 -157 37 -181 59
c-56 53 -80 126 -80 294c0 144 -3 224 -4 237c-2 19 -16 35 -54 43c-12 3 -23 8 -23 17zM405 827c9 0 23 -10 41 -25c15 -14 51 -44 90 -77c16 -10 20 -29 2 -29c-8 0 -23 6 -30 9c-34 15 -66 32 -98 47c-7 4 -13 1 -18 -1c-27 -12 -64 -30 -94 -45c-8 -2 -22 -10 -30 -10
c-19 0 -20 10 1 30c25 18 68 58 96 79c15 12 29 22 40 22z" />
    <glyph glyph-name="Udieresis" unicode="&#xdc;" horiz-adv-x="762" 
d="M37 634c0 8 13 12 29 12c42 0 66 -3 103 -3s75 2 97 2c19 0 31 -3 31 -11s-11 -15 -30 -19c-36 -7 -55 -17 -61 -57c-5 -33 -4 -137 -4 -279c0 -113 25 -156 56 -191c28 -31 93 -55 145 -55c65 0 162 30 187 140c12 53 22 137 22 251c0 65 -3 117 -4 129
c-3 38 -10 52 -66 65c-10 2 -21 11 -21 18c0 6 6 10 23 10c25 0 53 -3 85 -3c41 0 62 2 90 2c16 0 25 -3 25 -11c0 -6 -8 -13 -22 -18c-43 -12 -63 -29 -65 -92c-1 -43 -7 -154 -9 -206c-5 -174 -53 -262 -125 -302c-46 -26 -100 -32 -144 -32c-90 0 -157 37 -181 59
c-56 53 -80 126 -80 294c0 144 -3 224 -4 237c-2 19 -16 35 -54 43c-12 3 -23 8 -23 17zM307 789c24 0 44 -23 44 -48c0 -30 -23 -44 -48 -44c-18 0 -41 15 -41 46c0 24 19 46 45 46zM508 788c23 0 42 -23 42 -47s-21 -44 -45 -44c-21 0 -43 17 -43 44c0 28 21 47 46 47z
" />
    <glyph glyph-name="Ugrave" unicode="&#xd9;" horiz-adv-x="762" 
d="M37 634c0 8 13 12 29 12c42 0 66 -3 103 -3s75 2 97 2c19 0 31 -3 31 -11s-11 -15 -30 -19c-36 -7 -55 -17 -61 -57c-5 -33 -4 -137 -4 -279c0 -113 25 -156 56 -191c28 -31 93 -55 145 -55c65 0 162 30 187 140c12 53 22 137 22 251c0 65 -3 117 -4 129
c-3 38 -10 52 -66 65c-10 2 -21 11 -21 18c0 6 6 10 23 10c25 0 53 -3 85 -3c41 0 62 2 90 2c16 0 25 -3 25 -11c0 -6 -8 -13 -22 -18c-43 -12 -63 -29 -65 -92c-1 -43 -7 -154 -9 -206c-5 -174 -53 -262 -125 -302c-46 -26 -100 -32 -144 -32c-90 0 -157 37 -181 59
c-56 53 -80 126 -80 294c0 144 -3 224 -4 237c-2 19 -16 35 -54 43c-12 3 -23 8 -23 17zM310 840c8 0 13 -5 40 -28c22 -21 64 -58 94 -89c8 -8 15 -19 10 -25c-5 -8 -23 -7 -36 -1c-39 19 -117 68 -133 79c-13 8 -21 15 -21 24s8 16 19 25c7 6 23 15 27 15z" />
    <glyph glyph-name="Yacute" unicode="&#xdd;" horiz-adv-x="622" 
d="M3 638c0 6 10 10 27 10c15 0 67 -5 114 -5c28 0 36 2 76 2c16 0 22 -4 22 -10c0 -7 -7 -16 -22 -20c-36 -8 -29 -20 -15 -46c12 -23 86 -146 131 -219c2 -3 8 -2 10 2c28 40 104 165 129 206c21 36 10 48 -29 57c-15 4 -21 13 -21 20s12 9 23 9c26 0 42 -1 65 -1
c37 0 95 4 111 4c11 0 21 -4 21 -10c0 -8 -9 -13 -26 -18c-47 -12 -76 -37 -109 -78c-47 -59 -99 -147 -133 -196c-11 -16 -25 -48 -25 -61c0 -56 2 -180 6 -212c4 -21 15 -33 71 -47c20 -5 27 -11 27 -18c0 -8 -10 -11 -30 -11c-15 0 -64 4 -87 4c-60 0 -125 -6 -140 -6
c-17 0 -25 5 -25 11s7 14 28 18c54 12 64 34 65 48c3 41 3 149 3 207c0 5 -6 28 -9 36c-17 36 -79 137 -127 210c-47 70 -59 84 -103 94c-19 4 -28 12 -28 20zM418 828c13 11 26 7 32 6c9 -6 31 -22 31 -36c0 -8 -11 -22 -22 -28c-45 -30 -99 -59 -146 -80
c-8 -4 -26 -10 -36 0c-2 0 -4 12 12 27c32 30 87 79 129 111z" />
    <glyph glyph-name="Ydieresis" unicode="&#x178;" horiz-adv-x="622" 
d="M3 638c0 6 10 10 27 10c15 0 67 -5 114 -5c28 0 36 2 76 2c16 0 22 -4 22 -10c0 -7 -7 -16 -22 -20c-36 -8 -29 -20 -15 -46c12 -23 86 -146 131 -219c2 -3 8 -2 10 2c28 40 104 165 129 206c21 36 10 48 -29 57c-15 4 -21 13 -21 20s12 9 23 9c26 0 42 -1 65 -1
c37 0 95 4 111 4c11 0 21 -4 21 -10c0 -8 -9 -13 -26 -18c-47 -12 -76 -37 -109 -78c-47 -59 -99 -147 -133 -196c-11 -16 -25 -48 -25 -61c0 -56 2 -180 6 -212c4 -21 15 -33 71 -47c20 -5 27 -11 27 -18c0 -8 -10 -11 -30 -11c-15 0 -64 4 -87 4c-60 0 -125 -6 -140 -6
c-17 0 -25 5 -25 11s7 14 28 18c54 12 64 34 65 48c3 41 3 149 3 207c0 5 -6 28 -9 36c-17 36 -79 137 -127 210c-47 70 -59 84 -103 94c-19 4 -28 12 -28 20zM239 790c24 0 44 -23 44 -48c0 -30 -23 -44 -48 -44c-18 0 -41 15 -41 46c0 24 19 46 45 46zM440 789
c23 0 42 -23 42 -47s-21 -44 -45 -44c-21 0 -43 17 -43 44c0 28 21 47 46 47z" />
    <glyph glyph-name="Zcaron" unicode="&#x17d;" horiz-adv-x="620" 
d="M313 643c75 0 198 1 220 3c12 1 17 -1 17 -5s-2 -13 -11 -25c-13 -13 -46 -61 -89 -122c-101 -152 -255 -394 -281 -434c-3 -4 -1 -10 4 -13c10 -6 90 -11 149 -11c35 0 109 0 127 3c48 6 63 11 124 96c12 16 17 26 26 26c6 0 9 -9 9 -22c0 -16 -21 -63 -50 -127
c-5 -9 -15 -17 -58 -17c-79 0 -310 4 -356 4h-95c-7 0 -17 6 -17 14s21 32 43 63c37 48 313 468 337 512c5 8 0 13 -4 14c-38 4 -141 5 -181 5c-17 0 -59 -2 -73 -5c-30 -7 -61 -23 -90 -76c-8 -16 -16 -22 -22 -22s-14 9 -6 34c3 10 30 75 40 119c1 7 7 12 13 12
c3 0 12 -4 16 -8c11 -12 23 -14 50 -16c27 -1 96 -2 158 -2zM309 692c-9 0 -23 9 -42 24c-15 13 -54 44 -92 78c-16 10 -17 29 1 29c7 0 22 -8 30 -10c34 -15 66 -32 98 -48c7 -3 13 -2 18 1c27 13 63 30 94 46c8 2 21 10 30 10c19 0 21 -10 0 -30c-24 -20 -70 -58 -97 -79
c-15 -12 -30 -21 -40 -21z" />
    <glyph glyph-name="aacute" unicode="&#xe1;" horiz-adv-x="397" 
d="M208 404c50 0 75 -25 90 -47c15 -21 20 -41 20 -83c0 -39 -4 -165 -4 -176c0 -46 32 -50 40 -50c4 0 27 7 38 15c3 2 4 0 6 -3c3 -3 3 -9 3 -10c0 -19 -45 -62 -90 -62c-23 0 -52 13 -64 50c0 1 -4 5 -6 4c-37 -26 -80 -43 -90 -46c-11 -4 -35 -6 -40 -6
c-35 0 -69 43 -69 93c0 18 8 37 19 51c10 13 25 18 40 25c15 6 95 28 117 35c23 7 29 12 29 18c1 9 2 70 2 82c0 25 -29 67 -78 67c-21 0 -34 -6 -41 -11c-6 -3 -9 -21 -7 -41c0 -3 -4 -9 -6 -11c-10 -8 -60 -33 -65 -33c-6 0 -12 8 -12 13c0 29 28 57 75 88
c29 21 74 38 93 38zM178 42c15 0 35 7 54 17c6 4 12 23 12 25c2 24 2 58 2 78c0 3 -4 8 -8 8c-28 0 -76 -17 -103 -30c-10 -7 -20 -14 -20 -38c0 -44 42 -60 63 -60zM234 626c7 14 18 21 24 21c9 0 36 -2 43 -10c3 -4 0 -17 -5 -27c-20 -38 -68 -116 -92 -147
c-7 -9 -17 -19 -26 -19s-8 17 -5 27c12 36 42 113 61 155z" />
    <glyph glyph-name="acircumflex" unicode="&#xe2;" horiz-adv-x="397" 
d="M208 404c50 0 75 -25 90 -47c15 -21 20 -41 20 -83c0 -39 -4 -165 -4 -176c0 -46 32 -50 40 -50c4 0 27 7 38 15c3 2 4 0 6 -3c3 -3 3 -9 3 -10c0 -19 -45 -62 -90 -62c-23 0 -52 13 -64 50c0 1 -4 5 -6 4c-37 -26 -80 -43 -90 -46c-11 -4 -35 -6 -40 -6
c-35 0 -69 43 -69 93c0 18 8 37 19 51c10 13 25 18 40 25c15 6 95 28 117 35c23 7 29 12 29 18c1 9 2 70 2 82c0 25 -29 67 -78 67c-21 0 -34 -6 -41 -11c-6 -3 -9 -21 -7 -41c0 -3 -4 -9 -6 -11c-10 -8 -60 -33 -65 -33c-6 0 -12 8 -12 13c0 29 28 57 75 88
c29 21 74 38 93 38zM178 42c15 0 35 7 54 17c6 4 12 23 12 25c2 24 2 58 2 78c0 3 -4 8 -8 8c-28 0 -76 -17 -103 -30c-10 -7 -20 -14 -20 -38c0 -44 42 -60 63 -60zM190 637c6 0 16 -14 28 -38c11 -20 38 -70 66 -125c3 -7 15 -34 -2 -34c-8 0 -22 12 -27 19
c-19 26 -46 64 -63 89c-1 2 -6 5 -9 1c-17 -25 -47 -70 -64 -92c-4 -6 -12 -15 -21 -15c-6 0 -12 12 -8 23c12 29 50 99 72 139c11 20 21 33 28 33z" />
    <glyph glyph-name="adieresis" unicode="&#xe4;" horiz-adv-x="397" 
d="M208 404c50 0 75 -25 90 -47c15 -21 20 -41 20 -83c0 -39 -4 -165 -4 -176c0 -46 32 -50 40 -50c4 0 27 7 38 15c3 2 4 0 6 -3c3 -3 3 -9 3 -10c0 -19 -45 -62 -90 -62c-23 0 -52 13 -64 50c0 1 -4 5 -6 4c-37 -26 -80 -43 -90 -46c-11 -4 -35 -6 -40 -6
c-35 0 -69 43 -69 93c0 18 8 37 19 51c10 13 25 18 40 25c15 6 95 28 117 35c23 7 29 12 29 18c1 9 2 70 2 82c0 25 -29 67 -78 67c-21 0 -34 -6 -41 -11c-6 -3 -9 -21 -7 -41c0 -3 -4 -9 -6 -11c-10 -8 -60 -33 -65 -33c-6 0 -12 8 -12 13c0 29 28 57 75 88
c29 21 74 38 93 38zM178 42c15 0 35 7 54 17c6 4 12 23 12 25c2 24 2 58 2 78c0 3 -4 8 -8 8c-28 0 -76 -17 -103 -30c-10 -7 -20 -14 -20 -38c0 -44 42 -60 63 -60zM107 600c24 0 41 -23 41 -46c0 -30 -22 -44 -43 -44c-18 0 -42 15 -42 43c0 24 17 47 44 47zM276 599
c23 0 43 -23 43 -45c0 -24 -21 -44 -45 -44c-22 0 -43 18 -43 43c0 29 24 46 45 46z" />
    <glyph glyph-name="agrave" unicode="&#xe0;" horiz-adv-x="397" 
d="M208 404c50 0 75 -25 90 -47c15 -21 20 -41 20 -83c0 -39 -4 -165 -4 -176c0 -46 32 -50 40 -50c4 0 27 7 38 15c3 2 4 0 6 -3c3 -3 3 -9 3 -10c0 -19 -45 -62 -90 -62c-23 0 -52 13 -64 50c0 1 -4 5 -6 4c-37 -26 -80 -43 -90 -46c-11 -4 -35 -6 -40 -6
c-35 0 -69 43 -69 93c0 18 8 37 19 51c10 13 25 18 40 25c15 6 95 28 117 35c23 7 29 12 29 18c1 9 2 70 2 82c0 25 -29 67 -78 67c-21 0 -34 -6 -41 -11c-6 -3 -9 -21 -7 -41c0 -3 -4 -9 -6 -11c-10 -8 -60 -33 -65 -33c-6 0 -12 8 -12 13c0 29 28 57 75 88
c29 21 74 38 93 38zM178 42c15 0 35 7 54 17c6 4 12 23 12 25c2 24 2 58 2 78c0 3 -4 8 -8 8c-28 0 -76 -17 -103 -30c-10 -7 -20 -14 -20 -38c0 -44 42 -60 63 -60zM135 655c7 0 13 -5 26 -35c13 -27 46 -107 60 -149c3 -9 4 -25 -4 -25s-18 9 -23 16
c-34 44 -86 126 -94 140c-7 13 -9 17 -8 26c0 6 6 14 16 18c6 3 21 9 27 9z" />
    <glyph glyph-name="aring" unicode="&#xe5;" horiz-adv-x="397" 
d="M208 404c50 0 75 -25 90 -47c15 -21 20 -41 20 -83c0 -39 -4 -165 -4 -176c0 -46 32 -50 40 -50c4 0 27 7 38 15c3 2 4 0 6 -3c3 -3 3 -9 3 -10c0 -19 -45 -62 -90 -62c-23 0 -52 13 -64 50c0 1 -4 5 -6 4c-37 -26 -80 -43 -90 -46c-11 -4 -35 -6 -40 -6
c-35 0 -69 43 -69 93c0 18 8 37 19 51c10 13 25 18 40 25c15 6 95 28 117 35c23 7 29 12 29 18c1 9 2 70 2 82c0 25 -29 67 -78 67c-21 0 -34 -6 -41 -11c-6 -3 -9 -21 -7 -41c0 -3 -4 -9 -6 -11c-10 -8 -60 -33 -65 -33c-6 0 -12 8 -12 13c0 29 28 57 75 88
c29 21 74 38 93 38zM178 42c15 0 35 7 54 17c6 4 12 23 12 25c2 24 2 58 2 78c0 3 -4 8 -8 8c-28 0 -76 -17 -103 -30c-10 -7 -20 -14 -20 -38c0 -44 42 -60 63 -60zM188 629c49 0 82 -39 82 -81c0 -43 -33 -82 -82 -82s-82 39 -82 82c0 42 33 81 82 81zM187 600
c-26 0 -44 -23 -44 -52c0 -33 20 -52 45 -52c26 0 45 18 45 54c0 27 -20 50 -46 50z" />
    <glyph glyph-name="atilde" unicode="&#xe3;" horiz-adv-x="397" 
d="M208 404c50 0 75 -25 90 -47c15 -21 20 -41 20 -83c0 -39 -4 -165 -4 -176c0 -46 32 -50 40 -50c4 0 27 7 38 15c3 2 4 0 6 -3c3 -3 3 -9 3 -10c0 -19 -45 -62 -90 -62c-23 0 -52 13 -64 50c0 1 -4 5 -6 4c-37 -26 -80 -43 -90 -46c-11 -4 -35 -6 -40 -6
c-35 0 -69 43 -69 93c0 18 8 37 19 51c10 13 25 18 40 25c15 6 95 28 117 35c23 7 29 12 29 18c1 9 2 70 2 82c0 25 -29 67 -78 67c-21 0 -34 -6 -41 -11c-6 -3 -9 -21 -7 -41c0 -3 -4 -9 -6 -11c-10 -8 -60 -33 -65 -33c-6 0 -12 8 -12 13c0 29 28 57 75 88
c29 21 74 38 93 38zM178 42c15 0 35 7 54 17c6 4 12 23 12 25c2 24 2 58 2 78c0 3 -4 8 -8 8c-28 0 -76 -17 -103 -30c-10 -7 -20 -14 -20 -38c0 -44 42 -60 63 -60zM123 512c-8 0 -25 -13 -34 -23c-5 -6 -6 -6 -10 -6c-3 0 -13 14 -13 16c0 1 32 46 68 68c6 5 11 5 15 4
c10 -3 74 -10 100 -10c14 0 22 1 29 6c9 7 21 20 26 26c5 5 21 -10 21 -14c0 -2 0 -4 -3 -6c-5 -4 -57 -59 -62 -64s-8 -8 -12 -8c-15 0 -86 11 -125 11z" />
    <glyph glyph-name="ccedilla" unicode="&#xe7;" horiz-adv-x="392" 
d="M255 404c56 0 85 -10 105 -25c12 -9 14 -21 14 -31c0 -11 -19 -36 -35 -36c-11 0 -18 9 -43 27c-34 24 -48 28 -79 28c-21 0 -51 -16 -65 -34c-27 -32 -42 -73 -42 -118c0 -105 68 -165 153 -165c40 0 77 18 95 34c6 5 12 3 12 -6c0 -11 -5 -23 -13 -30
c-26 -27 -61 -46 -97 -54c-17 -23 -31 -40 -33 -43c-2 -5 0 -8 6 -12c34 -17 64 -32 64 -75c0 -33 -27 -64 -49 -82c-32 -25 -51 -31 -69 -31c-8 0 -18 3 -24 14c-5 10 -4 23 -1 30c5 7 8 9 14 8c15 -3 32 -6 40 -6c24 0 36 19 36 38c0 28 -28 47 -56 47c-5 0 -10 0 -17 -1
c-5 0 -15 10 -15 15c0 3 0 5 6 13c18 24 44 56 63 79h-9c-67 0 -121 33 -154 81c-17 29 -30 73 -30 115c0 81 40 138 99 178c39 28 93 42 124 42z" />
    <glyph glyph-name="eacute" unicode="&#xe9;" horiz-adv-x="392" 
d="M229 403c35 0 74 -13 99 -38c22 -21 35 -49 35 -84c0 -6 -8 -17 -19 -17s-182 0 -228 1c-3 0 -7 -5 -8 -8c-3 -8 -5 -25 -5 -35c0 -39 16 -85 38 -114c22 -30 64 -55 112 -55c44 0 74 11 91 36c4 6 9 12 13 12c6 0 8 -7 8 -12c0 -8 -4 -19 -7 -24
c-35 -51 -88 -75 -145 -75c-108 0 -180 82 -180 199c0 80 42 160 120 196c26 12 59 18 76 18zM219 377c-45 0 -83 -28 -101 -74c-2 -5 2 -11 4 -11c26 -1 79 -1 129 0c24 0 34 5 34 25c0 28 -30 60 -66 60zM251 626c7 14 18 21 24 21c9 0 36 -2 43 -10c3 -4 0 -17 -5 -27
c-20 -38 -68 -116 -92 -147c-7 -9 -17 -19 -26 -19s-8 17 -5 27c12 36 42 113 61 155z" />
    <glyph glyph-name="ecircumflex" unicode="&#xea;" horiz-adv-x="392" 
d="M229 403c35 0 74 -13 99 -38c22 -21 35 -49 35 -84c0 -6 -8 -17 -19 -17s-182 0 -228 1c-3 0 -7 -5 -8 -8c-3 -8 -5 -25 -5 -35c0 -39 16 -85 38 -114c22 -30 64 -55 112 -55c44 0 74 11 91 36c4 6 9 12 13 12c6 0 8 -7 8 -12c0 -8 -4 -19 -7 -24
c-35 -51 -88 -75 -145 -75c-108 0 -180 82 -180 199c0 80 42 160 120 196c26 12 59 18 76 18zM219 377c-45 0 -83 -28 -101 -74c-2 -5 2 -11 4 -11c26 -1 79 -1 129 0c24 0 34 5 34 25c0 28 -30 60 -66 60zM211 641c6 0 16 -14 28 -38c11 -20 38 -70 66 -125
c3 -7 15 -34 -2 -34c-8 0 -22 12 -27 19c-19 26 -46 64 -63 89c-1 2 -6 5 -9 1c-17 -25 -47 -70 -64 -92c-4 -6 -12 -15 -21 -15c-6 0 -12 12 -8 23c12 29 50 99 72 139c11 20 21 33 28 33z" />
    <glyph glyph-name="edieresis" unicode="&#xeb;" horiz-adv-x="392" 
d="M229 403c35 0 74 -13 99 -38c22 -21 35 -49 35 -84c0 -6 -8 -17 -19 -17s-182 0 -228 1c-3 0 -7 -5 -8 -8c-3 -8 -5 -25 -5 -35c0 -39 16 -85 38 -114c22 -30 64 -55 112 -55c44 0 74 11 91 36c4 6 9 12 13 12c6 0 8 -7 8 -12c0 -8 -4 -19 -7 -24
c-35 -51 -88 -75 -145 -75c-108 0 -180 82 -180 199c0 80 42 160 120 196c26 12 59 18 76 18zM219 377c-45 0 -83 -28 -101 -74c-2 -5 2 -11 4 -11c26 -1 79 -1 129 0c24 0 34 5 34 25c0 28 -30 60 -66 60zM130 600c24 0 41 -23 41 -46c0 -30 -22 -44 -43 -44
c-18 0 -42 15 -42 43c0 24 17 47 44 47zM299 599c23 0 43 -23 43 -45c0 -24 -21 -44 -45 -44c-22 0 -43 18 -43 43c0 29 24 46 45 46z" />
    <glyph glyph-name="egrave" unicode="&#xe8;" horiz-adv-x="392" 
d="M229 403c35 0 74 -13 99 -38c22 -21 35 -49 35 -84c0 -6 -8 -17 -19 -17s-182 0 -228 1c-3 0 -7 -5 -8 -8c-3 -8 -5 -25 -5 -35c0 -39 16 -85 38 -114c22 -30 64 -55 112 -55c44 0 74 11 91 36c4 6 9 12 13 12c6 0 8 -7 8 -12c0 -8 -4 -19 -7 -24
c-35 -51 -88 -75 -145 -75c-108 0 -180 82 -180 199c0 80 42 160 120 196c26 12 59 18 76 18zM219 377c-45 0 -83 -28 -101 -74c-2 -5 2 -11 4 -11c26 -1 79 -1 129 0c24 0 34 5 34 25c0 28 -30 60 -66 60zM158 655c7 0 13 -5 26 -35c13 -27 46 -107 60 -149
c3 -9 4 -25 -4 -25s-18 9 -23 16c-34 44 -86 126 -94 140c-7 13 -9 17 -8 26c0 6 6 14 16 18c6 3 21 9 27 9z" />
    <glyph glyph-name="iacute" unicode="&#xed;" horiz-adv-x="253" 
d="M45 359c0 7 9 13 20 15c37 8 84 30 99 34c4 0 9 -10 9 -11c0 -11 -6 -141 -6 -198c0 -56 1 -98 2 -133c1 -32 23 -34 48 -42c16 -5 22 -10 22 -17c0 -6 -12 -10 -23 -10c-7 0 -57 3 -78 3c-33 0 -68 -4 -85 -4c-16 0 -26 4 -26 11c0 6 7 11 24 16c23 6 38 18 40 28
c3 14 4 74 4 103c0 2 1 144 -1 156c-1 7 -10 15 -39 36c-8 5 -10 8 -10 13zM161 626c7 14 18 21 24 21c9 0 36 -2 43 -10c3 -4 0 -17 -5 -27c-20 -38 -68 -116 -92 -147c-7 -9 -17 -19 -26 -19s-8 17 -5 27c12 36 42 113 61 155z" />
    <glyph glyph-name="icircumflex" unicode="&#xee;" horiz-adv-x="253" 
d="M45 359c0 7 9 13 20 15c37 8 84 30 99 34c4 0 9 -10 9 -11c0 -11 -6 -141 -6 -198c0 -56 1 -98 2 -133c1 -32 23 -34 48 -42c16 -5 22 -10 22 -17c0 -6 -12 -10 -23 -10c-7 0 -57 3 -78 3c-33 0 -68 -4 -85 -4c-16 0 -26 4 -26 11c0 6 7 11 24 16c23 6 38 18 40 28
c3 14 4 74 4 103c0 2 1 144 -1 156c-1 7 -10 15 -39 36c-8 5 -10 8 -10 13zM129 641c6 0 16 -14 28 -38c11 -20 38 -70 66 -125c3 -7 15 -34 -2 -34c-8 0 -22 12 -27 19c-19 26 -46 64 -63 89c-1 2 -6 5 -9 1c-17 -25 -47 -70 -64 -92c-4 -6 -12 -15 -21 -15
c-6 0 -12 12 -8 23c12 29 50 99 72 139c11 20 21 33 28 33z" />
    <glyph glyph-name="idieresis" unicode="&#xef;" horiz-adv-x="253" 
d="M45 359c0 7 9 13 20 15c37 8 84 30 99 34c4 0 9 -10 9 -11c0 -11 -6 -141 -6 -198c0 -56 1 -98 2 -133c1 -32 23 -34 48 -42c16 -5 22 -10 22 -17c0 -6 -12 -10 -23 -10c-7 0 -57 3 -78 3c-33 0 -68 -4 -85 -4c-16 0 -26 4 -26 11c0 6 7 11 24 16c23 6 38 18 40 28
c3 14 4 74 4 103c0 2 1 144 -1 156c-1 7 -10 15 -39 36c-8 5 -10 8 -10 13zM46 600c24 0 41 -23 41 -46c0 -30 -22 -44 -43 -44c-18 0 -42 15 -42 43c0 24 17 47 44 47zM215 599c23 0 43 -23 43 -45c0 -24 -21 -44 -45 -44c-22 0 -43 18 -43 43c0 29 24 46 45 46z" />
    <glyph glyph-name="igrave" unicode="&#xec;" horiz-adv-x="253" 
d="M45 359c0 7 9 13 20 15c37 8 84 30 99 34c4 0 9 -10 9 -11c0 -11 -6 -141 -6 -198c0 -56 1 -98 2 -133c1 -32 23 -34 48 -42c16 -5 22 -10 22 -17c0 -6 -12 -10 -23 -10c-7 0 -57 3 -78 3c-33 0 -68 -4 -85 -4c-16 0 -26 4 -26 11c0 6 7 11 24 16c23 6 38 18 40 28
c3 14 4 74 4 103c0 2 1 144 -1 156c-1 7 -10 15 -39 36c-8 5 -10 8 -10 13zM61 655c7 0 13 -5 26 -35c13 -27 46 -107 60 -149c3 -9 4 -25 -4 -25s-18 9 -23 16c-34 44 -86 126 -94 140c-7 13 -9 17 -8 26c0 6 6 14 16 18c6 3 21 9 27 9z" />
    <glyph glyph-name="ntilde" unicode="&#xf1;" horiz-adv-x="521" 
d="M53 356c0 7 11 17 18 20c17 6 53 19 67 29c10 6 19 11 24 11s10 -11 10 -15c0 -17 -4 -41 -4 -50c0 -5 5 -3 6 -3c40 27 92 55 134 55c49 0 77 -22 91 -38c22 -26 35 -72 35 -122c0 -19 2 -168 3 -182c2 -15 12 -28 37 -35c19 -5 25 -10 25 -17s-14 -11 -30 -11
c-23 0 -46 2 -74 2c-25 0 -56 -2 -69 -2c-9 0 -23 4 -23 12c0 7 11 13 23 17c24 9 29 17 31 50s3 154 3 183c0 36 -18 65 -30 74c-11 8 -41 19 -64 19c-44 0 -70 -15 -89 -32c-3 -3 -10 -15 -10 -24c0 -13 0 -228 1 -240c1 -14 5 -22 37 -31c10 -3 18 -9 18 -15
c0 -7 -11 -12 -25 -12c-12 0 -40 1 -61 1c-37 0 -66 -3 -83 -3c-15 0 -26 4 -26 13c0 7 10 12 21 15c33 10 39 20 42 56c3 30 5 117 5 219c0 11 -2 21 -24 39c-13 9 -19 14 -19 17zM188 513c-8 0 -25 -13 -34 -23c-5 -6 -6 -6 -10 -6c-3 0 -13 14 -13 16c0 1 32 46 68 68
c6 5 11 5 15 4c10 -3 74 -10 100 -10c14 0 22 1 29 6c9 7 21 20 26 26c5 5 21 -10 21 -14c0 -2 0 -4 -3 -6c-5 -4 -57 -59 -62 -64s-8 -8 -12 -8c-15 0 -86 11 -125 11z" />
    <glyph glyph-name="oacute" unicode="&#xf3;" horiz-adv-x="482" 
d="M250 404c99 0 200 -78 200 -204c0 -83 -50 -148 -87 -172c-40 -29 -79 -40 -124 -40c-46 0 -96 21 -133 52c-43 35 -74 103 -74 153c0 76 32 124 70 156c31 27 81 55 148 55zM231 374c-21 0 -44 -11 -65 -29c-26 -24 -49 -76 -49 -128c0 -33 4 -64 12 -89
c25 -75 82 -111 130 -111c11 0 33 5 61 33c25 27 45 89 45 132c0 52 -12 109 -50 153c-22 24 -58 39 -84 39zM274 626c7 14 18 21 24 21c9 0 36 -2 43 -10c3 -4 0 -17 -5 -27c-20 -38 -68 -116 -92 -147c-7 -9 -17 -19 -26 -19s-8 17 -5 27c12 36 42 113 61 155z" />
    <glyph glyph-name="ocircumflex" unicode="&#xf4;" horiz-adv-x="482" 
d="M250 404c99 0 200 -78 200 -204c0 -83 -50 -148 -87 -172c-40 -29 -79 -40 -124 -40c-46 0 -96 21 -133 52c-43 35 -74 103 -74 153c0 76 32 124 70 156c31 27 81 55 148 55zM231 374c-21 0 -44 -11 -65 -29c-26 -24 -49 -76 -49 -128c0 -33 4 -64 12 -89
c25 -75 82 -111 130 -111c11 0 33 5 61 33c25 27 45 89 45 132c0 52 -12 109 -50 153c-22 24 -58 39 -84 39zM240 641c6 0 16 -14 28 -38c11 -20 38 -70 66 -125c3 -7 15 -34 -2 -34c-8 0 -22 12 -27 19c-19 26 -46 64 -63 89c-1 2 -6 5 -9 1c-17 -25 -47 -70 -64 -92
c-4 -6 -12 -15 -21 -15c-6 0 -12 12 -8 23c12 29 50 99 72 139c11 20 21 33 28 33z" />
    <glyph glyph-name="odieresis" unicode="&#xf6;" horiz-adv-x="482" 
d="M250 404c99 0 200 -78 200 -204c0 -83 -50 -148 -87 -172c-40 -29 -79 -40 -124 -40c-46 0 -96 21 -133 52c-43 35 -74 103 -74 153c0 76 32 124 70 156c31 27 81 55 148 55zM231 374c-21 0 -44 -11 -65 -29c-26 -24 -49 -76 -49 -128c0 -33 4 -64 12 -89
c25 -75 82 -111 130 -111c11 0 33 5 61 33c25 27 45 89 45 132c0 52 -12 109 -50 153c-22 24 -58 39 -84 39zM159 600c24 0 41 -23 41 -46c0 -30 -22 -44 -43 -44c-18 0 -42 15 -42 43c0 24 17 47 44 47zM328 599c23 0 43 -23 43 -45c0 -24 -21 -44 -45 -44
c-22 0 -43 18 -43 43c0 29 24 46 45 46z" />
    <glyph glyph-name="ograve" unicode="&#xf2;" horiz-adv-x="482" 
d="M250 404c99 0 200 -78 200 -204c0 -83 -50 -148 -87 -172c-40 -29 -79 -40 -124 -40c-46 0 -96 21 -133 52c-43 35 -74 103 -74 153c0 76 32 124 70 156c31 27 81 55 148 55zM231 374c-21 0 -44 -11 -65 -29c-26 -24 -49 -76 -49 -128c0 -33 4 -64 12 -89
c25 -75 82 -111 130 -111c11 0 33 5 61 33c25 27 45 89 45 132c0 52 -12 109 -50 153c-22 24 -58 39 -84 39zM185 657c7 0 13 -5 26 -35c13 -27 46 -107 60 -149c3 -9 4 -25 -4 -25s-18 9 -23 16c-34 44 -86 126 -94 140c-7 13 -9 17 -8 26c0 6 6 14 16 18c6 3 21 9 27 9z
" />
    <glyph glyph-name="otilde" unicode="&#xf5;" horiz-adv-x="482" 
d="M250 404c99 0 200 -78 200 -204c0 -83 -50 -148 -87 -172c-40 -29 -79 -40 -124 -40c-46 0 -96 21 -133 52c-43 35 -74 103 -74 153c0 76 32 124 70 156c31 27 81 55 148 55zM231 374c-21 0 -44 -11 -65 -29c-26 -24 -49 -76 -49 -128c0 -33 4 -64 12 -89
c25 -75 82 -111 130 -111c11 0 33 5 61 33c25 27 45 89 45 132c0 52 -12 109 -50 153c-22 24 -58 39 -84 39zM168 506c-8 0 -25 -13 -34 -23c-5 -6 -6 -6 -10 -6c-3 0 -13 14 -13 16c0 1 32 46 68 68c6 5 11 5 15 4c10 -3 74 -10 100 -10c14 0 22 1 29 6c9 7 21 20 26 26
c5 5 21 -10 21 -14c0 -2 0 -4 -3 -6c-5 -4 -57 -59 -62 -64s-8 -8 -12 -8c-15 0 -86 11 -125 11z" />
    <glyph glyph-name="scaron" unicode="&#x161;" horiz-adv-x="321" 
d="M185 404c19 0 40 -3 51 -6c11 -2 30 -10 32 -11s8 -8 8 -14c0 -18 3 -52 3 -59c0 -9 -4 -18 -12 -18c-4 0 -10 6 -15 17c-22 47 -47 67 -80 67c-41 0 -60 -41 -60 -62c0 -34 32 -60 99 -97c56 -33 78 -67 78 -112c0 -46 -33 -80 -58 -98c-18 -12 -53 -23 -84 -23
c-30 0 -80 8 -97 22c-3 5 -15 47 -15 76c0 11 2 21 8 21c8 0 15 -12 21 -23c28 -51 55 -71 91 -71c13 0 29 7 40 15c15 12 23 36 23 55c0 27 -14 48 -45 67c-24 17 -30 22 -61 42c-30 19 -62 54 -62 101c0 34 17 67 55 90c19 12 46 21 80 21zM174 443c-7 0 -17 15 -29 39
c-11 20 -38 70 -65 125c-3 6 -15 33 2 33c7 0 21 -11 26 -18c22 -30 45 -63 62 -88c2 -3 8 -6 11 -2c20 31 40 58 63 91c4 6 15 15 24 15c6 0 9 -11 5 -22c-15 -42 -49 -98 -71 -139c-10 -20 -21 -34 -28 -34z" />
    <glyph glyph-name="uacute" unicode="&#xfa;" horiz-adv-x="498" 
d="M246 38c24 0 51 13 76 35c6 5 15 20 15 24l2 230c0 6 -11 20 -17 22l-46 12c-7 2 -20 8 -20 16c0 4 13 9 23 9c40 0 84 5 107 11c10 3 17 4 24 4c5 0 7 -11 7 -15c-2 -28 -10 -250 -10 -332c0 -2 4 -14 12 -14c7 0 38 5 50 5c4 0 11 -16 12 -19c0 -3 -7 -10 -11 -10
c-26 -2 -68 -13 -91 -19c-17 -5 -33 -9 -35 -9c-4 0 -10 7 -10 14c0 6 3 25 4 42c0 5 -3 8 -5 7c-29 -20 -69 -46 -82 -51c-17 -7 -39 -12 -67 -12c-36 0 -68 16 -88 47c-7 11 -14 31 -14 47c0 72 0 185 -2 238c-1 28 -20 32 -37 39c-9 4 -18 9 -18 18c0 3 5 9 17 9
c28 0 102 11 106 11s8 -9 8 -15c1 -34 -3 -223 -3 -268c0 -23 11 -46 25 -56c26 -20 44 -20 68 -20zM270 627c7 14 18 21 24 21c9 0 36 -2 43 -10c3 -4 0 -17 -5 -27c-20 -38 -68 -116 -92 -147c-7 -9 -17 -19 -26 -19s-8 17 -5 27c12 36 42 113 61 155z" />
    <glyph glyph-name="ucircumflex" unicode="&#xfb;" horiz-adv-x="498" 
d="M246 38c24 0 51 13 76 35c6 5 15 20 15 24l2 230c0 6 -11 20 -17 22l-46 12c-7 2 -20 8 -20 16c0 4 13 9 23 9c40 0 84 5 107 11c10 3 17 4 24 4c5 0 7 -11 7 -15c-2 -28 -10 -250 -10 -332c0 -2 4 -14 12 -14c7 0 38 5 50 5c4 0 11 -16 12 -19c0 -3 -7 -10 -11 -10
c-26 -2 -68 -13 -91 -19c-17 -5 -33 -9 -35 -9c-4 0 -10 7 -10 14c0 6 3 25 4 42c0 5 -3 8 -5 7c-29 -20 -69 -46 -82 -51c-17 -7 -39 -12 -67 -12c-36 0 -68 16 -88 47c-7 11 -14 31 -14 47c0 72 0 185 -2 238c-1 28 -20 32 -37 39c-9 4 -18 9 -18 18c0 3 5 9 17 9
c28 0 102 11 106 11s8 -9 8 -15c1 -34 -3 -223 -3 -268c0 -23 11 -46 25 -56c26 -20 44 -20 68 -20zM240 641c6 0 16 -14 28 -38c11 -20 38 -70 66 -125c3 -7 15 -34 -2 -34c-8 0 -22 12 -27 19c-19 26 -46 64 -63 89c-1 2 -6 5 -9 1c-17 -25 -47 -70 -64 -92
c-4 -6 -12 -15 -21 -15c-6 0 -12 12 -8 23c12 29 50 99 72 139c11 20 21 33 28 33z" />
    <glyph glyph-name="udieresis" unicode="&#xfc;" horiz-adv-x="498" 
d="M246 38c24 0 51 13 76 35c6 5 15 20 15 24l2 230c0 6 -11 20 -17 22l-46 12c-7 2 -20 8 -20 16c0 4 13 9 23 9c40 0 84 5 107 11c10 3 17 4 24 4c5 0 7 -11 7 -15c-2 -28 -10 -250 -10 -332c0 -2 4 -14 12 -14c7 0 38 5 50 5c4 0 11 -16 12 -19c0 -3 -7 -10 -11 -10
c-26 -2 -68 -13 -91 -19c-17 -5 -33 -9 -35 -9c-4 0 -10 7 -10 14c0 6 3 25 4 42c0 5 -3 8 -5 7c-29 -20 -69 -46 -82 -51c-17 -7 -39 -12 -67 -12c-36 0 -68 16 -88 47c-7 11 -14 31 -14 47c0 72 0 185 -2 238c-1 28 -20 32 -37 39c-9 4 -18 9 -18 18c0 3 5 9 17 9
c28 0 102 11 106 11s8 -9 8 -15c1 -34 -3 -223 -3 -268c0 -23 11 -46 25 -56c26 -20 44 -20 68 -20zM152 600c24 0 41 -23 41 -46c0 -30 -22 -44 -43 -44c-18 0 -42 15 -42 43c0 24 17 47 44 47zM321 599c23 0 43 -23 43 -45c0 -24 -21 -44 -45 -44c-22 0 -43 18 -43 43
c0 29 24 46 45 46z" />
    <glyph glyph-name="ugrave" unicode="&#xf9;" horiz-adv-x="498" 
d="M246 38c24 0 51 13 76 35c6 5 15 20 15 24l2 230c0 6 -11 20 -17 22l-46 12c-7 2 -20 8 -20 16c0 4 13 9 23 9c40 0 84 5 107 11c10 3 17 4 24 4c5 0 7 -11 7 -15c-2 -28 -10 -250 -10 -332c0 -2 4 -14 12 -14c7 0 38 5 50 5c4 0 11 -16 12 -19c0 -3 -7 -10 -11 -10
c-26 -2 -68 -13 -91 -19c-17 -5 -33 -9 -35 -9c-4 0 -10 7 -10 14c0 6 3 25 4 42c0 5 -3 8 -5 7c-29 -20 -69 -46 -82 -51c-17 -7 -39 -12 -67 -12c-36 0 -68 16 -88 47c-7 11 -14 31 -14 47c0 72 0 185 -2 238c-1 28 -20 32 -37 39c-9 4 -18 9 -18 18c0 3 5 9 17 9
c28 0 102 11 106 11s8 -9 8 -15c1 -34 -3 -223 -3 -268c0 -23 11 -46 25 -56c26 -20 44 -20 68 -20zM181 655c7 0 13 -5 26 -35c13 -27 46 -107 60 -149c3 -9 4 -25 -4 -25s-18 9 -23 16c-34 44 -86 126 -94 140c-7 13 -9 17 -8 26c0 6 6 14 16 18c6 3 21 9 27 9z" />
    <glyph glyph-name="yacute" unicode="&#xfd;" horiz-adv-x="414" 
d="M-5 382c0 4 3 12 24 12c25 0 49 -4 78 -4c28 0 58 2 70 2c8 0 22 -3 22 -11c0 -7 -7 -13 -23 -17c-28 -8 -31 -13 -21 -39c15 -48 79 -205 87 -217c1 -2 5 -2 8 4c12 27 74 189 79 205c9 28 1 40 -38 49c-12 3 -21 10 -21 14c0 9 13 11 25 11c19 0 46 -1 59 -1
c14 0 37 4 63 4c13 0 20 -2 20 -9c0 -9 -10 -13 -22 -17c-21 -7 -34 -19 -49 -52c-33 -75 -87 -209 -110 -267c-35 -91 -72 -194 -104 -279c-4 -13 -23 -28 -52 -28c-34 0 -45 28 -45 49c0 17 16 44 44 44c5 0 26 -1 36 -1c9 0 11 7 15 17c9 16 41 104 48 129
c3 14 7 27 3 36l-15 41c-21 59 -83 208 -114 271c-9 18 -14 28 -47 39c-14 5 -20 9 -20 15zM263 626c7 14 18 21 24 21c9 0 36 -2 43 -10c3 -4 0 -17 -5 -27c-20 -38 -68 -116 -92 -147c-7 -9 -17 -19 -26 -19s-8 17 -5 27c12 36 42 113 61 155z" />
    <glyph glyph-name="ydieresis" unicode="&#xff;" horiz-adv-x="414" 
d="M-5 382c0 4 3 12 24 12c25 0 49 -4 78 -4c28 0 58 2 70 2c8 0 22 -3 22 -11c0 -7 -7 -13 -23 -17c-28 -8 -31 -13 -21 -39c15 -48 79 -205 87 -217c1 -2 5 -2 8 4c12 27 74 189 79 205c9 28 1 40 -38 49c-12 3 -21 10 -21 14c0 9 13 11 25 11c19 0 46 -1 59 -1
c14 0 37 4 63 4c13 0 20 -2 20 -9c0 -9 -10 -13 -22 -17c-21 -7 -34 -19 -49 -52c-33 -75 -87 -209 -110 -267c-35 -91 -72 -194 -104 -279c-4 -13 -23 -28 -52 -28c-34 0 -45 28 -45 49c0 17 16 44 44 44c5 0 26 -1 36 -1c9 0 11 7 15 17c9 16 41 104 48 129
c3 14 7 27 3 36l-15 41c-21 59 -83 208 -114 271c-9 18 -14 28 -47 39c-14 5 -20 9 -20 15zM137 600c24 0 41 -23 41 -46c0 -30 -22 -44 -43 -44c-18 0 -42 15 -42 43c0 24 17 47 44 47zM306 599c23 0 43 -23 43 -45c0 -24 -21 -44 -45 -44c-22 0 -43 18 -43 43
c0 29 24 46 45 46z" />
    <glyph glyph-name="zcaron" unicode="&#x17e;" horiz-adv-x="392" 
d="M204 390c73 0 117 5 139 4c4 0 4 0 8 -3s6 -11 3 -15c-17 -23 -35 -43 -60 -80c-27 -40 -111 -177 -153 -245c-4 -4 0 -9 3 -10c8 -3 88 -8 128 -8c10 0 16 4 24 12c14 14 32 35 49 59c9 13 17 22 21 22c8 0 9 -13 8 -19c-3 -15 -20 -64 -27 -100c0 -4 -9 -12 -13 -12
c-7 0 -151 5 -199 5c-44 0 -70 -3 -93 -4c-4 0 -13 9 -13 14c0 6 40 63 70 107c29 40 99 154 146 230c2 3 1 7 -3 8c-7 2 -82 6 -129 6c-9 0 -42 -35 -59 -63c-3 -6 -8 -16 -15 -16c-4 0 -10 9 -10 17c0 9 3 19 8 34c6 20 10 45 10 62c0 1 0 5 3 8c6 5 10 5 11 4
c12 -9 34 -17 52 -17h91zM195 443c-7 0 -17 15 -29 39c-11 20 -38 70 -65 125c-3 6 -15 33 2 33c7 0 21 -11 26 -18c22 -30 45 -63 62 -88c2 -3 8 -6 11 -2c20 31 40 58 63 91c4 6 15 15 24 15c6 0 9 -11 5 -22c-15 -42 -49 -98 -71 -139c-10 -20 -21 -34 -28 -34z" />
    <glyph glyph-name="twodotenleader" unicode="&#x2025;" horiz-adv-x="500" 
d="M127 109c44 0 57 -40 57 -61c0 -34 -25 -60 -58 -60c-26 0 -60 15 -60 60c0 46 42 61 61 61zM376 109c45 0 58 -40 58 -61c0 -34 -25 -60 -59 -60c-25 0 -58 15 -58 60c0 46 41 61 59 61z" />
    <glyph glyph-name="onedotenleader" unicode="&#x2024;" horiz-adv-x="500" 
d="M251 110c45 0 59 -39 59 -61c0 -34 -26 -60 -59 -60c-26 0 -60 15 -60 60c0 47 42 61 60 61z" />
    <glyph glyph-name="emdash.alt" horiz-adv-x="660" 
d="M63 240l541 -1c4 0 9 -7 9 -13c0 -13 -6 -41 -13 -41l-539 1c-6 0 -11 11 -11 14c0 21 7 40 13 40z" />
    <glyph glyph-name="colonmonetary" unicode="&#x20a1;" horiz-adv-x="486" 
d="M267 620l9 78c0 2 3 6 6 6c9 0 22 -5 22 -10l-8 -69c0 -4 4 -7 8 -7c12 0 23 0 35 -1c8 -1 9 4 9 6l9 76c0 2 5 5 8 5c7 0 21 -5 21 -10l-9 -75c0 -3 2 -9 6 -10c26 -7 43 -14 69 -21c4 -2 8 -3 8 -33v-63c0 -20 -12 -24 -14 -24c-5 0 -10 5 -13 19c-9 36 -26 67 -57 87
c-3 3 -5 0 -6 -5l-55 -531c0 -2 2 -7 4 -7c58 4 92 35 111 77c13 29 21 37 26 37c7 0 11 -6 9 -21c-3 -21 -12 -50 -15 -65c-5 -27 -22 -30 -35 -37c-7 -4 -51 -16 -98 -20c-3 0 -7 -4 -8 -13l-9 -74c-2 -4 -11 -9 -15 -8c-7 0 -15 5 -15 9l9 79c0 5 -1 6 -5 6
c-13 1 -29 2 -40 5c-3 1 -6 1 -7 -3l-12 -92c-3 -4 -16 -9 -20 -8c-6 0 -11 3 -11 7l13 99c1 7 -2 11 -5 12c-102 45 -160 164 -160 283c0 164 92 283 228 309c3 1 6 3 7 7zM205 81l56 496c0 3 -2 8 -6 7c-86 -29 -134 -150 -134 -273c0 -90 28 -184 78 -233c2 -1 6 -1 6 3z
M284 36l59 540c1 3 -1 11 -5 12c-12 2 -27 2 -41 2c-3 -1 -6 -4 -6 -7l-58 -531c0 -1 2 -2 4 -4c13 -8 31 -15 41 -16c3 -1 5 2 6 4z" />
    <glyph glyph-name="R_p" unicode="&#xf6dd;" horiz-adv-x="920" 
d="M454 449c0 -85 -59 -121 -101 -139c-3 -2 -4 -6 -1 -14c21 -43 86 -163 129 -219c20 -26 42 -42 58 -51c3 -3 7 4 7 6c0 49 0 173 -1 223c-1 36 -2 44 -14 56c-17 17 -23 20 -23 27c0 5 10 12 23 17c11 4 44 13 60 23c9 5 18 9 20 9c3 0 7 -7 7 -12c0 -17 -2 -25 -2 -40
c0 -4 3 -5 4 -5c15 9 41 23 61 32c15 7 32 13 55 13c91 0 151 -78 151 -172c0 -68 -30 -122 -77 -162s-104 -51 -126 -51s-45 2 -59 6c-4 1 -7 -4 -7 -16c0 -101 1 -114 2 -131c1 -27 4 -35 40 -44c19 -5 26 -10 26 -16c0 -8 -13 -15 -21 -15c-2 0 -50 3 -87 3
c-23 0 -68 -4 -90 -4c-18 0 -26 6 -26 14c0 7 5 12 22 16c41 9 57 14 61 84c1 18 0 31 1 88c0 5 -1 15 -6 15c-48 2 -99 13 -147 73c-25 33 -62 110 -110 187c-12 18 -33 34 -67 34c-14 0 -22 -4 -23 -11c-3 -24 1 -181 1 -189c3 -40 15 -47 55 -58c15 -5 24 -10 24 -18
s-11 -12 -25 -12c-30 0 -76 4 -110 4c-40 0 -52 -3 -87 -3c-10 0 -21 5 -21 12c0 9 9 13 20 16c44 10 58 18 61 55c5 49 6 125 6 267c0 148 -1 173 -3 190c-3 16 -9 19 -53 30c-12 3 -19 7 -19 15c0 7 13 12 22 12h81c32 0 73 5 121 5c89 0 188 -44 188 -150zM692 325
c-24 0 -45 -5 -64 -22c-4 -3 -10 -16 -10 -27v-164c0 -18 0 -29 7 -40c19 -29 52 -46 82 -46c19 0 34 5 53 17c25 15 55 65 55 132c0 77 -44 150 -123 150zM370 443c0 59 -41 126 -128 126c-15 0 -27 -3 -36 -7c-5 -2 -8 -9 -9 -24c-1 -36 -6 -183 -2 -207
c2 -12 1 -16 8 -18c8 -3 7 -4 28 -4c28 0 52 5 70 13c29 11 69 38 69 121z" />
    <glyph glyph-name="figuredash" unicode="&#x2012;" horiz-adv-x="292" 
d="M51 333c55 8 160 21 195 22c2 0 8 -8 8 -10c0 -20 -8 -48 -16 -49c-26 -5 -134 -14 -190 -19c-6 -1 -13 5 -13 10c0 15 9 45 16 46z" />
    <glyph glyph-name="oneeighth" unicode="&#x215b;" horiz-adv-x="662" 
d="M188 618c0 -5 -1 -30 -2 -80c0 -56 1 -135 2 -190c1 -35 8 -35 46 -47c5 -2 15 -5 15 -11s-5 -12 -18 -12c-9 0 -58 2 -80 2c-39 0 -65 -2 -73 -2c-7 0 -19 4 -19 10c0 8 5 12 27 17c27 6 34 13 36 32c3 21 5 77 5 141c0 39 -1 59 -2 71c0 5 -5 13 -11 15
c-11 4 -21 8 -32 11c-7 2 -18 6 -18 12c0 7 9 9 17 10c43 3 90 24 97 28c4 3 10 2 10 -7zM537 643c13 0 25 -10 18 -21c-151 -239 -369 -591 -411 -650c-1 -2 -7 -4 -12 0c-8 6 -14 17 -8 27c135 214 367 587 397 632c6 10 13 12 16 12zM514 345c54 0 98 -34 98 -82
c0 -39 -25 -56 -55 -76c-3 -2 -4 -4 2 -8c25 -16 66 -41 66 -90c0 -55 -59 -97 -114 -97c-76 0 -110 47 -110 86c0 33 22 49 67 80c3 1 8 2 1 6c-34 24 -56 48 -56 90c0 54 51 91 101 91zM511 322c-31 0 -51 -27 -51 -53c0 -27 25 -52 69 -72c5 -2 7 -1 10 1
c15 9 27 28 27 61c0 22 -23 63 -55 63zM521 16c24 0 51 19 51 52c0 34 -38 62 -77 80c-3 1 -5 2 -9 -1c-18 -13 -34 -29 -34 -60c0 -37 29 -71 69 -71z" />
    <glyph glyph-name="threeeighths" unicode="&#x215c;" horiz-adv-x="654" 
d="M148 627c52 0 80 -38 80 -67c0 -32 -20 -51 -51 -71c-2 -1 -2 -5 1 -6c51 -6 81 -33 81 -77c0 -50 -36 -96 -92 -123c-27 -14 -61 -17 -73 -17c-23 0 -59 17 -59 35c0 14 14 27 22 30c5 2 7 2 11 -2c21 -18 49 -28 72 -28c34 0 63 42 63 73c0 38 -21 73 -66 73
c-15 0 -21 -3 -39 -7c-4 -1 -10 0 -10 2c0 5 0 6 2 10c7 12 11 16 26 22c42 18 55 28 55 63c0 22 -21 47 -46 47c-22 0 -43 -14 -59 -27c-13 -12 -20 -11 -20 -3c0 4 1 9 3 13c17 28 51 60 99 60zM523 643c13 0 25 -10 18 -21c-151 -239 -369 -591 -411 -650
c-1 -2 -7 -4 -12 0c-8 6 -14 17 -8 27c135 214 367 587 397 632c6 10 13 12 16 12zM505 345c54 0 98 -34 98 -82c0 -39 -25 -56 -55 -76c-3 -2 -4 -4 2 -8c25 -16 66 -41 66 -90c0 -55 -59 -97 -114 -97c-76 0 -110 47 -110 86c0 33 22 49 67 80c3 1 8 2 1 6
c-34 24 -56 48 -56 90c0 54 51 91 101 91zM502 322c-31 0 -51 -27 -51 -53c0 -27 25 -52 69 -72c5 -2 7 -1 10 1c15 9 27 28 27 61c0 22 -23 63 -55 63zM512 16c24 0 51 19 51 52c0 34 -38 62 -77 80c-3 1 -5 2 -9 -1c-18 -13 -34 -29 -34 -60c0 -37 29 -71 69 -71z" />
    <glyph glyph-name="fiveeighths" unicode="&#x215d;" horiz-adv-x="655" 
d="M255 397c0 -84 -105 -131 -181 -131h-12c-5 0 -9 3 -9 7c0 7 11 16 15 17c52 6 129 37 129 94c0 53 -76 77 -138 86c-6 1 -11 11 -11 15c0 24 15 80 26 103c1 3 11 17 14 18c15 6 102 21 141 21c4 0 8 -4 8 -6c1 -16 -19 -54 -34 -55c-35 -2 -94 -3 -105 -6
c-3 -1 -9 -3 -12 -9c-4 -8 -6 -15 -6 -20c0 -1 2 -7 11 -9c75 -16 164 -43 164 -125zM523 643c13 0 25 -10 18 -21c-151 -239 -369 -591 -411 -650c-1 -2 -7 -4 -12 0c-8 6 -14 17 -8 27c135 214 367 587 397 632c6 10 13 12 16 12zM506 345c54 0 98 -34 98 -82
c0 -39 -25 -56 -55 -76c-3 -2 -4 -4 2 -8c25 -16 66 -41 66 -90c0 -55 -59 -97 -114 -97c-76 0 -110 47 -110 86c0 33 22 49 67 80c3 1 8 2 1 6c-34 24 -56 48 -56 90c0 54 51 91 101 91zM503 322c-31 0 -51 -27 -51 -53c0 -27 25 -52 69 -72c5 -2 7 -1 10 1
c15 9 27 28 27 61c0 22 -23 63 -55 63zM513 16c24 0 51 19 51 52c0 34 -38 62 -77 80c-3 1 -5 2 -9 -1c-18 -13 -34 -29 -34 -60c0 -37 29 -71 69 -71z" />
    <glyph glyph-name="seveneighths" unicode="&#x215e;" horiz-adv-x="636" 
d="M143 619c84 0 119 1 128 1c4 0 7 -9 6 -12c-15 -23 -72 -140 -112 -225c-26 -58 -49 -104 -51 -108c-1 -2 -7 -8 -13 -8c-11 0 -18 6 -18 13s3 13 8 23c48 89 99 184 130 247c2 4 2 8 2 9c0 3 -3 6 -35 6c-30 0 -87 0 -103 -1c-16 -2 -22 -7 -24 -11
c-4 -5 -14 -22 -17 -25c-4 -4 -13 -9 -16 -9c-5 0 -9 5 -6 13c7 16 22 62 26 81c1 5 5 10 7 9c14 -3 41 -3 88 -3zM489 643c13 0 25 -10 18 -21c-151 -239 -369 -591 -411 -650c-1 -2 -7 -4 -12 0c-8 6 -14 17 -8 27c135 214 367 587 397 632c6 10 13 12 16 12zM487 345
c54 0 98 -34 98 -82c0 -39 -25 -56 -55 -76c-3 -2 -4 -4 2 -8c25 -16 66 -41 66 -90c0 -55 -59 -97 -114 -97c-76 0 -110 47 -110 86c0 33 22 49 67 80c3 1 8 2 1 6c-34 24 -56 48 -56 90c0 54 51 91 101 91zM484 322c-31 0 -51 -27 -51 -53c0 -27 25 -52 69 -72
c5 -2 7 -1 10 1c15 9 27 28 27 61c0 22 -23 63 -55 63zM494 16c24 0 51 19 51 52c0 34 -38 62 -77 80c-3 1 -5 2 -9 -1c-18 -13 -34 -29 -34 -60c0 -37 29 -71 69 -71z" />
    <glyph glyph-name="onethird" unicode="&#x2153;" horiz-adv-x="679" 
d="M188 618c0 -5 -1 -30 -2 -80c0 -56 1 -135 2 -190c1 -35 8 -35 46 -47c5 -2 15 -5 15 -11s-5 -12 -18 -12c-9 0 -58 2 -80 2c-39 0 -65 -2 -73 -2c-7 0 -19 4 -19 10c0 8 5 12 27 17c27 6 34 13 36 32c3 21 5 77 5 141c0 39 -1 59 -2 71c0 5 -5 13 -11 15
c-11 4 -21 8 -32 11c-7 2 -18 6 -18 12c0 7 9 9 17 10c43 3 90 24 97 28c4 3 10 2 10 -7zM537 643c13 0 25 -10 18 -21c-151 -239 -369 -591 -411 -650c-1 -2 -7 -4 -12 0c-8 6 -14 17 -8 27c135 214 367 587 397 632c6 10 13 12 16 12zM528 347c52 0 80 -38 80 -67
c0 -32 -20 -51 -51 -71c-2 -1 -2 -5 1 -6c51 -6 81 -33 81 -77c0 -50 -36 -96 -92 -123c-27 -14 -61 -17 -73 -17c-23 0 -59 17 -59 35c0 14 14 27 22 30c5 2 7 2 11 -2c21 -18 49 -28 72 -28c34 0 63 42 63 73c0 38 -21 73 -66 73c-15 0 -21 -3 -39 -7c-4 -1 -10 0 -10 2
c0 5 0 6 2 10c7 12 11 16 26 22c42 18 55 28 55 63c0 22 -21 47 -46 47c-22 0 -43 -14 -59 -27c-13 -12 -20 -11 -20 -3c0 4 1 9 3 13c17 28 51 60 99 60z" />
    <glyph glyph-name="twothirds" unicode="&#x2154;" horiz-adv-x="678" 
d="M139 625c57 0 100 -46 100 -100c0 -27 -12 -57 -43 -90c-31 -34 -58 -60 -93 -93c-5 -5 1 -8 3 -8c27 0 109 -1 114 0c7 0 18 6 36 29c4 5 10 11 16 11c7 0 8 -14 4 -23c-14 -28 -22 -62 -23 -67c-2 -5 -4 -6 -8 -6c-3 0 -114 3 -142 2l-61 -1c-9 0 -18 5 -18 9
s3 10 8 14c26 23 68 66 98 101c30 36 44 71 44 111c0 37 -26 57 -58 57c-28 0 -54 -15 -68 -31c-7 -6 -13 -10 -18 -10c-4 0 -7 5 -7 8c0 5 0 12 9 23c23 32 61 64 107 64zM547 643c13 0 25 -10 18 -21c-151 -239 -369 -591 -411 -650c-1 -2 -7 -4 -12 0c-8 6 -14 17 -8 27
c135 214 367 587 397 632c6 10 13 12 16 12zM528 347c52 0 80 -38 80 -67c0 -32 -20 -51 -51 -71c-2 -1 -2 -5 1 -6c51 -6 81 -33 81 -77c0 -50 -36 -96 -92 -123c-27 -14 -61 -17 -73 -17c-23 0 -59 17 -59 35c0 14 14 27 22 30c5 2 7 2 11 -2c21 -18 49 -28 72 -28
c34 0 63 42 63 73c0 38 -21 73 -66 73c-15 0 -21 -3 -39 -7c-4 -1 -10 0 -10 2c0 5 0 6 2 10c7 12 11 16 26 22c42 18 55 28 55 63c0 22 -21 47 -46 47c-22 0 -43 -14 -59 -27c-13 -12 -20 -11 -20 -3c0 4 1 9 3 13c17 28 51 60 99 60z" />
    <glyph glyph-name="zero.slash" unicode="&#xf638;" horiz-adv-x="486" 
d="M167 86c21 -37 50 -70 88 -70c36 0 60 26 75 53c23 44 37 117 37 244c0 57 -7 117 -21 164c-1 6 -4 5 -5 1c-52 -113 -124 -268 -174 -378c-2 -5 -2 -11 0 -14zM236 601c-28 0 -52 -17 -69 -45c-20 -32 -49 -81 -49 -240c0 -56 8 -121 25 -174c1 -4 6 -5 7 0l174 381
c1 3 0 12 -1 14c-20 36 -51 64 -87 64zM251 631c158 0 198 -205 198 -312c0 -161 -58 -267 -114 -303c-29 -19 -62 -29 -92 -28c-150 3 -205 188 -205 316c0 161 58 260 121 300c27 17 54 27 92 27z" />
    <glyph glyph-name="Euro" unicode="&#x20ac;" horiz-adv-x="486" 
d="M367 374c0 -13 -9 -26 -18 -26l-195 3c-1 0 -6 -3 -6 -7c-1 -13 -1 -45 0 -52c1 -5 3 -6 7 -6l186 2c5 0 8 -19 8 -22c0 -10 -12 -16 -16 -16l-178 3c-2 0 -3 -3 -3 -7c7 -110 65 -220 165 -220c50 0 87 36 108 82c10 21 18 29 22 29c7 0 11 -11 11 -21
c0 -23 -11 -59 -20 -75c-10 -17 -13 -16 -31 -27c-14 -8 -54 -21 -109 -21c-126 0 -216 98 -235 253c-1 7 -2 7 -9 8l-39 1c-9 0 -11 1 -11 8c0 9 13 21 19 22h31c5 0 7 2 7 7c0 10 1 45 1 54c0 1 -1 6 -6 6l-25 1c-5 0 -9 4 -9 6c0 10 11 21 18 21h21c2 0 7 6 7 8
c7 57 60 244 247 244c25 0 47 -2 70 -10c18 -6 38 -13 59 -16c6 0 8 -24 8 -34v-63c0 -19 -8 -26 -11 -26c-7 0 -13 7 -17 21c-9 28 -17 48 -38 69c-8 9 -42 33 -77 33c-91 0 -140 -89 -157 -217c-1 -4 2 -8 5 -8l204 4c3 0 6 -8 6 -11z" />
    <glyph glyph-name="franc" unicode="&#x20a3;" horiz-adv-x="486" 
d="M313 194c0 -17 -7 -22 -13 -22l-93 -1c-3 0 -8 -4 -8 -9c0 -8 1 -65 1 -70c4 -47 4 -55 53 -68c16 -4 26 -9 26 -17c0 -7 -8 -12 -27 -12c-25 0 -67 5 -104 5c-38 0 -71 -3 -91 -3c-14 0 -21 6 -21 12c0 8 10 14 24 17c40 9 55 27 58 56c1 16 1 43 2 79c0 5 -1 9 -7 9
l-54 1c-4 0 -5 4 -5 12s5 21 9 21l52 1c4 0 7 4 7 8c1 41 1 98 1 165c0 95 0 137 -2 164c-2 33 -16 46 -54 55c-19 4 -24 10 -24 17s8 10 23 10c46 0 89 -5 114 -5h65c129 0 174 1 192 10c1 0 9 -6 9 -9c-2 -31 -1 -74 0 -108c1 -13 -3 -22 -11 -22s-16 7 -21 27
c-8 34 -27 63 -61 67c-29 3 -105 7 -142 7c-5 0 -6 -6 -8 -12c-4 -13 -7 -200 -4 -216c2 -6 6 -12 12 -12c65 0 88 1 110 2c30 2 31 17 43 44c6 15 10 23 20 23c9 0 9 -14 9 -22c0 -13 -1 -30 -1 -49c0 -28 3 -65 3 -79c0 -10 -1 -20 -13 -20c-4 0 -9 4 -15 19
c-10 24 -20 39 -33 42c-18 4 -95 5 -131 5c-3 0 -5 -6 -5 -7c-2 -13 -1 -73 1 -94c1 -4 4 -10 8 -10h99c4 0 7 -9 7 -11z" />
    <glyph glyph-name="lira" unicode="&#x20a4;" horiz-adv-x="486" 
d="M41 234c-4 0 -5 7 -5 13c0 9 5 18 9 19c28 0 64 3 79 4c2 0 5 4 6 8c2 11 4 33 5 44c0 2 1 10 -5 10l-66 -2c-4 0 -6 5 -6 10c0 10 7 20 11 21l62 4c6 1 8 4 9 10c17 106 42 179 104 225c25 18 59 31 98 31c64 0 97 -39 97 -74c0 -43 -27 -60 -45 -60c-9 0 -10 0 -9 10
c1 9 0 17 1 26c0 45 -24 72 -59 72c-56 0 -88 -77 -108 -228c-1 -8 0 -11 4 -11l136 4c4 0 8 -2 7 -15c-2 -12 -8 -15 -12 -15l-136 -5c-2 0 -4 -3 -5 -7l-7 -48c0 -2 1 -8 3 -8l127 4c5 0 7 -4 6 -13c0 -11 -8 -19 -12 -19l-128 -6c-3 0 -7 -4 -8 -9
c-10 -44 -34 -84 -62 -114c-3 -3 -3 -6 2 -7c25 -2 62 -3 123 -39c34 -20 73 -45 97 -45c34 0 67 7 69 65c1 22 -2 48 -7 59c-1 7 7 14 10 14c19 0 39 -19 40 -52c1 -66 -81 -150 -169 -150c-39 0 -91 45 -135 80c-24 20 -45 28 -58 28c-11 0 -37 -45 -52 -59
c-10 -9 -25 -21 -36 -21c-15 0 -27 8 -26 23c0 21 40 74 86 89c7 3 13 13 17 20c15 24 28 72 32 110c0 5 -3 6 -5 6c-14 0 -52 -1 -79 -2z" />
    <glyph glyph-name="peseta" unicode="&#x20a7;" horiz-adv-x="486" 
d="M458 436c4 0 5 -4 5 -11c0 -9 -7 -21 -12 -21h-18c-5 0 -7 -5 -8 -9c-8 -64 -39 -97 -64 -117c-25 -23 -65 -36 -100 -36c-10 0 -23 1 -33 5c-14 6 -18 11 -18 17c0 4 4 10 8 10c3 0 17 -1 27 -1c39 0 95 41 103 122c0 4 -1 9 -4 9h-169c-3 0 -7 -4 -7 -11
c-1 -92 -1 -190 0 -281c0 -60 4 -73 62 -85c19 -4 26 -11 26 -18c0 -8 -12 -12 -25 -12c-25 0 -71 3 -110 3c-28 0 -55 -3 -82 -3c-18 0 -27 6 -27 13s9 11 20 14c46 14 48 21 53 74c1 16 5 119 6 294c0 5 -3 12 -7 12h-43c-2 0 -4 2 -4 10s4 22 10 22h39c2 0 5 2 5 6v86
c-1 36 -9 46 -46 57c-19 5 -29 11 -29 17c0 9 6 9 18 11c6 1 20 1 28 1c37 0 89 8 148 8c82 0 131 -23 162 -57c37 -37 52 -88 55 -124c0 -2 2 -5 5 -5h26zM174 436h169c3 0 5 4 4 10c-9 81 -58 147 -142 147c-16 0 -23 -3 -28 -7c-6 -5 -8 -17 -8 -40
c-1 -10 -1 -59 -1 -103c0 -3 4 -7 6 -7z" />
    <glyph glyph-name="percent.alt" horiz-adv-x="633" 
d="M477 162c-86 0 -116 74 -116 132c0 71 41 140 120 140c80 0 112 -77 112 -131c0 -67 -38 -141 -116 -141zM155 359c-81 0 -115 74 -115 132c0 71 39 140 118 140s114 -77 114 -131c0 -67 -40 -141 -117 -141zM456 647c7 0 24 -17 20 -24c-91 -150 -242 -392 -295 -472
c-1 -1 -11 -4 -15 1c-9 9 -9 21 -7 25c63 100 252 408 285 461c4 7 9 9 12 9zM161 383c38 0 47 76 47 107c0 34 -10 119 -56 119c-40 0 -48 -65 -48 -108c0 -34 12 -118 57 -118zM484 186c36 0 46 75 46 108s-13 118 -58 118c-40 0 -46 -73 -46 -107s13 -119 58 -119z" />
    <glyph glyph-name="uni2116" unicode="&#x2116;" horiz-adv-x="861" 
d="M520 631c25 0 39 -13 43 -24c3 -7 -8 -14 -13 -15c-46 -10 -82 -47 -82 -162v-279c0 -62 3 -167 -14 -167c-31 0 -56 63 -71 90l-214 408c-4 7 -10 3 -10 -1c0 -107 -1 -205 -1 -309c1 -154 -47 -188 -87 -188c-32 0 -52 24 -52 47c0 11 7 20 12 19c6 -1 12 -2 19 -2
c38 0 72 25 76 164c1 45 3 248 0 296c-3 44 -8 61 -35 73c-15 6 -35 15 -47 19c-11 2 -20 6 -20 15c0 6 9 9 24 9c21 0 71 -5 119 -5c6 0 12 -8 18 -15c15 -17 24 -42 53 -94c46 -85 148 -265 195 -355c1 -2 6 0 6 7c1 110 -5 266 -5 320c-1 116 53 149 86 149zM690 264
c-91 0 -141 83 -141 157c0 106 77 163 140 163c81 0 137 -67 137 -162c0 -72 -48 -158 -136 -158zM698 289c48 0 60 86 60 122c0 76 -25 147 -75 147c-41 0 -63 -56 -63 -121c0 -82 28 -148 78 -148zM601 212l200 23c4 0 9 -5 9 -11c0 -12 -13 -37 -19 -38l-200 -27
c-3 0 -9 3 -9 8c0 13 12 45 19 45z" />
    <glyph glyph-name="estimated" unicode="&#x212e;" horiz-adv-x="817" 
d="M782 316h-605c-3 0 -5 -1 -5 -4v-183c0 -8 4 -15 9 -21c57 -61 139 -99 229 -99c96 0 182 43 240 111h55c-68 -79 -176 -131 -296 -131c-206 0 -374 150 -374 336s168 336 374 336s373 -150 373 -336v-9zM646 340v184c0 9 -4 16 -10 22c-58 58 -138 95 -226 95
c-90 0 -170 -38 -228 -98c-6 -6 -10 -14 -10 -23v-180c0 -3 2 -5 5 -5h464c3 0 5 2 5 5z" />
    <glyph glyph-name="estimated.alt" horiz-adv-x="600" 
d="M345 622c136 0 216 -89 216 -204c0 -12 -28 -34 -48 -34c-17 0 -286 0 -364 1c-3 0 -11 -6 -12 -8c-2 -11 -5 -26 -5 -63c0 -147 98 -264 234 -264c82 0 137 33 170 73c6 7 13 15 19 15c4 0 6 -8 6 -14s-5 -21 -11 -28c-53 -79 -143 -108 -223 -108
c-183 0 -284 149 -284 309c0 86 32 188 114 255c53 45 115 70 188 70zM333 593c-94 0 -166 -78 -186 -167c-1 -3 2 -9 6 -9c42 -3 171 -1 251 2c35 1 67 9 67 49c0 51 -51 125 -138 125z" />
    <glyph glyph-name="Q.alt" horiz-adv-x="780" 
d="M397 661c199 0 335 -168 335 -328c0 -181 -104 -277 -215 -327c-2 -2 -7 -6 -4 -11c15 -26 205 -148 360 -211c102 -40 202 -62 292 -62c95 0 171 21 218 52c14 10 22 5 22 -1c0 -7 -7 -21 -24 -34c-47 -41 -163 -75 -261 -75c-227 0 -401 89 -701 280
c-45 28 -122 54 -152 64c-94 34 -217 131 -217 311c0 125 61 218 135 273c49 37 121 69 212 69zM369 625c-39 0 -79 -10 -116 -35c-88 -58 -105 -173 -105 -251c0 -102 41 -186 97 -243c48 -52 121 -84 159 -84c20 0 79 8 123 32c39 21 106 103 106 246
c0 68 -11 165 -78 246c-45 56 -120 89 -186 89z" />
    <glyph glyph-name="W.alt" horiz-adv-x="973" 
d="M3 636c0 5 6 10 24 10c21 0 72 -3 93 -3c29 0 68 4 113 4c16 0 23 -4 23 -11c-1 -11 -10 -15 -26 -18c-35 -7 -48 -26 -39 -59c9 -32 105 -311 139 -410c1 -3 4 -8 8 -2c14 29 102 242 132 324c3 9 2 30 1 33c-2 11 -20 71 -25 81c-9 13 -12 26 -43 32
c-12 2 -26 8 -26 17c0 8 11 12 29 12c17 0 61 -3 88 -3s79 2 97 2c15 0 24 -5 24 -13c0 -7 -6 -12 -26 -17c-30 -7 -49 -18 -50 -36c0 -14 9 -36 19 -72c19 -58 105 -286 128 -347c4 -8 7 -9 9 -4c29 73 86 225 120 325c23 65 24 80 24 94c-1 19 -10 34 -61 44
c-9 2 -24 7 -23 16c0 6 10 12 28 12c38 0 58 -4 91 -4c36 0 65 3 84 3c22 0 25 -6 25 -12c0 -8 -11 -14 -22 -17c-51 -15 -52 -16 -83 -83c-23 -51 -103 -261 -143 -375c-11 -29 -34 -105 -51 -154c-3 -9 -11 -19 -22 -19c-10 0 -16 17 -25 51c-20 68 -101 290 -140 389
c-2 6 -7 2 -9 -1c-46 -109 -119 -282 -139 -340c-13 -38 -25 -71 -30 -83c-6 -11 -18 -21 -21 -21c-9 0 -16 10 -18 20c-9 38 -25 98 -47 168c-33 106 -105 318 -146 405c-12 26 -36 34 -64 43c-10 3 -20 10 -20 19z" />
    <glyph glyph-name="a.end" horiz-adv-x="580" 
d="M211 404c50 0 77 -24 92 -46c14 -20 21 -42 21 -84c0 -39 -4 -164 -4 -175c0 -35 8 -43 19 -49c16 -13 48 -20 92 -20c34 0 51 3 64 13c7 5 11 13 11 29c0 9 -4 33 -5 37c-2 8 1 16 5 18c9 8 35 28 43 27c12 -1 17 -22 17 -34c0 -30 -13 -57 -40 -84
c-32 -33 -89 -51 -135 -51c-63 0 -99 9 -119 22c-6 4 -16 16 -18 26c-1 7 -6 10 -12 6c-34 -19 -74 -37 -85 -42s-23 -9 -40 -9c-36 0 -75 49 -75 99c0 22 3 36 13 50c11 13 27 18 42 24c15 7 102 26 125 33c24 7 29 12 30 18c1 9 1 72 1 84c0 25 -24 62 -75 62
c-32 0 -42 -7 -49 -11c-3 -2 -4 -15 -4 -36c0 -4 -2 -5 -4 -7c-3 -3 -65 -33 -70 -33c-6 0 -14 10 -14 15c0 28 35 54 82 85c30 21 69 33 92 33zM172 43c15 0 41 5 63 19c10 6 12 13 13 24c2 26 2 58 2 76c0 3 -4 7 -10 6c-25 -2 -65 -13 -89 -19c-28 -8 -35 -23 -35 -47
c0 -34 35 -59 56 -59z" />
    <glyph glyph-name="d.end" horiz-adv-x="674" 
d="M342 33c0 5 -3 7 -9 3c-54 -30 -101 -48 -129 -48c-48 0 -89 20 -119 51c-35 36 -55 88 -55 141c0 99 58 156 107 185c34 21 88 39 132 39c35 0 50 -4 65 -8c5 -2 8 7 8 12c1 24 0 197 0 213c0 23 -17 31 -44 41c-10 3 -19 9 -19 15c0 4 8 8 12 9c24 3 83 14 107 24
c5 2 9 4 13 4s8 -8 8 -19c0 -17 -5 -207 -5 -393c0 -202 0 -207 2 -226c1 -13 6 -20 13 -26c9 -9 56 -15 77 -15c57 0 77 3 89 15c7 6 10 15 10 27c0 13 -9 37 -11 42c-2 3 -2 13 7 22c8 8 33 30 42 30c11 0 19 -21 19 -38c0 -52 -39 -98 -64 -113c-29 -17 -55 -24 -98 -24
c-41 0 -69 3 -89 3s-52 -3 -59 -5s-12 3 -12 10s2 22 2 29zM342 109c1 64 1 124 0 178c0 11 -4 25 -19 44c-17 20 -55 36 -96 36c-32 0 -64 -18 -78 -37c-22 -28 -36 -70 -36 -120c0 -83 53 -169 139 -169c24 0 59 8 78 22c5 5 11 20 12 46z" />
    <glyph glyph-name="e.end" horiz-adv-x="672" 
d="M227 404c36 0 76 -14 98 -35c32 -32 36 -67 36 -86s-14 -24 -30 -24c-47 0 -168 2 -209 2c-4 0 -10 -6 -12 -11c-2 -6 -4 -19 -4 -31c0 -77 28 -114 62 -145c55 -47 137 -60 190 -60c170 0 214 58 238 87c5 7 7 28 0 42c-6 11 -7 19 -7 25c0 16 22 31 39 31
s30 -18 30 -40c0 -45 -41 -91 -91 -125c-43 -30 -133 -70 -257 -70c-61 0 -183 12 -242 103c-25 40 -35 77 -35 121c0 88 48 160 109 193c26 14 56 23 85 23zM216 375c-46 0 -84 -43 -95 -76c-1 -6 -1 -11 6 -11c9 0 107 2 120 2c16 1 35 6 35 27c0 37 -29 58 -66 58z" />
    <glyph glyph-name="h.end" horiz-adv-x="673" 
d="M425 250c1 -63 0 -122 1 -182c0 -12 0 -15 8 -22c8 -8 55 -12 76 -12c57 0 73 8 86 19c6 6 8 15 8 25c0 8 -10 36 -12 41c-2 6 2 16 10 23s34 29 42 28c13 -1 18 -30 18 -38c-3 -56 -36 -93 -62 -108c-28 -18 -65 -27 -109 -27c-39 0 -86 2 -104 2c-23 0 -48 -2 -71 -2
c-15 0 -25 10 -25 15c0 6 10 12 25 16c25 7 30 19 33 45c2 19 3 81 3 153c0 68 -9 84 -20 97c-19 21 -41 29 -80 29c-43 0 -75 -16 -83 -20c-2 -1 -10 -10 -11 -17c-3 -64 -2 -218 -1 -244c1 -33 12 -37 35 -44c14 -4 25 -10 25 -17c0 -8 -11 -13 -24 -13c-8 0 -58 3 -82 3
c-23 0 -57 -3 -74 -3c-9 0 -22 3 -22 13c0 5 7 11 28 17c26 9 36 20 39 57c3 42 5 119 5 375c0 82 -1 144 -2 159c-1 13 -4 15 -31 34c-4 2 -10 7 -10 15c0 5 2 5 11 9c11 4 50 15 70 26c19 11 27 12 31 12c5 0 7 -8 7 -11c-5 -125 -5 -312 -5 -341c0 -5 4 -8 6 -7
c32 23 88 49 127 49c50 0 85 -17 106 -46c20 -27 28 -65 28 -108z" />
    <glyph glyph-name="m.end" horiz-adv-x="927" 
d="M166 299v-232c0 -18 5 -31 35 -39c20 -5 22 -10 22 -18c0 -7 -7 -13 -20 -13c-4 0 -50 3 -88 3c-33 0 -43 -3 -65 -3c-16 0 -24 7 -24 14c0 4 5 11 22 15c33 8 39 16 43 59c2 26 4 111 4 208c0 11 -1 19 -13 27c-18 15 -28 21 -28 28s7 11 19 17c19 8 63 33 74 40
c4 3 6 4 8 4c4 -1 11 -8 11 -10c0 -14 -2 -39 -2 -49c0 -2 2 -7 5 -5c25 22 83 59 130 59c25 0 46 -7 62 -15c25 -14 41 -32 46 -41c3 -3 10 -3 13 -1c25 19 46 33 72 44s45 13 62 13c31 0 55 -9 73 -24c32 -25 45 -66 48 -107c2 -25 2 -101 2 -204c0 -13 0 -15 8 -22
c9 -9 57 -13 76 -13c58 0 76 8 85 17c6 6 9 14 9 24c0 8 -9 36 -12 42c-3 9 5 18 17 29c8 7 28 24 36 23c14 -1 16 -33 15 -40c0 -47 -34 -90 -59 -105c-27 -18 -65 -27 -107 -27s-89 2 -107 2c-22 0 -52 -2 -73 -2c-15 0 -21 10 -21 15c0 6 6 12 21 16c25 7 35 21 38 50
v171c0 36 -6 50 -16 67c-12 20 -33 35 -75 35c-44 0 -68 -18 -80 -28c-10 -8 -12 -18 -12 -29c0 -7 0 -198 2 -220c3 -32 8 -41 43 -48c11 -2 19 -9 19 -14c0 -7 -6 -15 -22 -15c-22 0 -52 3 -75 3c-21 0 -50 -3 -71 -3c-22 0 -24 10 -24 14c0 3 3 10 19 15
c27 9 37 16 37 52v197c0 29 -6 40 -13 49c-13 17 -39 29 -75 29c-32 0 -56 -10 -80 -28c-8 -6 -14 -19 -14 -26z" />
    <glyph glyph-name="n.end" horiz-adv-x="684" 
d="M435 243c0 -128 0 -159 1 -173c0 -13 0 -16 8 -22c7 -9 55 -13 76 -13c57 0 69 6 79 15c6 5 9 17 9 26s-5 36 -8 41c-1 4 0 13 13 25c8 7 34 25 41 24c14 -1 17 -30 16 -37c-3 -56 -38 -91 -63 -106c-28 -17 -62 -26 -105 -26c-42 0 -88 2 -106 2c-22 0 -51 -2 -73 -2
c-15 0 -22 10 -22 15c0 6 7 12 22 16c25 7 32 21 34 49c3 33 3 147 3 176c0 33 -12 60 -32 78c-11 9 -33 18 -63 18c-43 0 -72 -14 -90 -31c-6 -6 -8 -12 -8 -19c0 -13 0 -230 1 -242c1 -14 6 -22 38 -31c10 -3 17 -7 17 -15c0 -11 -11 -14 -25 -14c-12 0 -40 3 -61 3
c-37 0 -66 -3 -83 -3c-15 0 -24 5 -24 14c0 7 10 13 20 16c34 10 38 18 41 54c3 30 5 121 5 223c0 11 -2 17 -23 35c-13 9 -15 13 -15 19c0 7 9 13 16 16c18 6 41 18 53 24c11 5 25 12 33 12c7 0 8 -9 8 -16c0 -6 -1 -32 -1 -41c0 -4 4 -7 9 -4c41 31 86 55 129 55
c49 0 79 -23 93 -39c23 -26 37 -72 37 -122z" />
    <glyph glyph-name="r.end" horiz-adv-x="564" 
d="M95 105v175c0 22 -3 33 -13 42c-13 10 -34 24 -34 28c0 3 3 14 14 18c27 10 64 26 74 32c10 8 15 12 18 12c7 0 14 -8 14 -11c0 -18 -1 -64 -2 -84c0 -3 4 -4 7 0c7 9 51 54 77 70c15 10 37 21 59 21c33 0 59 -20 87 -36c32 -19 56 -24 70 -24c32 0 54 15 54 37
c0 9 -10 27 -14 37c-2 4 0 15 5 21c6 5 15 11 24 11c17 0 29 -16 29 -42s-17 -53 -44 -76c-28 -24 -63 -42 -99 -42c-21 0 -44 10 -87 33c-35 18 -55 23 -69 23c-20 0 -48 -15 -71 -46c-18 -24 -26 -42 -26 -58c0 -19 1 -149 2 -164c3 -43 17 -48 67 -59
c17 -4 21 -10 21 -14c0 -5 -6 -12 -20 -12c-34 0 -64 3 -110 3c-33 0 -48 -3 -72 -3c-17 0 -24 4 -24 12s14 11 21 14c40 12 42 22 42 82z" />
    <glyph glyph-name="longs" unicode="&#x17f;" horiz-adv-x="253" 
d="M167 316c0 -16 0 -213 2 -246c1 -22 9 -34 49 -44c18 -4 27 -11 27 -15c0 -7 -10 -14 -28 -14c-12 0 -67 3 -93 3c-34 0 -52 -3 -75 -3c-14 0 -24 4 -24 11c0 8 11 12 22 15c41 11 43 18 45 69c1 34 2 190 2 239c0 4 -3 10 -10 10c-8 0 -23 1 -35 1c-4 0 -7 5 -7 13
c0 4 23 20 43 35c8 6 10 10 10 17c0 45 5 101 23 144c21 50 46 91 90 123c40 30 77 40 116 40c20 0 47 -7 64 -20c10 -8 17 -22 17 -34c0 -14 -13 -37 -27 -41c-5 -2 -12 -3 -18 -3c-7 0 -13 5 -27 19c-19 17 -46 32 -72 32c-24 0 -43 -11 -61 -40
c-24 -42 -33 -101 -33 -232v-79z" />
    <glyph glyph-name="t.end" horiz-adv-x="499" 
d="M145 465c5 0 12 -6 12 -17s-1 -25 -1 -44c0 -13 5 -15 14 -15c11 0 45 -2 93 -2c47 0 110 -2 148 1c32 3 49 10 49 38c0 16 -14 39 -25 52c-7 7 4 20 13 27c4 4 14 10 23 10c22 0 35 -32 35 -53c0 -53 -47 -91 -68 -102s-50 -18 -101 -18c-94 0 -159 -1 -172 -2
c-6 0 -9 -12 -9 -19v-186c0 -25 3 -46 13 -60c17 -23 40 -29 61 -29c27 0 61 21 69 25c2 1 8 -2 8 -10c0 -6 -3 -13 -9 -20c-21 -23 -58 -53 -103 -53c-43 0 -71 13 -93 41c-11 15 -20 32 -20 90c0 50 3 179 3 196c0 25 -5 23 -14 25c-6 2 -17 3 -25 5c-8 1 -13 7 -13 12
s8 16 18 23c15 10 64 63 75 73c10 10 16 12 19 12z" />
    <glyph glyph-name="t.endalt" horiz-adv-x="562" 
d="M147 468c4 0 11 -9 9 -18v-49c0 -7 4 -11 10 -11c26 0 125 1 130 1c6 0 16 -1 16 -8v-35c0 -7 -5 -10 -16 -10c-9 0 -120 3 -129 3c-8 0 -10 -7 -10 -18l-1 -169c0 -66 16 -89 49 -109c31 -20 99 -25 134 -25c99 0 135 28 149 48c4 6 1 16 -5 24c-4 6 -8 15 -8 22
c0 20 21 41 41 41c15 0 31 -14 31 -42c0 -49 -63 -95 -111 -114c-50 -19 -107 -26 -171 -26c-46 0 -141 11 -171 71c-7 14 -12 41 -12 59c0 71 3 157 3 229c0 8 0 12 -34 12c-10 1 -20 6 -20 13c0 6 10 15 18 20c21 15 57 54 74 73c9 11 19 18 24 18z" />
    <glyph glyph-name="u.end" horiz-adv-x="669" 
d="M82 82c0 72 -1 186 -3 239c-1 27 -20 34 -37 41c-9 4 -18 10 -18 19c0 3 5 9 17 9c28 0 97 8 101 8c5 0 11 -9 11 -15c2 -95 1 -223 1 -268c0 -23 10 -45 24 -55c16 -10 42 -15 66 -15c39 0 73 20 85 30c10 9 14 15 14 26c0 43 -1 216 -1 227c0 8 -6 18 -18 21
c-16 4 -43 11 -51 15c-7 0 -17 9 -17 17c0 4 6 9 16 9c40 0 80 1 107 7c10 2 19 4 26 4c8 0 10 -12 10 -16v-315c0 -12 2 -14 9 -21c8 -10 58 -11 78 -11c57 0 77 4 90 15c7 7 9 13 9 25c0 13 -12 40 -14 45c-2 6 2 13 5 16c8 8 33 29 42 29c14 0 21 -28 21 -42
c0 -53 -38 -91 -63 -106c-28 -17 -59 -23 -97 -23c-41 0 -68 2 -88 2s-45 -2 -54 -4c-7 -2 -11 3 -11 10c0 6 3 22 3 40c0 4 -6 7 -8 5c-28 -19 -73 -45 -86 -50c-17 -7 -39 -12 -67 -12c-36 0 -67 16 -87 47c-7 11 -15 31 -15 47z" />
    <glyph glyph-name="z.end" horiz-adv-x="588" 
d="M135 0c-44 0 -69 0 -92 -1c-5 0 -14 9 -14 15s8 18 24 42c34 44 175 257 197 293c2 3 1 8 -3 8c-8 0 -85 1 -132 1c-18 0 -42 -34 -54 -54c-7 -12 -11 -18 -18 -18c-6 0 -10 7 -10 14c0 9 2 17 7 32c6 20 10 46 10 63c0 4 1 7 6 11c6 4 9 4 12 1c12 -11 20 -17 38 -17h94
c74 0 115 3 137 3c4 0 15 -1 18 -2c6 -2 4 -9 1 -13c-5 -8 -32 -45 -57 -82c-27 -40 -116 -174 -158 -243c-3 -4 -2 -9 1 -10c8 -3 108 -9 199 -9c58 0 181 -4 179 79c0 17 -6 29 -13 41c-5 9 -7 11 -7 18c0 3 2 10 6 16c10 13 31 28 40 28c15 0 27 -24 27 -54
c0 -55 -28 -97 -54 -118c-30 -24 -78 -47 -150 -47c-71 0 -186 3 -234 3z" />
    <glyph glyph-name="c_h" horiz-adv-x="869" 
d="M260 401c30 0 74 -8 93 -23c10 -7 15 -24 15 -30c0 -16 -29 -40 -33 -40c-6 0 -23 8 -39 19c-33 24 -50 39 -84 39c-16 0 -46 -14 -62 -34c-27 -30 -42 -71 -42 -115c0 -58 22 -94 26 -100c25 -42 74 -67 126 -67c37 0 63 12 89 30c11 8 19 5 19 0c0 -11 -5 -21 -13 -29
c-35 -39 -92 -62 -144 -62c-63 0 -116 33 -148 80c-17 28 -31 75 -31 117c0 73 39 134 97 173c39 28 104 42 131 42zM647 404c50 0 85 -17 106 -46c20 -27 29 -65 29 -108l4 -185c0 -25 13 -33 39 -39c20 -4 28 -10 28 -16c0 -9 -8 -13 -27 -13c-34 0 -45 3 -79 3
c-23 0 -43 -2 -72 -2c-15 0 -20 5 -20 12c0 6 9 11 21 14c25 8 28 11 32 49c2 19 0 129 0 145c0 55 -5 87 -16 100c-16 19 -42 33 -81 33c-43 0 -76 -19 -80 -23c-2 -2 -15 -18 -16 -49c-3 -42 -3 -172 -2 -208c2 -33 16 -39 39 -45c14 -4 22 -11 22 -16
c0 -9 -11 -12 -25 -12c-8 0 -58 2 -82 2c-23 0 -59 -3 -76 -3c-9 0 -23 3 -23 13c0 5 8 11 29 17c26 9 36 20 39 57c3 42 10 177 10 278c0 40 1 209 -3 238c-3 26 -5 28 -33 46c-4 2 -10 12 -10 20c0 2 1 4 3 5c31 9 76 19 100 35c4 2 13 7 19 7c4 0 6 -8 6 -11
c-10 -72 -14 -321 -14 -350c0 -6 6 -7 7 -6c41 37 84 58 126 58z" />
    <glyph glyph-name="c_k" horiz-adv-x="836" 
d="M260 401c30 0 74 -8 93 -23c10 -7 15 -24 15 -30c0 -16 -29 -40 -33 -40c-6 0 -23 8 -39 19c-33 24 -50 39 -84 39c-16 0 -46 -14 -62 -34c-27 -30 -42 -71 -42 -115c0 -58 22 -94 26 -100c25 -42 74 -67 126 -67c37 0 63 12 89 30c11 8 19 5 19 0c0 -11 -5 -21 -13 -29
c-35 -39 -92 -62 -144 -62c-63 0 -116 33 -148 80c-17 28 -31 75 -31 117c0 73 39 134 97 173c39 28 104 42 131 42zM619 390h47c66 0 101 12 135 12c4 0 7 -4 7 -7c0 -12 -16 -21 -20 -22c-54 -12 -71 -22 -116 -53c-30 -22 -77 -69 -81 -76c-2 -4 -2 -8 -1 -10
c34 -42 130 -146 161 -177c18 -17 36 -29 68 -36c17 -4 24 -12 24 -16c0 -10 -13 -12 -25 -12c-23 0 -73 6 -125 6h-45c-14 0 -25 4 -25 13c0 6 9 11 22 14c21 5 24 14 13 28s-63 69 -113 127c-10 12 -20 23 -25 23c-4 0 -5 -6 -5 -8c-5 -13 -5 -109 1 -139
c3 -20 10 -26 37 -33c12 -3 22 -7 22 -15c0 -9 -13 -11 -24 -11c-25 0 -58 2 -83 2c-35 0 -62 -4 -84 -4c-12 0 -23 3 -23 11c0 7 10 11 23 15c40 10 47 19 52 44c4 19 7 210 7 343c0 129 -3 185 -6 211c0 3 -2 9 -30 26c-8 6 -13 11 -13 14c0 4 5 10 13 13
c10 3 60 14 87 31c10 6 15 9 20 9c2 0 8 -9 7 -13c-5 -24 -9 -282 -9 -368c0 -39 0 -92 3 -101c2 -6 3 -9 8 -9s13 7 20 13c33 31 88 82 106 108c4 5 7 15 -38 22c-6 1 -9 4 -9 7c0 4 10 18 17 18z" />
    <glyph glyph-name="c_t" horiz-adv-x="703" 
d="M464 88c0 99 2 187 2 232c0 15 -4 18 -7 19c-6 2 -44 2 -47 3c-8 3 -13 5 -13 11c0 12 47 31 61 39c8 4 11 8 13 15c3 12 6 24 6 45c0 97 -55 140 -117 140c-91 0 -116 -69 -116 -133c0 -19 4 -37 8 -45c1 -2 8 -7 15 -8c23 -3 37 -7 48 -12c26 -11 29 -20 29 -34
c0 -13 -33 -37 -37 -37c-5 0 -10 0 -14 4c-22 18 -52 35 -82 35c-46 0 -106 -26 -106 -141c0 -55 19 -102 43 -128c24 -27 62 -41 98 -41c49 0 88 9 125 60c6 8 9 9 13 9s4 -15 4 -22c-6 -26 -47 -111 -173 -111c-46 0 -100 20 -128 48c-33 33 -57 78 -57 149
c0 97 57 150 97 177c17 13 44 29 90 42c2 1 5 3 4 5c-10 16 -18 39 -18 64c0 99 77 168 169 168c84 0 130 -43 149 -90c10 -26 17 -76 17 -143c0 -9 2 -13 11 -13h117c5 0 9 -1 11 -10c1 -5 1 -16 1 -30c0 -4 -5 -12 -12 -12s-96 -4 -111 -4c-8 0 -14 -8 -14 -10
c-2 -21 -4 -176 -4 -216c0 -28 7 -41 21 -53c12 -9 36 -15 52 -15c24 0 43 10 64 25c5 3 11 3 11 -8c0 -5 -4 -18 -10 -24c-29 -32 -69 -52 -117 -52c-29 0 -60 17 -75 37c-15 15 -21 44 -21 65z" />
    <glyph glyph-name="f_t.alt" horiz-adv-x="581" 
d="M527 341c-4 0 -97 1 -102 1c-4 0 -7 -5 -7 -9v-208c0 -25 7 -43 17 -55c16 -19 32 -26 52 -26c23 0 49 13 53 18c8 7 10 7 14 7s8 -10 8 -17c0 -3 -17 -24 -25 -30c-18 -17 -45 -34 -88 -34c-41 0 -79 28 -92 49c-10 17 -13 37 -13 65c0 37 3 195 3 230c0 4 -2 8 -12 9
c-22 1 -129 1 -158 1c-6 0 -10 -6 -10 -11c0 -79 -2 -202 2 -253c3 -37 5 -43 47 -51c18 -4 27 -10 27 -14c0 -7 -11 -16 -22 -16c-13 0 -76 3 -101 3c-34 0 -63 -4 -73 -4c-11 0 -21 5 -21 12c0 4 4 8 15 13c45 11 49 16 50 68c1 38 2 185 2 242c0 4 -4 9 -11 9l-33 3
c-4 0 -8 4 -8 12c0 5 29 23 44 33c7 5 9 9 9 20c1 32 5 65 12 96c13 59 39 114 82 149c30 25 73 48 111 48c81 0 120 -52 120 -118v-181c0 -3 3 -8 7 -8c22 0 104 1 108 1s14 -2 16 -12c0 1 2 -19 2 -31c0 -10 -18 -11 -25 -11zM264 655c-70 0 -99 -64 -99 -228
c0 -11 3 -27 3 -28c0 0 5 -9 8 -9c1 0 123 0 161 1c5 0 8 4 9 11c3 37 3 120 3 160c0 37 -6 55 -18 68c-15 16 -34 25 -67 25z" />
    <glyph glyph-name="s_p" horiz-adv-x="799" 
d="M396 534c0 34 4 59 -59 59c-78 0 -116 -57 -116 -123c0 -34 8 -51 18 -65l8 -6l28 -12c5 -2 8 -9 9 -18c2 -12 3 -44 3 -51c0 -4 -8 -16 -15 -16c-4 0 -14 17 -20 27c-17 33 -41 48 -74 48c-43 0 -60 -38 -60 -57c0 -44 29 -62 103 -101c58 -32 81 -68 81 -111
c0 -46 -32 -78 -59 -95c-22 -12 -58 -25 -94 -25c-27 0 -76 7 -93 24c-4 5 -24 42 -24 80c0 12 8 18 11 18c8 0 17 -9 23 -21c29 -51 69 -71 95 -71c40 0 68 27 68 67c0 21 -11 46 -49 66c-28 16 -46 26 -75 45c-30 21 -53 52 -53 94c0 40 21 72 60 95c19 11 46 21 77 21
c8 0 10 4 7 10c-9 18 -15 46 -15 63c0 100 83 160 173 160c35 0 75 -1 93 4c13 4 21 -5 21 -53c0 -76 -3 -137 -2 -227c0 -4 4 -11 7 -9c25 17 52 28 66 34c15 7 41 13 69 13c37 0 82 -22 112 -55c24 -27 47 -76 47 -131c0 -50 -21 -124 -85 -172c-55 -43 -109 -50 -154 -50
c-22 0 -41 1 -54 3c-3 0 -10 -8 -10 -13c0 -97 0 -138 3 -166c3 -26 11 -38 48 -50c20 -5 29 -11 29 -18c0 -8 -14 -13 -27 -13c-21 0 -80 5 -118 5c-24 0 -35 -3 -65 -3c-15 0 -29 5 -29 14c0 4 8 10 24 13c54 13 56 21 60 93c2 39 7 326 7 429v247zM556 351
c-41 0 -65 -9 -76 -17c-5 -4 -10 -13 -13 -31c-5 -30 -6 -133 -3 -175c2 -18 6 -35 13 -44c27 -38 73 -59 99 -59c11 0 32 5 45 17c51 42 67 117 67 146c0 22 0 77 -42 121c-25 27 -67 42 -90 42z" />
    <glyph glyph-name="s_t" unicode="&#xfb06;" horiz-adv-x="641" 
d="M333 612c48 0 96 -23 118 -65c17 -29 21 -70 21 -146c0 -3 4 -11 8 -11c22 0 116 2 120 2s14 -2 16 -12c0 1 3 -20 3 -32c0 -10 -19 -11 -26 -11c-4 0 -108 1 -113 1c-2 0 -5 -3 -5 -9v-204c0 -25 7 -43 17 -55c17 -19 38 -22 56 -22c13 0 33 4 52 16c6 4 10 6 14 6
s11 -7 11 -17c0 -3 -18 -22 -25 -29c-20 -16 -54 -36 -97 -36c-41 0 -75 28 -88 49c-11 17 -14 37 -14 65c0 37 3 192 3 227c0 7 -4 9 -31 13c-7 1 -11 5 -11 12c0 5 0 5 5 9c24 19 34 26 36 38c3 16 6 55 6 77c0 47 -24 88 -91 88c-37 0 -94 -30 -94 -100
c0 -34 4 -48 15 -61l7 -6l29 -13c5 -2 8 -9 9 -18c2 -12 3 -43 3 -50c0 -4 -9 -17 -16 -17c-4 0 -13 17 -20 28c-16 33 -40 48 -73 48c-43 0 -60 -39 -60 -57c0 -44 20 -56 104 -101c57 -32 81 -69 81 -112c0 -46 -35 -78 -62 -95c-22 -12 -58 -24 -92 -24
c-29 0 -77 7 -94 24c-4 5 -23 45 -23 82c0 12 7 21 11 21c8 0 17 -14 23 -26c29 -51 69 -71 95 -71c47 0 68 34 68 69c0 21 -9 43 -47 63c-28 16 -47 26 -75 45c-31 22 -55 52 -55 93c0 43 22 74 61 97c19 11 49 20 80 21c3 0 4 2 3 6c-7 18 -12 40 -12 57
c0 88 60 143 149 143z" />
    </font>
</defs>
</svg>
